<svg xmlns="http://www.w3.org/2000/svg" viewBox="0 0 296.88 287.51"><defs><style>.cls-1{fill:#59bfc7;opacity:0.49;}.cls-2{fill:#99c9eb;}.cls-3{fill:#c3e4f9;}.cls-4{fill:#edf7fb;}.cls-5{fill:#b5dbf5;}.cls-6{fill:#10333f;}.cls-7{fill:#fff;}</style></defs><g id="Layer_2" data-name="Layer 2"><g id="Layer_1-2" data-name="Layer 1"><path class="cls-1" d="M280.22,146.72a54.63,54.63,0,0,0-6.84-4.44c4.67-13.92,7.06-29.93,1.8-43.49-13-33.56-43.77-57.45-66.41-69.15C195.87,23,182.56,17,169.2,11.29S142.5,1.49,128.12.36a117.68,117.68,0,0,0-75.7,20.25C31.53,35.14,14.31,58.4,14.88,84.83c.35,16.44,7.21,31.93,15.32,45.94,5.85,10.11,19.15,25,26.81,33.93C25.74,183.37,3.21,209.45.57,227.42c-3.3,22.45,8.29,33.51,21.61,43.14,41.71,30.17,139.59,13.81,179.74-1.1,36.61-13.59,78.62-32.28,92.14-72.26C300.38,178.51,296.23,159,280.22,146.72Z"/><g id="Axo_Extrusion" data-name="Axo Extrusion"><path id="Axo_panel_" data-name="Axo panel*" class="cls-2" d="M181.43,64.82l-14.25,7a6.15,6.15,0,0,1-5.24-.13L124.68,50.12a1.91,1.91,0,0,1-1.13-1.58V201.62a1.94,1.94,0,0,0,1.13,1.58l37.26,21.51a6.12,6.12,0,0,0,5.24.13l14.25-6.94Z"/><path id="Axo_base" data-name="Axo base" class="cls-3" d="M181.43,64.82,136.49,38.87l-12,8.23a1.8,1.8,0,0,0-.91,1.44,1.91,1.91,0,0,0,1.13,1.58l37.26,21.52a6.15,6.15,0,0,0,5.24.13Z"/></g><polygon class="cls-4" points="161.56 169.31 125.07 148.24 125.07 52.99 161.56 74.06 161.56 169.31"/><g id="Axo_Compound_Extrusion" data-name="Axo Compound Extrusion"><g id="Axo_Extrusion-2" data-name="Axo Extrusion"><path id="Axo_panel" data-name="Axo panel" class="cls-2" d="M140.08,73c-1.78,1-1.78,4.38,0,7.47s4.68,4.76,6.47,3.73l.56-.32c-1.78,1-4.68-.65-6.46-3.74s-1.79-6.43,0-7.46Z"/><path id="Axo_panel_2" data-name="Axo panel*" class="cls-2" d="M147.54,85.91c2.33-1.35,2.33-5.72,0-9.75s-6.11-6.23-8.45-4.88l.57-.32c2.33-1.35,6.11.83,8.44,4.87s2.33,8.4,0,9.75Z"/></g><path id="Axo_Compound" data-name="Axo Compound" class="cls-5" d="M146.55,84.19c-1.79,1-4.68-.64-6.47-3.73s-1.78-6.44,0-7.47,4.68.65,6.47,3.74S148.33,83.16,146.55,84.19Zm-7.46-12.91c-2.33,1.35-2.33,5.71,0,9.75s6.12,6.22,8.45,4.88,2.33-5.72,0-9.75S141.43,69.93,139.09,71.28Z"/></g><g id="Axo_Extrusion-3" data-name="Axo Extrusion"><path id="Axo_panel_3" data-name="Axo panel*" class="cls-2" d="M151,155.48c4.61-2.66,4.61-11.29,0-19.28s-12.09-12.3-16.7-9.63l.66-.38c4.61-2.66,12.08,1.65,16.69,9.64s4.61,16.61,0,19.27Z"/><path id="Axo_base-2" data-name="Axo base" class="cls-3" d="M151,155.48c-4.61,2.66-12.09-1.65-16.7-9.64s-4.61-16.61,0-19.27,12.09,1.65,16.7,9.63S155.62,152.82,151,155.48Z"/></g><polygon class="cls-6" points="132.64 86.96 132.64 91.84 132.4 91.71 132.4 87.31 132.15 87.16 132.48 86.87 132.64 86.96"/><path class="cls-6" d="M133,94.64l.23.14V98l.41.23v.27l-.41-.23v1.43l-.23-.14V98.09l-1.75-1Zm0,.59-1.34,1.82,1.34.77Z"/><path class="cls-6" d="M132.93,103.82a7.47,7.47,0,0,0-1.1.93,2.08,2.08,0,0,0-.43,1.38l-.25-.15a2.27,2.27,0,0,1,.45-1.5,7,7,0,0,1,1.05-.88,1.66,1.66,0,0,0,.72-.94l-2.22-1.28v-.28l2.49,1.44A1.56,1.56,0,0,1,132.93,103.82Z"/><path class="cls-6" d="M141.35,95.55l.77-.22a2.43,2.43,0,0,0,.63-.3.77.77,0,0,0,.28-.68,1.93,1.93,0,0,0-.29-1,2,2,0,0,0-.72-.76.69.69,0,0,0-.71-.07.62.62,0,0,0-.29.53l-.24-.24a.76.76,0,0,1,.35-.59.84.84,0,0,1,.89.08,2.79,2.79,0,0,1,1.26,2.19.93.93,0,0,1-.36.84,1.93,1.93,0,0,1-.58.26l-.76.22a.72.72,0,0,0-.52.61l2.22,1.28V98l-2.49-1.44C140.87,96,141.06,95.63,141.35,95.55Z"/><path class="cls-6" d="M141.12,100.88a1.35,1.35,0,0,1,.3.08,2.41,2.41,0,0,1,.33.15,2.74,2.74,0,0,1,.55.43,3.61,3.61,0,0,1,.89,1.38,2.75,2.75,0,0,1,.19.91,1.85,1.85,0,0,1-.07.48.76.76,0,0,1-.73.6,1.34,1.34,0,0,1-.69-.19,2.67,2.67,0,0,1-.46-.35,3.26,3.26,0,0,1-.74-1l.17-.12a2.63,2.63,0,0,0,.65.91,1.8,1.8,0,0,0,.37.28,1.1,1.1,0,0,0,.58.17.64.64,0,0,0,.61-.51,1.25,1.25,0,0,0,.06-.4,2.22,2.22,0,0,0-.15-.75,2.73,2.73,0,0,0-1.21-1.51,2.42,2.42,0,0,0-.75-.28l-.19-.31.49-1.26v-.1l1.32.76v.28l-1.13-.65Z"/><path class="cls-6" d="M142,112.33l-.11-.06a2.79,2.79,0,0,1-1.26-2.19.93.93,0,0,1,.36-.84.82.82,0,0,1,.63-.09,2.58,2.58,0,0,1-.37-.55,1.67,1.67,0,0,1-.2-.8.64.64,0,0,1,.26-.58.61.61,0,0,1,.64.07l.1,0a2,2,0,0,1,.9,1.56.66.66,0,0,1-.2.57.51.51,0,0,1-.37.11,3.64,3.64,0,0,1,.63.83,2.57,2.57,0,0,1,.36,1.25.85.85,0,0,1-.37.82.84.84,0,0,1-.89-.08Zm0-.29.11.07a.62.62,0,0,0,1-.59,2.14,2.14,0,0,0-.29-1,3.07,3.07,0,0,0-.83-1,.91.91,0,0,0-.83,0,.77.77,0,0,0-.29.68,2,2,0,0,0,.3,1,1.91,1.91,0,0,0,.71.75Zm0-4.43c-.23-.14-.38-.15-.51-.08a.45.45,0,0,0-.19.42,1.24,1.24,0,0,0,.19.64,2,2,0,0,0,.34.5l.17.15.17.05a.51.51,0,0,0,.34-.1.47.47,0,0,0,.19-.43,1.38,1.38,0,0,0-.19-.65,1.33,1.33,0,0,0-.46-.48Z"/><path class="cls-6" d="M143.48,119a.88.88,0,0,1-1.45.84,3.16,3.16,0,0,1-1.45-2.51v-1.62a.88.88,0,0,1,1.45-.84,3,3,0,0,1,1,1.09,2.86,2.86,0,0,1,.42,1.43Zm-.25-1.76a2.62,2.62,0,0,0-1.2-2.07.84.84,0,0,0-.85-.09.83.83,0,0,0-.35.78v1.61a2.36,2.36,0,0,0,.35,1.18,2.39,2.39,0,0,0,.85.9.73.73,0,0,0,1.2-.69Z"/><path class="cls-6" d="M151.51,100l-.19-.12V99.6a1.1,1.1,0,0,0,.4.16.53.53,0,0,0,.34-.1.46.46,0,0,0,.18-.42,1.24,1.24,0,0,0-.19-.64,1.19,1.19,0,0,0-.46-.48.46.46,0,0,0-.46-.05.32.32,0,0,0-.15.19l-.23-.24a.43.43,0,0,1,.2-.25.61.61,0,0,1,.64.07,1.75,1.75,0,0,1,.65.67,1.8,1.8,0,0,1,.26.87c0,.29-.07.48-.2.56a.54.54,0,0,1-.38.11,3.27,3.27,0,0,1,.63.82,2.51,2.51,0,0,1,.37,1.25.86.86,0,0,1-.37.81.88.88,0,0,1-.9-.09,2.61,2.61,0,0,1-.89-.94,2.73,2.73,0,0,1-.35-1l.24,0a2.14,2.14,0,0,0,.29.86,2.06,2.06,0,0,0,.71.75.69.69,0,0,0,.72.07.66.66,0,0,0,.3-.64,2.14,2.14,0,0,0-.29-1A3.27,3.27,0,0,0,151.51,100Z"/><path class="cls-6" d="M150.73,106.82a1,1,0,0,1,.94.15,3,3,0,0,1,1,1.07,2.85,2.85,0,0,1,.42,1.42,1,1,0,0,1-.42.93,1,1,0,0,1-1-.11,2.85,2.85,0,0,1-1-1.07,2.7,2.7,0,0,1-.43-1.37,2.06,2.06,0,0,1,.43-1.49,8.09,8.09,0,0,1,1-.87l.07,0,.33.19-.11.08a8.17,8.17,0,0,0-1.1.91A1.16,1.16,0,0,0,150.73,106.82Zm.09.35a.79.79,0,0,0-.35.76,2.62,2.62,0,0,0,1.2,2.06.73.73,0,0,0,1.2-.67,2.62,2.62,0,0,0-1.2-2.06A.8.8,0,0,0,150.82,107.17Z"/><path class="cls-6" d="M152.6,116.25a1.07,1.07,0,0,1-.95-.15,2.81,2.81,0,0,1-1-1.08,2.87,2.87,0,0,1-.43-1.42,1,1,0,0,1,.43-.93,1,1,0,0,1,1,.11,2.83,2.83,0,0,1,1,1.08,2.88,2.88,0,0,1,.43,1.36,2.13,2.13,0,0,1-.44,1.5,9,9,0,0,1-1,.87l-.08,0-.32-.19.11-.09a8.17,8.17,0,0,0,1.1-.91A1.56,1.56,0,0,0,152.6,116.25Zm-.1-.35a.81.81,0,0,0,.36-.77,2.67,2.67,0,0,0-1.21-2.06.82.82,0,0,0-.84-.09.79.79,0,0,0-.36.76,2.69,2.69,0,0,0,1.2,2.07A.84.84,0,0,0,152.5,115.9Z"/><path id="Axo_panel_4" data-name="Axo panel*" class="cls-4" d="M151.44,207.86c6.06-3.5,6.06-14.85,0-25.35s-15.89-16.18-22-12.68l4.36-2.51c6.06-3.5,15.89,2.17,21.95,12.67s6.06,21.85,0,25.35Z"/><ellipse id="Axo_base-3" data-name="Axo base" class="cls-3" cx="140.45" cy="188.92" rx="12.67" ry="21.95" transform="translate(-75.64 95.53) rotate(-30)"/><path id="Axo_panel_5" data-name="Axo panel*" class="cls-4" d="M122.49,210.53c2.68-1.55,2.68-6.58,0-11.24s-7-7.17-9.74-5.61l22.36-12.91c2.68-1.55,7,1,9.73,5.62s2.69,9.69,0,11.24Z"/><g id="Axo_Extrusion-4" data-name="Axo Extrusion"><path id="Axo_panel_6" data-name="Axo panel*" class="cls-7" d="M176.74,245.74c2.69-1.55,2.69-6.59,0-11.24a14,14,0,0,0-4.87-5.14L113.4,195.6c-1.76-1-3.53-1.26-4.87-.48l3.64-2.1c1.34-.78,3.1-.53,4.86.48l56.53,34.89a13.94,13.94,0,0,1,4.87,5.14c2.69,4.65,2.69,9.68,0,11.23Z"/><path id="Axo_base-4" data-name="Axo base" class="cls-3" d="M176.74,245.74c-1.34.77-3.11.53-4.87-.48L113.4,211.5a14.1,14.1,0,0,1-4.87-5.14c-2.69-4.66-2.69-9.69,0-11.24,1.34-.78,3.11-.54,4.87.48l58.47,33.76a14,14,0,0,1,4.87,5.14C179.43,239.15,179.43,244.19,176.74,245.74Z"/></g></g></g></svg>