<svg xmlns="http://www.w3.org/2000/svg" xmlns:xlink="http://www.w3.org/1999/xlink" viewBox="0 0 212.38 169.51"><defs><style>.cls-1{fill:none;}.cls-2{isolation:isolate;}.cls-16,.cls-24,.cls-3,.cls-40{fill:#1e1e1c;}.cls-3,.cls-38{opacity:0.15;}.cls-3,.cls-32,.cls-36,.cls-38,.cls-40{mix-blend-mode:multiply;}.cls-36,.cls-4{opacity:0.5;}.cls-5{fill:#939393;}.cls-6{fill:#c6c6c6;}.cls-7{fill:#4f4f4f;}.cls-8{fill:#666;}.cls-9{fill:#fff;}.cls-10{fill:#dadada;}.cls-11{fill:#c7c6c6;}.cls-12{fill:#9e9d9c;}.cls-13,.cls-38{fill:#3d3d3b;}.cls-14{fill:#585857;}.cls-15{fill:#fab334;}.cls-17{fill:#727070;}.cls-18{clip-path:url(#clip-path);}.cls-19{fill:#e20e18;}.cls-20{fill:#bcbcbb;}.cls-21{fill:#767676;}.cls-22{fill:#eeeded;}.cls-23{fill:#626161;}.cls-24{opacity:0.2;}.cls-25{fill:#a8a8a8;}.cls-26{fill:#878787;}.cls-27{fill:#df5c11;}.cls-28{fill:#f1842c;}.cls-29{fill:#575757;}.cls-30{fill:#3d3d3d;}.cls-31,.cls-32{fill:#f7af77;}.cls-32{opacity:0.3;}.cls-33{fill:#7963a8;}.cls-34{fill:#563c90;}.cls-35{fill:#010101;}.cls-36{fill:#7159a2;}.cls-37{fill:#50368c;}.cls-39{fill:#fcedd5;}.cls-40{opacity:0.1;}</style><clipPath id="clip-path"><polygon id="SVGID" class="cls-1" points="148.4 33.83 189.37 57.49 189.37 152.1 148.4 128.45 148.4 33.83"/></clipPath></defs><g class="cls-2"><g id="Layer_2" data-name="Layer 2"><g id="Layer_1-2" data-name="Layer 1"><ellipse class="cls-3" cx="149.68" cy="148.74" rx="35.97" ry="20.77"/><ellipse class="cls-3" cx="79.51" cy="148.48" rx="30.18" ry="17.42"/><g class="cls-4"><polygon class="cls-5" points="83.05 87.7 56.15 103.23 29.25 87.7 56.15 72.17 83.05 87.7"/><polygon class="cls-6" points="76.8 87.7 56.15 99.62 35.49 87.7 56.15 75.77 76.8 87.7"/><polygon class="cls-7" points="59.76 97.54 58.97 97.99 38.32 86.07 39.1 85.61 59.76 97.54"/><polygon class="cls-7" points="63.28 95.5 62.5 95.96 41.84 84.03 42.63 83.58 63.28 95.5"/><polygon class="cls-7" points="66.81 93.47 66.03 93.92 45.37 81.99 46.15 81.54 66.81 93.47"/><polygon class="cls-7" points="70.34 91.43 69.55 91.88 48.9 79.96 49.68 79.5 70.34 91.43"/><polygon class="cls-7" points="73.86 89.39 73.08 89.85 52.42 77.92 53.21 77.47 73.86 89.39"/><polygon class="cls-7" points="56.15 134.28 29.25 118.76 29.25 87.7 56.15 103.23 56.15 134.28"/><polygon class="cls-6" points="53.03 128.88 32.37 116.95 32.37 93.1 53.03 105.03 53.03 128.88"/><polygon class="cls-5" points="35.98 119.04 35.19 118.58 35.19 94.73 35.98 95.19 35.98 119.04"/><polygon class="cls-5" points="39.51 121.07 38.72 120.62 38.72 96.77 39.51 97.22 39.51 121.07"/><polygon class="cls-5" points="43.03 123.11 42.25 122.66 42.25 98.81 43.03 99.26 43.03 123.11"/><polygon class="cls-5" points="46.56 125.15 45.78 124.69 45.78 100.84 46.56 101.3 46.56 125.15"/><polygon class="cls-5" points="50.09 127.18 49.3 126.73 49.3 102.88 50.09 103.33 50.09 127.18"/><polygon class="cls-7" points="53.03 128.88 32.37 96.88 32.37 93.1 53.03 125.11 53.03 128.88"/><polygon class="cls-8" points="83.05 118.76 56.15 134.28 56.15 103.23 83.04 87.7 83.05 118.76"/><polygon class="cls-6" points="79.92 116.95 59.27 128.88 59.27 105.03 79.92 93.1 79.92 116.95"/><polygon class="cls-5" points="62.88 126.8 62.09 127.25 62.09 103.4 62.88 102.94 62.88 126.8"/><polygon class="cls-5" points="66.4 124.76 65.62 125.21 65.62 101.36 66.4 100.91 66.4 124.76"/><polygon class="cls-5" points="69.93 122.72 69.15 123.18 69.15 99.33 69.93 98.87 69.93 122.72"/><polygon class="cls-5" points="73.46 120.69 72.67 121.14 72.67 97.29 73.46 96.84 73.46 120.69"/><polygon class="cls-5" points="76.98 118.65 76.2 119.1 76.2 95.25 76.98 94.8 76.98 118.65"/><polygon class="cls-5" points="79.92 116.95 59.27 108.8 59.27 105.03 79.92 113.18 79.92 116.95"/><polygon class="cls-5" points="53.8 104.57 26.9 120.1 0 104.57 26.9 89.04 53.8 104.57"/><polygon class="cls-6" points="47.55 104.57 26.9 116.5 6.24 104.57 26.9 92.65 47.55 104.57"/><polygon class="cls-7" points="30.51 114.42 29.72 114.87 9.07 102.94 9.85 102.49 30.51 114.42"/><polygon class="cls-7" points="34.03 112.38 33.25 112.83 12.59 100.91 13.38 100.45 34.03 112.38"/><polygon class="cls-7" points="37.56 110.34 36.78 110.8 16.12 98.87 16.9 98.42 37.56 110.34"/><polygon class="cls-7" points="41.09 108.31 40.3 108.76 19.65 96.83 20.43 96.38 41.09 108.31"/><polygon class="cls-7" points="44.62 106.27 43.83 106.72 23.17 94.8 23.96 94.34 44.62 106.27"/><polygon class="cls-7" points="26.9 151.16 0 135.63 0 104.57 26.9 120.1 26.9 151.16"/><polygon class="cls-6" points="23.78 145.75 3.12 133.83 3.12 109.98 23.78 121.9 23.78 145.75"/><polygon class="cls-5" points="6.73 135.91 5.94 135.46 5.94 111.61 6.73 112.06 6.73 135.91"/><polygon class="cls-5" points="10.26 137.95 9.47 137.5 9.47 113.64 10.26 114.1 10.26 137.95"/><polygon class="cls-5" points="13.78 139.99 13 139.53 13 115.68 13.78 116.13 13.78 139.99"/><polygon class="cls-5" points="17.31 142.02 16.53 141.57 16.53 117.72 17.31 118.17 17.31 142.02"/><polygon class="cls-5" points="20.84 144.06 20.05 143.61 20.05 119.75 20.84 120.21 20.84 144.06"/><polygon class="cls-7" points="23.78 145.75 3.12 113.75 3.12 109.98 23.78 141.98 23.78 145.75"/><polygon class="cls-8" points="53.8 135.63 26.9 151.16 26.9 120.1 53.79 104.57 53.8 135.63"/><polygon class="cls-6" points="50.67 133.83 30.02 145.75 30.02 121.9 50.67 109.98 50.67 133.83"/><polygon class="cls-5" points="33.63 143.67 32.84 144.13 32.84 120.27 33.63 119.82 33.63 143.67"/><polygon class="cls-5" points="37.15 141.64 36.37 142.09 36.37 118.24 37.15 117.78 37.15 141.64"/><polygon class="cls-5" points="40.68 139.6 39.9 140.05 39.9 116.2 40.68 115.75 40.68 139.6"/><polygon class="cls-5" points="44.21 137.56 43.42 138.02 43.42 114.16 44.21 113.71 44.21 137.56"/><polygon class="cls-5" points="47.73 135.53 46.95 135.98 46.95 112.13 47.73 111.67 47.73 135.53"/><polygon class="cls-5" points="50.67 133.83 30.02 125.67 30.02 121.9 50.67 130.06 50.67 133.83"/><polygon class="cls-5" points="41.91 95.21 29.23 87.89 29.23 70.83 41.91 78.15 41.91 95.21"/><polygon class="cls-8" points="58.9 85.41 41.91 95.21 41.91 78.15 58.9 68.34 58.9 85.41"/><polygon class="cls-7" points="58.9 68.34 51.1 72.84 50.38 73.26 41.92 78.15 29.23 70.83 37.7 65.94 38.42 65.52 46.22 61.02 58.9 68.34"/><polygon class="cls-9" points="46.72 79.86 43.3 81.83 43.3 79.13 46.72 77.16 46.72 79.86"/><polygon class="cls-6" points="50.01 72.38 41.92 78.15 29.23 70.83 37.32 65.05 50.01 72.38"/><polygon class="cls-6" points="51.09 72 58.84 68.35 46.16 61.03 38.41 64.68 51.09 72"/></g><polygon class="cls-10" points="212.38 44.23 212.38 138.85 189.36 152.1 189.36 57.48 212.38 44.23"/><polygon class="cls-10" points="148.15 33.97 189.11 57.63 189.36 152.1 148.15 128.59 148.15 33.97"/><polygon class="cls-11" points="212.38 44.23 189.36 57.48 171.42 47.25 148.4 34.12 148.15 33.97 148.4 33.83 171.17 20.72 171.42 20.86 212.38 44.23"/><polygon class="cls-12" points="189.36 125.39 189.36 151.78 148.4 128.41 171.42 115.15 189.36 125.39"/><path class="cls-13" d="M204.89,131.61c.38-.22.69,0,.69.4a1.54,1.54,0,0,1-.69,1.2l-7.78,4.49c-.39.22-.7.05-.7-.4a1.52,1.52,0,0,1,.7-1.2Z"/><path class="cls-13" d="M204.89,129c.38-.22.69,0,.69.4a1.54,1.54,0,0,1-.69,1.2l-7.78,4.49c-.39.22-.7,0-.7-.4a1.52,1.52,0,0,1,.7-1.2Z"/><path class="cls-13" d="M204.89,126.34c.38-.22.69,0,.69.4a1.52,1.52,0,0,1-.69,1.2l-7.78,4.5c-.39.22-.7,0-.7-.4a1.51,1.51,0,0,1,.7-1.2Z"/><path class="cls-13" d="M204.89,123.71c.38-.22.69,0,.69.4a1.54,1.54,0,0,1-.69,1.2l-7.78,4.49c-.39.22-.7,0-.7-.4a1.52,1.52,0,0,1,.7-1.2Z"/><path class="cls-13" d="M204.89,121.08c.38-.22.69,0,.69.4a1.54,1.54,0,0,1-.69,1.2l-7.78,4.49c-.39.22-.7,0-.7-.4a1.52,1.52,0,0,1,.7-1.2Z"/><path class="cls-13" d="M204.89,118.44c.38-.22.69,0,.69.4a1.54,1.54,0,0,1-.69,1.2l-7.78,4.49c-.39.23-.7,0-.7-.4a1.54,1.54,0,0,1,.7-1.2Z"/><path class="cls-13" d="M204.89,115.81c.38-.22.69,0,.69.4a1.54,1.54,0,0,1-.69,1.2l-7.78,4.49c-.39.22-.7,0-.7-.4a1.52,1.52,0,0,1,.7-1.2Z"/><polygon class="cls-14" points="171.17 46.97 171.17 114.84 148.15 128.1 148.15 33.83 171.17 46.97"/><polygon class="cls-12" points="148.15 33.97 102.05 37.92 102.05 132.53 148.15 128.59 148.15 33.97"/><path class="cls-9" d="M119.16,73.41a2,2,0,0,1-2-2V54.73a2,2,0,0,1,1.86-2l11.88-1.06H131a2,2,0,0,1,2,2.05V70.31a2,2,0,0,1-1.86,2L119.3,73.41Z"/><path class="cls-15" d="M119.07,53.65l11.87-1a1.08,1.08,0,0,1,1.18,1.07V70.31a1.07,1.07,0,0,1-1,1.07l-11.87,1.06a1.07,1.07,0,0,1-1.17-1.07V54.73A1.08,1.08,0,0,1,119.07,53.65Z"/><polygon class="cls-16" points="125.01 55.43 121.45 62.77 125.06 62.14 121.45 70.21 128.75 59.6 124.48 60.63 128.11 55.07 125.01 55.43"/><polygon class="cls-17" points="189.36 125.39 189.36 152.1 148.15 128.1 171.38 114.69 189.36 125.39"/><g class="cls-18"><rect class="cls-19" x="189.67" y="57.35" width="0.76" height="31.4"/><path class="cls-19" d="M188.18,129.82a1.41,1.41,0,0,0,.72-.19,1.45,1.45,0,0,0,.74-1.26v-23h-.76v23a.71.71,0,0,1-.35.6.7.7,0,0,1-.7,0l-15.78-9.35a2.4,2.4,0,0,1-1.18-2.07v-7h-.76v7a3.18,3.18,0,0,0,1.55,2.73l15.78,9.35A1.52,1.52,0,0,0,188.18,129.82Z"/><path class="cls-19" d="M186.34,126.55a1.42,1.42,0,0,0,.69-.18,1.37,1.37,0,0,0,.68-1.18V102.05h-.77v23.14a.6.6,0,0,1-.3.52.62.62,0,0,1-.59,0l-8.13-4.7a1.72,1.72,0,0,1-.87-1.51l.09-9.65h-.76l-.09,9.65a2.49,2.49,0,0,0,1.25,2.18l8.12,4.69A1.32,1.32,0,0,0,186.34,126.55Z"/><path class="cls-19" d="M184.31,123.09a1.49,1.49,0,0,0,.73-.2,1.44,1.44,0,0,0,.74-1.27V98.69H185v22.93a.7.7,0,0,1-1,.61L166.69,112l-.39.65,17.27,10.22A1.43,1.43,0,0,0,184.31,123.09Z"/><rect class="cls-19" x="186.65" y="55.79" width="0.76" height="31.4"/><rect class="cls-19" x="182.75" y="53.88" width="0.76" height="31.4"/><rect class="cls-19" x="179.58" y="52.89" width="0.76" height="31.4"/><rect class="cls-19" x="176.72" y="51.38" width="0.76" height="31.4"/><g class="cls-2"><polygon class="cls-10" points="171.15 98.03 163.1 93.35 163.15 112.9 171.2 117.58 171.15 98.03"/><polygon class="cls-20" points="169.62 98.91 164.63 96 164.67 112.02 169.67 114.93 169.62 98.91"/><polygon class="cls-20" points="174.47 96.11 166.42 91.43 163.1 93.35 171.15 98.03 174.47 96.11"/><polygon class="cls-21" points="171.15 98.03 171.2 117.58 174.52 115.66 174.47 96.11 171.15 98.03"/></g><g class="cls-2"><polygon class="cls-22" points="169.57 100.25 163.75 96.86 163.75 97.7 169.57 101.09 169.57 100.25"/><polygon class="cls-9" points="169.96 100.02 164.13 96.63 163.75 96.86 169.57 100.25 169.96 100.02"/><polygon class="cls-21" points="169.57 100.25 169.57 101.09 169.97 100.86 169.96 100.02 169.57 100.25"/></g><g class="cls-2"><polygon class="cls-22" points="169.57 102.28 163.75 98.89 163.75 99.73 169.57 103.12 169.57 102.28"/><polygon class="cls-9" points="169.96 102.05 164.13 98.67 163.75 98.89 169.57 102.28 169.96 102.05"/><polygon class="cls-21" points="169.57 102.28 169.57 103.12 169.97 102.89 169.96 102.05 169.57 102.28"/></g><g class="cls-2"><polygon class="cls-22" points="169.57 104.31 163.75 100.92 163.75 101.76 169.57 105.15 169.57 104.31"/><polygon class="cls-9" points="169.96 104.08 164.13 100.7 163.75 100.92 169.57 104.31 169.96 104.08"/><polygon class="cls-21" points="169.57 104.31 169.57 105.15 169.97 104.92 169.96 104.08 169.57 104.31"/></g><g class="cls-2"><polygon class="cls-22" points="169.57 106.34 163.75 102.95 163.75 103.8 169.57 107.18 169.57 106.34"/><polygon class="cls-9" points="169.96 106.11 164.13 102.73 163.75 102.95 169.57 106.34 169.96 106.11"/><polygon class="cls-21" points="169.57 106.34 169.57 107.18 169.97 106.96 169.96 106.11 169.57 106.34"/></g><g class="cls-2"><polygon class="cls-22" points="169.57 108.37 163.75 104.98 163.75 105.83 169.57 109.21 169.57 108.37"/><polygon class="cls-9" points="169.96 108.15 164.13 104.76 163.75 104.98 169.57 108.37 169.96 108.15"/><polygon class="cls-21" points="169.57 108.37 169.57 109.21 169.97 108.99 169.96 108.15 169.57 108.37"/></g><g class="cls-2"><polygon class="cls-22" points="169.57 110.4 163.75 107.02 163.75 107.86 169.57 111.25 169.57 110.4"/><polygon class="cls-9" points="169.96 110.18 164.13 106.79 163.75 107.02 169.57 110.4 169.96 110.18"/><polygon class="cls-21" points="169.57 110.4 169.57 111.25 169.97 111.02 169.96 110.18 169.57 110.4"/></g><g class="cls-2"><polygon class="cls-22" points="169.57 112.44 163.75 109.05 163.75 109.89 169.57 113.28 169.57 112.44"/><polygon class="cls-9" points="169.96 112.21 164.13 108.82 163.75 109.05 169.57 112.44 169.96 112.21"/><polygon class="cls-21" points="169.57 112.44 169.57 113.28 169.97 113.05 169.96 112.21 169.57 112.44"/></g><g class="cls-2"><polygon class="cls-22" points="169.57 114.47 163.75 111.08 163.75 111.92 169.57 115.31 169.57 114.47"/><polygon class="cls-9" points="169.96 114.24 164.13 110.86 163.75 111.08 169.57 114.47 169.96 114.24"/><polygon class="cls-21" points="169.57 114.47 169.57 115.31 169.97 115.08 169.96 114.24 169.57 114.47"/></g><g class="cls-2"><polygon class="cls-10" points="171.4 57.81 165.1 54.14 165.15 69.45 171.45 73.11 171.4 57.81"/><polygon class="cls-20" points="170.21 58.49 166.3 56.22 166.34 68.76 170.25 71.03 170.21 58.49"/><polygon class="cls-20" points="174 56.3 167.7 52.64 165.1 54.14 171.4 57.81 174 56.3"/><polygon class="cls-21" points="171.4 57.81 171.45 73.11 174.05 71.61 174 56.3 171.4 57.81"/></g><path class="cls-13" d="M170.44,71.13l.43-.25a.8.8,0,0,0,.33-.73,2.51,2.51,0,0,0-1.13-2,.79.79,0,0,0-.8-.08l-.43.25Z"/><path class="cls-12" d="M168.51,69.09c0-.72.51-1,1.13-.65a2.47,2.47,0,0,1,1.13,2c0,.72-.5,1-1.13.66A2.51,2.51,0,0,1,168.51,69.09Z"/><path class="cls-14" d="M168.51,69.09c0-.72.51-1,1.13-.65a2.47,2.47,0,0,1,1.13,2c0,.72-.5,1-1.13.66A2.51,2.51,0,0,1,168.51,69.09Z"/><g class="cls-2"><polygon class="cls-14" points="170.61 70 170.61 70.5 169.51 70.78 169.51 70.28 170.61 70"/><polygon class="cls-23" points="169.51 70.28 169.51 70.78 168.28 70.07 168.28 69.57 169.51 70.28"/><polygon class="cls-13" points="168.28 69.57 168.77 68.94 170.61 70 169.51 70.28 168.28 69.57"/></g><path class="cls-13" d="M165.92,66.78l.43-.25a.79.79,0,0,1,.8.08,2.5,2.5,0,0,1,1.13,2,.79.79,0,0,1-.34.73l-.42.24Z"/><path class="cls-12" d="M166.72,69.46c.62.36,1.13.07,1.13-.65a2.51,2.51,0,0,0-1.13-2c-.63-.36-1.13-.06-1.13.66A2.47,2.47,0,0,0,166.72,69.46Z"/><path class="cls-14" d="M166.72,69.46c.62.36,1.13.07,1.13-.65a2.51,2.51,0,0,0-1.13-2c-.63-.36-1.13-.06-1.13.66A2.47,2.47,0,0,0,166.72,69.46Z"/><g class="cls-2"><polygon class="cls-14" points="166.98 67.19 166.55 66.95 165.75 67.75 166.18 68 166.98 67.19"/><polygon class="cls-23" points="166.18 68 165.75 67.75 165.75 69.18 166.18 69.43 166.18 68"/><polygon class="cls-13" points="166.18 69.43 166.98 69.32 166.98 67.19 166.18 68 166.18 69.43"/></g><path class="cls-13" d="M170.44,67.57l.43-.25a.8.8,0,0,0,.33-.73,2.51,2.51,0,0,0-1.13-2,.82.82,0,0,0-.8-.08l-.43.25Z"/><path class="cls-12" d="M168.51,65.53c0-.72.51-1,1.13-.65a2.49,2.49,0,0,1,1.13,2c0,.72-.5,1-1.13.65A2.51,2.51,0,0,1,168.51,65.53Z"/><path class="cls-14" d="M168.51,65.53c0-.72.51-1,1.13-.65a2.49,2.49,0,0,1,1.13,2c0,.72-.5,1-1.13.65A2.51,2.51,0,0,1,168.51,65.53Z"/><g class="cls-2"><polygon class="cls-14" points="170.61 66.44 170.61 66.94 169.51 67.22 169.51 66.73 170.61 66.44"/><polygon class="cls-23" points="169.51 66.73 169.51 67.22 168.28 66.51 168.28 66.02 169.51 66.73"/><polygon class="cls-13" points="168.28 66.02 168.77 65.38 170.61 66.44 169.51 66.73 168.28 66.02"/></g><path class="cls-13" d="M165.92,63.22l.43-.25a.79.79,0,0,1,.8.08,2.51,2.51,0,0,1,1.13,2,.79.79,0,0,1-.34.73l-.42.25Z"/><path class="cls-12" d="M166.72,65.91c.62.36,1.13.07,1.13-.65a2.5,2.5,0,0,0-1.13-2c-.63-.36-1.13-.07-1.13.65A2.49,2.49,0,0,0,166.72,65.91Z"/><path class="cls-14" d="M166.72,65.91c.62.36,1.13.07,1.13-.65a2.5,2.5,0,0,0-1.13-2c-.63-.36-1.13-.07-1.13.65A2.49,2.49,0,0,0,166.72,65.91Z"/><g class="cls-2"><polygon class="cls-14" points="166.98 63.64 166.55 63.39 165.75 64.2 166.18 64.45 166.98 63.64"/><polygon class="cls-23" points="166.18 64.45 165.75 64.2 165.75 65.62 166.18 65.87 166.18 64.45"/><polygon class="cls-13" points="166.18 65.87 166.98 65.76 166.98 63.64 166.18 64.45 166.18 65.87"/></g><path class="cls-13" d="M170.32,63.92l.43-.24a.78.78,0,0,0,.33-.73A2.49,2.49,0,0,0,170,61a.79.79,0,0,0-.8-.08l-.42.25Z"/><path class="cls-12" d="M168.39,61.89c0-.72.51-1,1.13-.65a2.47,2.47,0,0,1,1.13,1.95c0,.72-.5,1-1.13.66A2.51,2.51,0,0,1,168.39,61.89Z"/><path class="cls-14" d="M168.39,61.89c0-.72.51-1,1.13-.65a2.47,2.47,0,0,1,1.13,1.95c0,.72-.5,1-1.13.66A2.51,2.51,0,0,1,168.39,61.89Z"/><g class="cls-2"><polygon class="cls-14" points="170.49 62.8 170.49 63.29 169.39 63.58 169.39 63.08 170.49 62.8"/><polygon class="cls-23" points="169.39 63.08 169.39 63.58 168.16 62.87 168.16 62.37 169.39 63.08"/><polygon class="cls-13" points="168.16 62.37 168.65 61.73 170.49 62.8 169.39 63.08 168.16 62.37"/></g><path class="cls-13" d="M165.8,59.57l.43-.24a.79.79,0,0,1,.8.08,2.5,2.5,0,0,1,1.13,2,.82.82,0,0,1-.33.74l-.43.24Z"/><path class="cls-12" d="M166.6,62.26c.63.36,1.13.07,1.13-.65a2.49,2.49,0,0,0-1.13-2c-.62-.36-1.13-.06-1.13.66A2.5,2.5,0,0,0,166.6,62.26Z"/><path class="cls-14" d="M166.6,62.26c.63.36,1.13.07,1.13-.65a2.49,2.49,0,0,0-1.13-2c-.62-.36-1.13-.06-1.13.66A2.5,2.5,0,0,0,166.6,62.26Z"/><g class="cls-2"><polygon class="cls-14" points="166.86 59.99 166.43 59.75 165.63 60.55 166.06 60.8 166.86 59.99"/><polygon class="cls-23" points="166.06 60.8 165.63 60.55 165.63 61.98 166.06 62.23 166.06 60.8"/><polygon class="cls-13" points="166.06 62.23 166.86 62.12 166.86 59.99 166.06 60.8 166.06 62.23"/></g><path class="cls-13" d="M170.32,60.37l.43-.25a.78.78,0,0,0,.33-.73,2.49,2.49,0,0,0-1.13-2,.82.82,0,0,0-.8-.08l-.42.25Z"/><path class="cls-12" d="M168.39,58.33c0-.72.51-1,1.13-.65a2.49,2.49,0,0,1,1.13,2c0,.72-.5,1-1.13.65A2.51,2.51,0,0,1,168.39,58.33Z"/><path class="cls-14" d="M168.39,58.33c0-.72.51-1,1.13-.65a2.49,2.49,0,0,1,1.13,2c0,.72-.5,1-1.13.65A2.51,2.51,0,0,1,168.39,58.33Z"/><g class="cls-2"><polygon class="cls-14" points="170.49 59.24 170.49 59.74 169.39 60.02 169.39 59.53 170.49 59.24"/><polygon class="cls-23" points="169.39 59.53 169.39 60.02 168.16 59.31 168.16 58.81 169.39 59.53"/><polygon class="cls-13" points="168.16 58.81 168.65 58.18 170.49 59.24 169.39 59.53 168.16 58.81"/></g><path class="cls-13" d="M165.8,56l.43-.25a.79.79,0,0,1,.8.08,2.51,2.51,0,0,1,1.13,2,.8.8,0,0,1-.33.73l-.43.25Z"/><path class="cls-12" d="M166.6,58.71c.63.36,1.13.06,1.13-.66a2.47,2.47,0,0,0-1.13-1.95c-.62-.36-1.13-.07-1.13.65A2.51,2.51,0,0,0,166.6,58.71Z"/><path class="cls-14" d="M166.6,58.71c.63.36,1.13.06,1.13-.66a2.47,2.47,0,0,0-1.13-1.95c-.62-.36-1.13-.07-1.13.65A2.51,2.51,0,0,0,166.6,58.71Z"/><g class="cls-2"><polygon class="cls-14" points="166.86 56.44 166.43 56.19 165.63 57 166.06 57.24 166.86 56.44"/><polygon class="cls-23" points="166.06 57.24 165.63 57 165.63 58.42 166.06 58.67 166.06 57.24"/><polygon class="cls-13" points="166.06 58.67 166.86 58.56 166.86 56.44 166.06 57.24 166.06 58.67"/></g><polygon class="cls-24" points="164.9 73.41 166.85 74.54 166.85 76.79 166.1 76.81 164.61 75.83 164.51 74.05 164.9 73.41"/><polygon class="cls-9" points="164.51 74.05 166.1 74.97 166.1 76.81 164.51 75.89 164.51 74.05"/><polygon class="cls-24" points="164.9 73.41 166.85 74.54 166.1 74.97 164.51 74.05 164.9 73.41"/><polygon class="cls-24" points="167.4 74.86 169.35 75.98 169.35 78.24 168.6 78.25 167.12 77.27 167.01 75.5 167.4 74.86"/><polygon class="cls-9" points="167.01 75.5 168.6 76.42 168.6 78.25 167.01 77.33 167.01 75.5"/><polygon class="cls-24" points="167.4 74.86 169.35 75.98 168.6 76.42 167.01 75.5 167.4 74.86"/><polygon class="cls-24" points="169.96 76.35 171.89 77.46 171.89 79.69 171.15 79.71 169.68 78.74 169.57 76.98 169.96 76.35"/><polygon class="cls-9" points="169.57 76.98 171.15 77.89 171.15 79.71 169.57 78.8 169.57 76.98"/><polygon class="cls-24" points="169.96 76.35 171.89 77.46 171.15 77.89 169.57 76.98 169.96 76.35"/><polygon class="cls-24" points="164.9 70.04 166.85 71.17 166.85 73.42 166.1 73.44 164.61 72.46 164.51 70.68 164.9 70.04"/><polygon class="cls-9" points="164.51 70.68 166.1 71.6 166.1 73.44 164.51 72.52 164.51 70.68"/><polygon class="cls-24" points="164.9 70.04 166.85 71.17 166.1 71.6 164.51 70.68 164.9 70.04"/><polygon class="cls-24" points="167.4 71.49 169.35 72.62 169.35 74.87 168.6 74.88 167.12 73.91 167.01 72.13 167.4 71.49"/><polygon class="cls-9" points="167.01 72.13 168.6 73.05 168.6 74.88 167.01 73.97 167.01 72.13"/><polygon class="cls-24" points="167.4 71.49 169.35 72.62 168.6 73.05 167.01 72.13 167.4 71.49"/><polygon class="cls-24" points="169.96 72.98 171.89 74.09 171.89 76.33 171.15 76.34 169.68 75.37 169.57 73.61 169.96 72.98"/><polygon class="cls-9" points="169.57 73.61 171.15 74.52 171.15 76.34 169.57 75.43 169.57 73.61"/><polygon class="cls-24" points="169.96 72.98 171.89 74.09 171.15 74.52 169.57 73.61 169.96 72.98"/><g class="cls-2"><polygon class="cls-25" points="175.72 100.52 173.05 98.97 173.09 111.13 175.75 112.68 175.72 100.52"/><polygon class="cls-13" points="174.96 103.86 173.81 103.19 173.84 107.42 174.99 108.08 174.96 103.86"/><polygon class="cls-20" points="178.04 99.17 175.38 97.62 173.05 98.97 175.72 100.52 178.04 99.17"/><polygon class="cls-21" points="175.72 100.52 175.75 112.68 178.08 111.34 178.04 99.17 175.72 100.52"/></g><path class="cls-9" d="M173.87,100.84a1.22,1.22,0,0,0,.53.93c.3.17.54,0,.54-.31a1.17,1.17,0,0,0-.54-.93C174.11,100.36,173.87,100.5,173.87,100.84Z"/><path class="cls-9" d="M173.87,110.23a1.18,1.18,0,0,0,.53.92c.3.17.54,0,.54-.3a1.17,1.17,0,0,0-.54-.93C174.11,109.75,173.87,109.89,173.87,110.23Z"/><g class="cls-2"><path class="cls-26" d="M172.94,107.35l.69-1.33a.9.9,0,0,1,.09-.78,1.25,1.25,0,0,1,.42-.48l.85.5a1.32,1.32,0,0,0-.43.47.93.93,0,0,0-.08.78l-.69,1.33c-.08.16-.08.32,0,.37l-.85-.49C172.87,107.67,172.86,107.51,172.94,107.35Z"/><path class="cls-9" d="M175,105.26a1.32,1.32,0,0,0-.43.47.93.93,0,0,0-.08.78l-.69,1.33c-.09.17-.08.33,0,.38a.23.23,0,0,0,.16,0,.51.51,0,0,0,.18-.2l.7-1.33.14-.06Z"/></g><g class="cls-2"><polygon class="cls-25" points="179.09 102.44 176.42 100.89 176.46 113.05 179.12 114.6 179.09 102.44"/><polygon class="cls-13" points="178.33 105.78 177.18 105.12 177.21 109.34 178.36 110.01 178.33 105.78"/><polygon class="cls-20" points="181.41 101.09 178.75 99.55 176.42 100.89 179.09 102.44 181.41 101.09"/><polygon class="cls-21" points="179.09 102.44 179.12 114.6 181.45 113.26 181.41 101.09 179.09 102.44"/></g><path class="cls-9" d="M177.24,102.76a1.2,1.2,0,0,0,.53.93c.3.17.54,0,.54-.31a1.18,1.18,0,0,0-.54-.93C177.48,102.28,177.24,102.42,177.24,102.76Z"/><path class="cls-9" d="M177.24,112.15a1.2,1.2,0,0,0,.53.93c.3.17.54,0,.54-.31a1.18,1.18,0,0,0-.54-.93C177.48,111.67,177.24,111.81,177.24,112.15Z"/><g class="cls-2"><path class="cls-26" d="M176.31,109.27l.69-1.33a.9.9,0,0,1,.09-.78,1.21,1.21,0,0,1,.42-.47l.85.49a1.27,1.27,0,0,0-.43.48.91.91,0,0,0-.08.77l-.69,1.34c-.08.15-.08.31,0,.36l-.85-.49C176.24,109.59,176.23,109.43,176.31,109.27Z"/><path class="cls-9" d="M178.36,107.18a1.27,1.27,0,0,0-.43.48.91.91,0,0,0-.08.77l-.69,1.34c-.09.16-.08.33,0,.37a.18.18,0,0,0,.16,0,.48.48,0,0,0,.18-.21l.7-1.33.14-.06Z"/></g><g class="cls-2"><polygon class="cls-25" points="182.46 104.36 179.79 102.81 179.83 114.98 182.49 116.53 182.46 104.36"/><polygon class="cls-13" points="181.7 107.71 180.55 107.04 180.58 111.26 181.73 111.93 181.7 107.71"/><polygon class="cls-20" points="184.78 103.02 182.12 101.47 179.79 102.81 182.46 104.36 184.78 103.02"/><polygon class="cls-21" points="182.46 104.36 182.49 116.53 184.82 115.18 184.78 103.02 182.46 104.36"/></g><path class="cls-9" d="M180.61,104.68a1.2,1.2,0,0,0,.53.93c.3.17.54,0,.54-.31a1.18,1.18,0,0,0-.54-.93C180.85,104.2,180.61,104.34,180.61,104.68Z"/><path class="cls-9" d="M180.61,114.07a1.2,1.2,0,0,0,.53.93c.3.17.54,0,.54-.31a1.18,1.18,0,0,0-.54-.93C180.85,113.59,180.61,113.73,180.61,114.07Z"/><g class="cls-2"><path class="cls-27" d="M179.68,111.19l.69-1.33a.9.9,0,0,1,.09-.78,1.21,1.21,0,0,1,.42-.47l.85.49a1.36,1.36,0,0,0-.43.48.91.91,0,0,0-.08.77l-.69,1.34c-.08.16-.08.31,0,.36l-.85-.49C179.61,111.51,179.6,111.35,179.68,111.19Z"/><path class="cls-28" d="M181.73,109.1a1.36,1.36,0,0,0-.43.48.91.91,0,0,0-.08.77l-.69,1.34c-.09.16-.08.33,0,.37a.18.18,0,0,0,.16,0,.51.51,0,0,0,.18-.2l.7-1.34.14-.06Z"/></g><g class="cls-2"><polygon class="cls-26" points="185.65 68.39 186.56 68.91 184.68 70 183.78 69.48 185.65 68.39"/><path class="cls-26" d="M185.26,67.41l1.88-1.08a1.41,1.41,0,0,1,1.41.13,4.37,4.37,0,0,1,2,3.45v1.31l.9.52v4l-1.88,1.09,0-4-.9-.52V71a4.34,4.34,0,0,0-2-3.42A1.46,1.46,0,0,0,185.26,67.41Z"/><path class="cls-9" d="M186.67,67.55c-1.09-.63-2-.12-2,1.14V70l-.9-.52v4l5.8,3.35,0-4-.9-.52V71a4.34,4.34,0,0,0-2-3.42Z"/></g><path class="cls-26" d="M185.6,69.45a2.13,2.13,0,0,0,1,1.66c.52.3.95,0,.95-.56a2.11,2.11,0,0,0-.95-1.65C186,68.59,185.6,68.84,185.6,69.45Z"/><g class="cls-2"><polygon class="cls-26" points="176.85 63.41 177.76 63.93 175.88 65.02 174.98 64.5 176.85 63.41"/><path class="cls-26" d="M176.46,62.43l1.88-1.09a1.42,1.42,0,0,1,1.41.14,4.41,4.41,0,0,1,2,3.45v1.31l.9.52v4l-1.87,1.09v-4l-.9-.52V66a4.34,4.34,0,0,0-2-3.42A1.42,1.42,0,0,0,176.46,62.43Z"/><path class="cls-9" d="M177.87,62.57c-1.09-.63-2-.12-2,1.14V65l-.9-.52v4l5.81,3.35v-4l-.9-.52V66a4.34,4.34,0,0,0-2-3.42Z"/></g><path class="cls-26" d="M176.8,64.47a2.09,2.09,0,0,0,1,1.65c.53.31,1,.06,1-.55a2.08,2.08,0,0,0-1-1.65C177.23,63.61,176.8,63.86,176.8,64.47Z"/><g class="cls-2"><polygon class="cls-25" points="185.85 106.39 183.19 104.85 183.22 117.01 185.89 118.56 185.85 106.39"/><polygon class="cls-13" points="185.1 109.74 183.95 109.08 183.98 113.3 185.13 113.97 185.1 109.74"/><polygon class="cls-20" points="188.18 105.05 185.51 103.5 183.19 104.85 185.85 106.39 188.18 105.05"/><polygon class="cls-21" points="185.85 106.39 185.89 118.56 188.21 117.22 188.18 105.05 185.85 106.39"/></g><path class="cls-9" d="M184,106.72a1.16,1.16,0,0,0,.54.92c.29.18.53,0,.53-.3a1.18,1.18,0,0,0-.53-.93C184.24,106.24,184,106.38,184,106.72Z"/><path class="cls-9" d="M184,116.11a1.16,1.16,0,0,0,.54.92c.29.17.53,0,.53-.31a1.18,1.18,0,0,0-.53-.92C184.24,115.63,184,115.77,184,116.11Z"/><g class="cls-2"><path class="cls-27" d="M184.21,110.68l.06,0,.85.5-.07,0,0,0-.85-.49Z"/><path class="cls-27" d="M183.25,110.12a.68.68,0,0,1,.12-.12.24.24,0,0,1,.18,0l.84.5s-.1,0-.17,0a.71.71,0,0,0-.13.12.4.4,0,0,0-.07.43l.59.69a.77.77,0,0,0,0,.74.21.21,0,0,0,.08.06l-.85-.49-.07-.06a.77.77,0,0,1,0-.74l-.59-.7C183.1,110.46,183.13,110.27,183.25,110.12Z"/><path class="cls-28" d="M184.22,110.49a.71.71,0,0,0-.13.12.4.4,0,0,0-.07.43l.59.69a.77.77,0,0,0,0,.74.39.39,0,0,0,.5,0s0-1.35,0-1.35l-.07,0,0,0-.59-.7S184.3,110.45,184.22,110.49Z"/></g><g class="cls-2"><polygon class="cls-25" points="189.26 108.35 186.59 106.8 186.63 118.97 189.29 120.52 189.26 108.35"/><polygon class="cls-13" points="188.5 111.7 187.35 111.03 187.38 115.25 188.53 115.92 188.5 111.7"/><polygon class="cls-20" points="191.58 107.01 188.92 105.46 186.59 106.8 189.26 108.35 191.58 107.01"/><polygon class="cls-21" points="189.26 108.35 189.29 120.52 191.62 119.18 191.58 107.01 189.26 108.35"/></g><path class="cls-9" d="M187.41,108.67a1.18,1.18,0,0,0,.53.93c.3.17.54,0,.54-.31a1.16,1.16,0,0,0-.54-.92C187.65,108.2,187.41,108.33,187.41,108.67Z"/><path class="cls-9" d="M187.41,118.06a1.18,1.18,0,0,0,.53.93c.3.17.54,0,.54-.31a1.2,1.2,0,0,0-.54-.93C187.65,117.58,187.41,117.72,187.41,118.06Z"/><g class="cls-2"><path class="cls-27" d="M187.61,112.64l.07,0,.84.49-.06,0-.05,0-.85-.49Z"/><path class="cls-27" d="M186.65,112.08a.29.29,0,0,1,.13-.12.18.18,0,0,1,.17,0l.85.49a.21.21,0,0,0-.17,0,.49.49,0,0,0-.13.12c-.11.15-.15.34-.07.42l.58.7a.77.77,0,0,0,0,.74l.08.06-.85-.49a.27.27,0,0,1-.08-.07.74.74,0,0,1,0-.73l-.58-.7A.38.38,0,0,1,186.65,112.08Z"/><path class="cls-28" d="M187.63,112.45a.49.49,0,0,0-.13.12c-.11.15-.15.34-.07.42l.58.7a.77.77,0,0,0,0,.74.37.37,0,0,0,.49,0s0-1.36,0-1.36l-.06,0-.05,0-.58-.7A.16.16,0,0,0,187.63,112.45Z"/></g><g class="cls-2"><polygon class="cls-25" points="165.61 81.57 162.94 80.02 162.98 92.19 165.64 93.74 165.61 81.57"/><polygon class="cls-13" points="164.85 84.92 163.7 84.25 163.73 88.47 164.88 89.14 164.85 84.92"/><polygon class="cls-20" points="167.93 80.23 165.27 78.68 162.94 80.02 165.61 81.57 167.93 80.23"/><polygon class="cls-21" points="165.61 81.57 165.64 93.74 167.97 92.39 167.93 80.23 165.61 81.57"/></g><path class="cls-9" d="M163.76,81.89a1.18,1.18,0,0,0,.53.93c.3.17.54,0,.54-.31a1.16,1.16,0,0,0-.54-.92C164,81.41,163.76,81.55,163.76,81.89Z"/><path class="cls-9" d="M163.76,91.28a1.2,1.2,0,0,0,.53.93c.3.17.54,0,.54-.31a1.2,1.2,0,0,0-.54-.93C164,90.8,163.76,90.94,163.76,91.28Z"/><g class="cls-2"><path class="cls-27" d="M162.83,88.41l.69-1.34a.88.88,0,0,1,.09-.77,1.25,1.25,0,0,1,.42-.48l.85.49a1.36,1.36,0,0,0-.43.48.93.93,0,0,0-.08.78l-.69,1.33c-.08.16-.08.32,0,.37l-.85-.5C162.76,88.72,162.75,88.56,162.83,88.41Z"/><path class="cls-28" d="M164.88,86.31a1.36,1.36,0,0,0-.43.48.93.93,0,0,0-.08.78l-.69,1.33c-.09.16-.08.33,0,.37a.18.18,0,0,0,.16,0,.51.51,0,0,0,.18-.2l.7-1.34.14,0Z"/></g><g class="cls-2"><polygon class="cls-25" points="168.98 83.49 166.31 81.94 166.35 94.11 169.01 95.66 168.98 83.49"/><polygon class="cls-13" points="168.22 86.84 167.07 86.17 167.1 90.39 168.25 91.06 168.22 86.84"/><polygon class="cls-20" points="171.3 82.15 168.64 80.6 166.31 81.94 168.98 83.49 171.3 82.15"/><polygon class="cls-21" points="168.98 83.49 169.01 95.66 171.34 94.32 171.3 82.15 168.98 83.49"/></g><path class="cls-9" d="M167.13,83.82a1.18,1.18,0,0,0,.53.92c.3.17.54,0,.54-.31a1.16,1.16,0,0,0-.54-.92C167.37,83.34,167.13,83.48,167.13,83.82Z"/><path class="cls-9" d="M167.13,93.21a1.18,1.18,0,0,0,.53.92c.3.17.54,0,.54-.31a1.16,1.16,0,0,0-.54-.92C167.37,92.73,167.13,92.86,167.13,93.21Z"/><g class="cls-2"><path class="cls-27" d="M166.2,90.33l.69-1.34a.88.88,0,0,1,.09-.77,1.25,1.25,0,0,1,.42-.48l.85.5a1.24,1.24,0,0,0-.43.47.93.93,0,0,0-.08.78l-.69,1.33c-.08.16-.08.32,0,.37l-.85-.5C166.13,90.65,166.12,90.49,166.2,90.33Z"/><path class="cls-28" d="M168.25,88.24a1.24,1.24,0,0,0-.43.47.93.93,0,0,0-.08.78l-.69,1.33c-.09.17-.08.33,0,.37a.18.18,0,0,0,.16,0,.51.51,0,0,0,.18-.2l.7-1.33.14-.06Z"/></g><g class="cls-2"><polygon class="cls-25" points="172.35 85.42 169.68 83.87 169.72 96.03 172.38 97.58 172.35 85.42"/><polygon class="cls-13" points="171.59 88.76 170.44 88.1 170.47 92.32 171.62 92.99 171.59 88.76"/><polygon class="cls-20" points="174.67 84.07 172.01 82.53 169.68 83.87 172.35 85.42 174.67 84.07"/><polygon class="cls-21" points="172.35 85.42 172.38 97.58 174.71 96.24 174.67 84.07 172.35 85.42"/></g><path class="cls-9" d="M170.5,85.74a1.2,1.2,0,0,0,.53.93c.3.17.54,0,.54-.31a1.18,1.18,0,0,0-.54-.93C170.74,85.26,170.5,85.4,170.5,85.74Z"/><path class="cls-9" d="M170.5,95.13a1.18,1.18,0,0,0,.53.92c.3.18.54,0,.54-.3a1.17,1.17,0,0,0-.54-.93C170.74,94.65,170.5,94.79,170.5,95.13Z"/><g class="cls-2"><path class="cls-26" d="M169.57,92.25l.69-1.33a.9.9,0,0,1,.09-.78,1.15,1.15,0,0,1,.42-.47l.85.49a1.32,1.32,0,0,0-.43.47.93.93,0,0,0-.08.78l-.69,1.33c-.08.16-.08.32,0,.37l-.85-.49C169.5,92.57,169.49,92.41,169.57,92.25Z"/><path class="cls-9" d="M171.62,90.16a1.32,1.32,0,0,0-.43.47.93.93,0,0,0-.08.78l-.69,1.33c-.09.17-.08.34,0,.38a.16.16,0,0,0,.16,0,.45.45,0,0,0,.18-.2l.7-1.33a.84.84,0,0,0,.14-.06Z"/></g><g class="cls-2"><polygon class="cls-25" points="175.72 87.34 173.05 85.79 173.09 97.95 175.75 99.5 175.72 87.34"/><polygon class="cls-13" points="174.96 90.69 173.81 90.02 173.84 94.24 174.99 94.91 174.96 90.69"/><polygon class="cls-20" points="178.04 86 175.38 84.45 173.05 85.79 175.72 87.34 178.04 86"/><polygon class="cls-21" points="175.72 87.34 175.75 99.5 178.08 98.16 178.04 86 175.72 87.34"/></g><path class="cls-9" d="M173.87,87.66a1.2,1.2,0,0,0,.53.93c.3.17.54,0,.54-.31a1.18,1.18,0,0,0-.54-.93C174.11,87.18,173.87,87.32,173.87,87.66Z"/><path class="cls-9" d="M173.87,97.05a1.2,1.2,0,0,0,.53.93c.3.17.54,0,.54-.31a1.18,1.18,0,0,0-.54-.93C174.11,96.57,173.87,96.71,173.87,97.05Z"/><g class="cls-2"><path class="cls-26" d="M172.94,94.17l.69-1.33a.9.9,0,0,1,.09-.78,1.21,1.21,0,0,1,.42-.47l.85.49a1.27,1.27,0,0,0-.43.48.91.91,0,0,0-.08.77l-.69,1.34c-.08.15-.08.31,0,.36l-.85-.49C172.87,94.49,172.86,94.33,172.94,94.17Z"/><path class="cls-9" d="M175,92.08a1.27,1.27,0,0,0-.43.48.91.91,0,0,0-.08.77l-.69,1.34c-.09.16-.08.33,0,.37a.18.18,0,0,0,.16,0,.51.51,0,0,0,.18-.2l.7-1.34a.42.42,0,0,0,.14-.06Z"/></g><g class="cls-2"><polygon class="cls-25" points="179.09 89.26 176.42 87.71 176.46 99.88 179.12 101.43 179.09 89.26"/><polygon class="cls-13" points="178.33 92.61 177.18 91.94 177.21 96.16 178.36 96.83 178.33 92.61"/><polygon class="cls-20" points="181.41 87.92 178.75 86.37 176.42 87.71 179.09 89.26 181.41 87.92"/><polygon class="cls-21" points="179.09 89.26 179.12 101.43 181.45 100.08 181.41 87.92 179.09 89.26"/></g><path class="cls-9" d="M177.24,89.58a1.2,1.2,0,0,0,.53.93c.3.17.54,0,.54-.31a1.18,1.18,0,0,0-.54-.93C177.48,89.1,177.24,89.24,177.24,89.58Z"/><path class="cls-9" d="M177.24,99a1.2,1.2,0,0,0,.53.93c.3.17.54,0,.54-.31a1.18,1.18,0,0,0-.54-.93C177.48,98.49,177.24,98.63,177.24,99Z"/><g class="cls-2"><path class="cls-26" d="M176.31,96.1l.69-1.34a.88.88,0,0,1,.09-.77,1.18,1.18,0,0,1,.42-.48l.85.49a1.36,1.36,0,0,0-.43.48.91.91,0,0,0-.08.77l-.69,1.34c-.08.16-.08.31,0,.36l-.85-.49C176.24,96.41,176.23,96.25,176.31,96.1Z"/><path class="cls-9" d="M178.36,94a1.36,1.36,0,0,0-.43.48.91.91,0,0,0-.08.77l-.69,1.34c-.09.16-.08.33,0,.37a.18.18,0,0,0,.16,0,.51.51,0,0,0,.18-.2l.7-1.34.14-.06Z"/></g><g class="cls-2"><polygon class="cls-25" points="182.46 91.18 179.79 89.63 179.83 101.8 182.49 103.35 182.46 91.18"/><polygon class="cls-13" points="181.7 94.53 180.55 93.86 180.58 98.08 181.73 98.75 181.7 94.53"/><polygon class="cls-20" points="184.78 89.84 182.12 88.29 179.79 89.63 182.46 91.18 184.78 89.84"/><polygon class="cls-21" points="182.46 91.18 182.49 103.35 184.82 102.01 184.78 89.84 182.46 91.18"/></g><path class="cls-9" d="M180.61,91.5a1.18,1.18,0,0,0,.53.93c.3.17.54,0,.54-.31a1.16,1.16,0,0,0-.54-.92C180.85,91,180.61,91.16,180.61,91.5Z"/><path class="cls-9" d="M180.61,100.89a1.18,1.18,0,0,0,.53.93c.3.17.54,0,.54-.31a1.16,1.16,0,0,0-.54-.92C180.85,100.41,180.61,100.55,180.61,100.89Z"/><g class="cls-2"><path class="cls-27" d="M179.68,98l.69-1.34a.88.88,0,0,1,.09-.77,1.25,1.25,0,0,1,.42-.48l.85.49a1.36,1.36,0,0,0-.43.48.93.93,0,0,0-.08.78l-.69,1.33c-.08.16-.08.32,0,.37l-.85-.5C179.61,98.33,179.6,98.18,179.68,98Z"/><path class="cls-28" d="M181.73,95.92a1.36,1.36,0,0,0-.43.48.93.93,0,0,0-.08.78l-.69,1.33c-.09.17-.08.33,0,.37a.18.18,0,0,0,.16,0,.51.51,0,0,0,.18-.2l.7-1.34.14,0Z"/></g><g class="cls-2"><polygon class="cls-25" points="185.85 93.22 183.19 91.67 183.22 103.83 185.89 105.38 185.85 93.22"/><polygon class="cls-13" points="185.1 96.57 183.95 95.9 183.98 100.12 185.13 100.79 185.1 96.57"/><polygon class="cls-20" points="188.18 91.88 185.51 90.33 183.19 91.67 185.85 93.22 188.18 91.88"/><polygon class="cls-21" points="185.85 93.22 185.89 105.38 188.21 104.04 188.18 91.88 185.85 93.22"/></g><path class="cls-9" d="M184,93.54a1.18,1.18,0,0,0,.54.93c.29.17.53,0,.53-.31a1.2,1.2,0,0,0-.53-.93C184.24,93.06,184,93.2,184,93.54Z"/><path class="cls-9" d="M184,102.93a1.18,1.18,0,0,0,.54.93c.29.17.53,0,.53-.31a1.2,1.2,0,0,0-.53-.93C184.24,102.45,184,102.59,184,102.93Z"/><g class="cls-2"><path class="cls-26" d="M184.21,97.5l.06,0,.85.49-.07,0,0,0-.85-.5Z"/><path class="cls-26" d="M183.25,96.94a.68.68,0,0,1,.12-.12.19.19,0,0,1,.18,0l.84.49s-.1,0-.17,0a.42.42,0,0,0-.13.11.4.4,0,0,0-.07.43l.59.7a.75.75,0,0,0,0,.73l.08.07-.85-.5a.19.19,0,0,1-.07-.06.77.77,0,0,1,0-.74l-.59-.69A.39.39,0,0,1,183.25,96.94Z"/><path class="cls-9" d="M184.22,97.32a.42.42,0,0,0-.13.11.4.4,0,0,0-.07.43l.59.7a.75.75,0,0,0,0,.73.38.38,0,0,0,.5,0s0-1.35,0-1.35l-.07,0,0,0-.59-.7C184.38,97.27,184.3,97.27,184.22,97.32Z"/></g><g class="cls-2"><polygon class="cls-25" points="189.26 95.17 186.59 93.63 186.63 105.79 189.29 107.34 189.26 95.17"/><polygon class="cls-13" points="188.5 98.52 187.35 97.86 187.38 102.08 188.53 102.75 188.5 98.52"/><polygon class="cls-20" points="191.58 93.83 188.92 92.28 186.59 93.63 189.26 95.17 191.58 93.83"/><polygon class="cls-21" points="189.26 95.17 189.29 107.34 191.62 106 191.58 93.83 189.26 95.17"/></g><path class="cls-9" d="M187.41,95.5a1.22,1.22,0,0,0,.53.93c.3.17.54,0,.54-.31a1.17,1.17,0,0,0-.54-.93C187.65,95,187.41,95.16,187.41,95.5Z"/><path class="cls-9" d="M187.41,104.89a1.18,1.18,0,0,0,.53.92c.3.17.54,0,.54-.3a1.17,1.17,0,0,0-.54-.93C187.65,104.41,187.41,104.55,187.41,104.89Z"/><g class="cls-2"><path class="cls-27" d="M187.61,99.46l.07,0,.84.5-.06,0-.05,0-.85-.5Z"/><path class="cls-27" d="M186.65,98.9a.49.49,0,0,1,.13-.12.21.21,0,0,1,.17,0l.85.5a.17.17,0,0,0-.17,0,.49.49,0,0,0-.13.12c-.11.15-.15.34-.07.43l.58.69a.77.77,0,0,0,0,.74.16.16,0,0,0,.08.06l-.85-.49-.08-.06a.77.77,0,0,1,0-.74l-.58-.7C186.51,99.24,186.54,99.05,186.65,98.9Z"/><path class="cls-28" d="M187.63,99.27a.49.49,0,0,0-.13.12c-.11.15-.15.34-.07.43l.58.69a.77.77,0,0,0,0,.74.37.37,0,0,0,.49,0s0-1.35,0-1.35l-.06,0-.05,0-.58-.71A.16.16,0,0,0,187.63,99.27Z"/></g><g class="cls-2"><polygon class="cls-25" points="175.72 74.16 173.05 72.61 173.09 84.78 175.75 86.33 175.72 74.16"/><polygon class="cls-13" points="174.96 77.51 173.81 76.84 173.84 81.06 174.99 81.73 174.96 77.51"/><polygon class="cls-20" points="178.04 72.82 175.38 71.27 173.05 72.61 175.72 74.16 178.04 72.82"/><polygon class="cls-21" points="175.72 74.16 175.75 86.33 178.08 84.98 178.04 72.82 175.72 74.16"/></g><path class="cls-9" d="M173.87,74.48a1.2,1.2,0,0,0,.53.93c.3.17.54,0,.54-.31a1.2,1.2,0,0,0-.54-.93C174.11,74,173.87,74.14,173.87,74.48Z"/><path class="cls-9" d="M173.87,83.87a1.2,1.2,0,0,0,.53.93c.3.17.54,0,.54-.31a1.18,1.18,0,0,0-.54-.93C174.11,83.39,173.87,83.53,173.87,83.87Z"/><g class="cls-2"><path class="cls-27" d="M172.94,81l.69-1.34a.88.88,0,0,1,.09-.77,1.18,1.18,0,0,1,.42-.48l.85.49a1.36,1.36,0,0,0-.43.48.91.91,0,0,0-.08.77l-.69,1.34c-.08.16-.08.32,0,.36l-.85-.49C172.87,81.31,172.86,81.15,172.94,81Z"/><path class="cls-28" d="M175,78.9a1.36,1.36,0,0,0-.43.48.91.91,0,0,0-.08.77l-.69,1.34c-.09.16-.08.33,0,.37a.18.18,0,0,0,.16,0,.51.51,0,0,0,.18-.2l.7-1.34a.42.42,0,0,0,.14-.06Z"/></g><g class="cls-2"><polygon class="cls-25" points="179.09 76.08 176.42 74.53 176.46 86.7 179.12 88.25 179.09 76.08"/><polygon class="cls-13" points="178.33 79.43 177.18 78.76 177.21 82.98 178.36 83.65 178.33 79.43"/><polygon class="cls-20" points="181.41 74.74 178.75 73.19 176.42 74.53 179.09 76.08 181.41 74.74"/><polygon class="cls-21" points="179.09 76.08 179.12 88.25 181.45 86.91 181.41 74.74 179.09 76.08"/></g><path class="cls-9" d="M177.24,76.41a1.18,1.18,0,0,0,.53.92c.3.17.54,0,.54-.31a1.16,1.16,0,0,0-.54-.92C177.48,75.93,177.24,76.06,177.24,76.41Z"/><path class="cls-9" d="M177.24,85.79a1.18,1.18,0,0,0,.53.93c.3.17.54,0,.54-.31a1.16,1.16,0,0,0-.54-.92C177.48,85.32,177.24,85.45,177.24,85.79Z"/><g class="cls-2"><path class="cls-27" d="M176.31,82.92l.69-1.34a.88.88,0,0,1,.09-.77,1.25,1.25,0,0,1,.42-.48l.85.49a1.36,1.36,0,0,0-.43.48.93.93,0,0,0-.08.78l-.69,1.33c-.08.16-.08.32,0,.37l-.85-.5C176.24,83.23,176.23,83.08,176.31,82.92Z"/><path class="cls-28" d="M178.36,80.82a1.36,1.36,0,0,0-.43.48.93.93,0,0,0-.08.78l-.69,1.33c-.09.17-.08.33,0,.37a.18.18,0,0,0,.16,0,.51.51,0,0,0,.18-.2l.7-1.33.14-.06Z"/></g><g class="cls-2"><polygon class="cls-25" points="182.46 78 179.79 76.46 179.83 88.62 182.49 90.17 182.46 78"/><polygon class="cls-13" points="181.7 81.35 180.55 80.69 180.58 84.91 181.73 85.58 181.7 81.35"/><polygon class="cls-20" points="184.78 76.66 182.12 75.11 179.79 76.46 182.46 78 184.78 76.66"/><polygon class="cls-21" points="182.46 78 182.49 90.17 184.82 88.83 184.78 76.66 182.46 78"/></g><path class="cls-9" d="M180.61,78.33a1.22,1.22,0,0,0,.53.93c.3.17.54,0,.54-.31a1.17,1.17,0,0,0-.54-.93C180.85,77.85,180.61,78,180.61,78.33Z"/><path class="cls-9" d="M180.61,87.72a1.18,1.18,0,0,0,.53.92c.3.17.54,0,.54-.3a1.17,1.17,0,0,0-.54-.93C180.85,87.24,180.61,87.38,180.61,87.72Z"/><g class="cls-2"><path class="cls-27" d="M179.68,84.84l.69-1.33a.9.9,0,0,1,.09-.78,1.25,1.25,0,0,1,.42-.48l.85.5a1.32,1.32,0,0,0-.43.47.93.93,0,0,0-.08.78l-.69,1.33c-.08.16-.08.32,0,.37l-.85-.49C179.61,85.16,179.6,85,179.68,84.84Z"/><path class="cls-28" d="M181.73,82.75a1.32,1.32,0,0,0-.43.47.93.93,0,0,0-.08.78l-.69,1.33c-.09.17-.08.33,0,.38a.23.23,0,0,0,.16,0,.51.51,0,0,0,.18-.2l.7-1.33.14-.06Z"/></g><g class="cls-2"><polygon class="cls-25" points="185.85 80.04 183.19 78.49 183.22 90.66 185.89 92.21 185.85 80.04"/><polygon class="cls-13" points="185.1 83.39 183.95 82.72 183.98 86.94 185.13 87.61 185.1 83.39"/><polygon class="cls-20" points="188.18 78.7 185.51 77.15 183.19 78.49 185.85 80.04 188.18 78.7"/><polygon class="cls-21" points="185.85 80.04 185.89 92.21 188.21 90.86 188.18 78.7 185.85 80.04"/></g><path class="cls-9" d="M184,80.36a1.18,1.18,0,0,0,.54.93c.29.17.53,0,.53-.31a1.2,1.2,0,0,0-.53-.93C184.24,79.88,184,80,184,80.36Z"/><path class="cls-9" d="M184,89.75a1.18,1.18,0,0,0,.54.93c.29.17.53,0,.53-.31a1.2,1.2,0,0,0-.53-.93C184.24,89.27,184,89.41,184,89.75Z"/><g class="cls-2"><path class="cls-27" d="M184.21,84.33l.06,0,.85.49-.07,0,0,0-.85-.49A.05.05,0,0,1,184.21,84.33Z"/><path class="cls-27" d="M183.25,83.76a.4.4,0,0,1,.12-.11.17.17,0,0,1,.18,0l.84.49a.18.18,0,0,0-.17,0,.71.71,0,0,0-.13.12.38.38,0,0,0-.07.42l.59.7a.75.75,0,0,0,0,.73l.08.07-.85-.49a.46.46,0,0,1-.07-.07.74.74,0,0,1,0-.73l-.59-.7A.39.39,0,0,1,183.25,83.76Z"/><path class="cls-28" d="M184.22,84.14a.71.71,0,0,0-.13.12.38.38,0,0,0-.07.42l.59.7a.75.75,0,0,0,0,.73.38.38,0,0,0,.5,0s0-1.36,0-1.36l-.07,0,0,0-.59-.7C184.38,84.09,184.3,84.09,184.22,84.14Z"/></g><g class="cls-2"><polygon class="cls-25" points="189.26 82 186.59 80.45 186.63 92.61 189.29 94.16 189.26 82"/><polygon class="cls-13" points="188.5 85.35 187.35 84.68 187.38 88.9 188.53 89.57 188.5 85.35"/><polygon class="cls-20" points="191.58 80.66 188.92 79.11 186.59 80.45 189.26 82 191.58 80.66"/><polygon class="cls-21" points="189.26 82 189.29 94.16 191.62 92.82 191.58 80.66 189.26 82"/></g><path class="cls-9" d="M187.41,82.32a1.2,1.2,0,0,0,.53.93c.3.17.54,0,.54-.31a1.18,1.18,0,0,0-.54-.93C187.65,81.84,187.41,82,187.41,82.32Z"/><path class="cls-9" d="M187.41,91.71a1.2,1.2,0,0,0,.53.93c.3.17.54,0,.54-.31a1.18,1.18,0,0,0-.54-.93C187.65,91.23,187.41,91.37,187.41,91.71Z"/><g class="cls-2"><path class="cls-27" d="M187.61,86.28l.07,0,.84.49-.06,0s0,0-.05,0l-.85-.49Z"/><path class="cls-27" d="M186.65,85.72a.49.49,0,0,1,.13-.12.17.17,0,0,1,.17,0l.85.49a.15.15,0,0,0-.17,0,.33.33,0,0,0-.13.11c-.11.16-.15.34-.07.43l.58.7a.74.74,0,0,0,0,.73.27.27,0,0,0,.08.07l-.85-.5a.16.16,0,0,1-.08-.06.77.77,0,0,1,0-.74l-.58-.69A.4.4,0,0,1,186.65,85.72Z"/><path class="cls-28" d="M187.63,86.1a.33.33,0,0,0-.13.11c-.11.16-.15.34-.07.43l.58.7a.74.74,0,0,0,0,.73c.11.14.3.13.49,0,0,0,0-1.35,0-1.35l-.06,0s0,0-.05,0l-.58-.7C187.78,86.05,187.71,86.05,187.63,86.1Z"/></g><g class="cls-2"><polygon class="cls-29" points="180.06 51.97 173.43 48.11 173.45 57.74 180.09 61.59 180.06 51.97"/><polygon class="cls-23" points="181.34 51.23 174.71 47.37 173.43 48.11 180.06 51.97 181.34 51.23"/><polygon class="cls-30" points="180.06 51.97 180.09 61.59 181.37 60.86 181.34 51.23 180.06 51.97"/></g><path class="cls-13" d="M169.94,45.06l4.26-2.47a3.29,3.29,0,0,1,3.33.32A10.28,10.28,0,0,1,182.2,51a3.27,3.27,0,0,1-1.37,3l-4.27,2.49.15-.11a3.18,3.18,0,0,1-3.48-.22,10.28,10.28,0,0,1-4.66-8.08A3.28,3.28,0,0,1,169.94,45.06Z"/><path class="cls-17" d="M173.26,45.39c-2.58-1.49-4.68-.29-4.69,2.68a10.28,10.28,0,0,0,4.66,8.08c2.59,1.49,4.69.29,4.7-2.68A10.28,10.28,0,0,0,173.26,45.39Z"/><path class="cls-9" d="M169.38,48.07a9.21,9.21,0,0,0,1.81,5L176,55.87c.74-.3,1.17-1.15,1.17-2.4a8.63,8.63,0,0,0-1.26-4.19L170.1,46A2.8,2.8,0,0,0,169.38,48.07Z"/><path class="cls-13" d="M170.57,49.05l4.81,2.78c.24.14.44,0,.44-.26v-.52a1,1,0,0,0-.44-.77l-4.81-2.77c-.24-.14-.44,0-.44.26v.51A1,1,0,0,0,170.57,49.05Z"/><polygon class="cls-13" points="171.07 50.44 174.61 52.49 174.61 52.01 171.07 49.97 171.07 50.44"/><polygon class="cls-13" points="171.55 51.54 174.13 53.03 174.13 52.68 171.55 51.2 171.55 51.54"/><g class="cls-2"><polygon class="cls-29" points="190.64 57.52 184.01 53.67 184.03 63.3 190.67 67.15 190.64 57.52"/><polygon class="cls-23" points="191.92 56.79 185.29 52.93 184.01 53.67 190.64 57.52 191.92 56.79"/><polygon class="cls-30" points="190.64 57.52 190.67 67.15 191.95 66.42 191.92 56.79 190.64 57.52"/></g><path class="cls-13" d="M180.52,50.62l4.27-2.47a3.27,3.27,0,0,1,3.32.32,10.28,10.28,0,0,1,4.67,8.08,3.26,3.26,0,0,1-1.37,3L187.14,62l.16-.1a3.2,3.2,0,0,1-3.49-.22,10.28,10.28,0,0,1-4.66-8.08A3.28,3.28,0,0,1,180.52,50.62Z"/><path class="cls-17" d="M183.84,51c-2.58-1.49-4.68-.29-4.69,2.68a10.28,10.28,0,0,0,4.66,8.08c2.59,1.49,4.69.29,4.7-2.68A10.28,10.28,0,0,0,183.84,51Z"/><path class="cls-9" d="M180,53.63a9.29,9.29,0,0,0,1.81,5l4.76,2.75c.74-.3,1.17-1.15,1.17-2.4a8.63,8.63,0,0,0-1.26-4.19l-5.76-3.33A2.79,2.79,0,0,0,180,53.63Z"/><path class="cls-13" d="M181.16,54.61l4.8,2.78c.25.14.44,0,.44-.26v-.52a1,1,0,0,0-.44-.77l-4.8-2.77c-.25-.14-.45,0-.45.26v.51A1,1,0,0,0,181.16,54.61Z"/><polygon class="cls-13" points="181.65 56 185.19 58.05 185.19 57.57 181.65 55.52 181.65 56"/><polygon class="cls-13" points="182.14 57.1 184.71 58.59 184.71 58.24 182.14 56.75 182.14 57.1"/></g><path class="cls-31" d="M122,121.79l-.37,3.34.27,2.05.93,2.86c.28.8,1,.8,1.15.13l.45,1.36c.44,1.08,1.51.45,1.22-.64l-.55-2.76,1.12,3.53c.51,1.07,1.53.65,1.38-.69l-.71-3.83,1,3.09c.35.72,1.48.53,1.41-.7l-.67-4.92a3,3,0,0,1,.5-1.73c.42-.55,2.54,1.18,2.54,1.18l1.93,1.66c.77.27,1.14.14,1.14-.41l-1.31-2-1.52-2-.67-.86a10.49,10.49,0,0,0-3.25-2.35l0-.36-.07-.71-1.83-.07-2.73-.11-.27,2-.33.92Z"/><path class="cls-32" d="M129.48,122.63,126,121.1,123.48,124l.53,6.19c.25-1.57.54-3.46,1.64-3.62l1.84.09-1.28-1.28.51-1.41,3.21.11Z"/><path class="cls-32" d="M131.94,121.32l-6.27-2a3.65,3.65,0,0,0,2.32-1.58l0,.36a10.55,10.55,0,0,1,3.25,2.35Z"/><path class="cls-33" d="M138.61,79.57l-3.55,12.62-2.94,10.49c-2,6-3.83,10.84-3.89,14.18a2.25,2.25,0,0,1-.24.89,3.65,3.65,0,0,1-2.32,1.58,11.87,11.87,0,0,1-2.91.5c-.32-6.66-.33-13,1.15-17.86l3.46-12.39C129.05,82.43,131.82,77.31,138.61,79.57Z"/><path class="cls-34" d="M164.48,140.48c-9.33,4.82-19.67,6.55-30.32,7.65-5.7,0-6.09-12.19-3.16-13.19l9.42-2.9,25.82,6.72A7.79,7.79,0,0,1,164.48,140.48Z"/><path class="cls-35" d="M133.43,137.45l-6.4.35-4.07-.26c-3.49.43-3.85,9-3,16.69l6.4,4a5.93,5.93,0,0,0,4.36-1.51c.7-1.21.62-2.56-1.6-4.41l.44-4.46,4.37-.82C136.89,145.93,136.71,139,133.43,137.45Z"/><path class="cls-33" d="M177.5,150.59c-9.32,4.83-19.65,6.56-30.33,7.66-3.86,0-5.28-5.63-4.88-9.55.21-1.85.81-3.32,1.74-3.63l9.55-2.94s-15.41-6.41-19.31-10.33c-4.57-4.63-3-11.16-2.33-13.76a2.63,2.63,0,0,1,.06-.34c.06-.2.43-.93.77-1.63a13.68,13.68,0,0,0,.62-1.31c0-.31,2.35.43,5.54,1.59.82.3,1.7.61,2.59,1,3.79,1.41,8.07,3.1,11,4.25l1.27.52,2.16.87.11.07c.38.22.75.45,1.12.68,1.66,1,3.29,2,4.87,3.07,2.89,1.87,5.62,3.78,8.16,5.72a73.58,73.58,0,0,1,8.72,7.75C181.45,144.89,180.74,148.25,177.5,150.59Z"/><path class="cls-35" d="M146.63,146.36l-6.4.34-4.07-.25c-3.48.43-3.85,8.94-3,16.69l6.4,4a6,6,0,0,0,4.37-1.52c.69-1.21.61-2.55-1.6-4.41l.43-4.45,4.38-.82C150.09,154.83,149.92,147.92,146.63,146.36Z"/><path class="cls-36" d="M134.27,131.79c3.91,3.94,19.3,10.33,19.3,10.33L144,145.06c-.94.32-1.54,1.79-1.73,3.64l7,1.57c2.54-5.14,10.41-7.05,18.94-7.85-13.16-2.32-21.07-7-19-15.56C141,134,132.15,125.41,132,117.69,131.43,120.07,129.5,127,134.27,131.79Z"/><path class="cls-31" d="M182.05,104.68l1.51,3.77.1.25.47-.15c.35-.18,5.76-3.23,5.86-3.34a14.35,14.35,0,0,0,2.49-4.76l.22-1.83-.07-.31-.72-3-1.49-.52c-1,0-.9.59-.47.92l.58.65L188,98.27l-1.82.5,1.17-1.72a8.41,8.41,0,0,0,1.47-.86c.55-.38.82-1.17.14-1.22l-3.31,1.36-2.32,3.33Z"/><path class="cls-32" d="M192.7,98.62l-.07-.31L189.69,103c-2.16,2-4.22,2.91-6.13,2.32v3.11l.1.25.47-.15c.35-.18,5.76-3.23,5.86-3.34Z"/><path class="cls-36" d="M132.12,102.68c-2,6-3.83,10.84-3.89,14.18a2.25,2.25,0,0,1-.24.89,3.65,3.65,0,0,1-2.32,1.58c.16-.79.29-1.58.41-2.37,1.91-12,.24-22.72,5.41-27.44l3.57,2.67Z"/><path class="cls-33" d="M163.3,94.18a92.72,92.72,0,0,0-2.37,12.36c-.06.52-.14,1-.21,1.56-.15,1.07-.29,2.12-.44,3.15-.08.57-.16,1.14-.25,1.69a70.66,70.66,0,0,1-2.88,10.75c-1.39.58-3.83.12-5.17.51-8.22,2.5-14.49,0-19.21-8.13-.9-3.37-2.32-14.71-1.84-26.59.7-5.43.5-9.14,5.28-10.43,10.25,1.61,19.54,7.69,27.08,15.12Z"/><path class="cls-31" d="M154.69,79l-.78,7.43c-4.8,0-12.31-3.37-11.37-5.92l2.53-4.85Z"/><path class="cls-31" d="M157,80c-1.91,2.17-4.78,1.88-7.71,1.1-4.28-2-7.36-4.9-6.94-10.46-.34-4,1.5-8.28,8.39-8.06,4.38.14,8.12,1.74,8.38,6.42C159.11,69,159.34,77.82,157,80Z"/><path class="cls-16" d="M159.08,67.82a6.58,6.58,0,0,1-2.79,3.91,22.66,22.66,0,0,1,.13,3.7c-.19.07-2.09,1.71-2.09,1.71l-1,2.75c-3.27,2.36-8.14.56-9.62-1.57-.88-1.11-1.85-4.7-1.61-9,.52-3.57,3.12-7.89,8.61-8.13S159.54,64.16,159.08,67.82Z"/><path class="cls-31" d="M155.83,76c.52-.59-.28-2-.87-2.14-.82-.27-1.27.92-1.36,1.57a3,3,0,0,0,.48,2.27c.56.82,1.44,0,1.72-.66C156,76.54,155.5,76.34,155.83,76Z"/><path class="cls-33" d="M184.4,108.39l-.3.33c0,.06-.1.12-.14.17-4.47,5.12-6.31,6.69-11.77,8.83a11.57,11.57,0,0,1-1.35-.33,20.75,20.75,0,0,1-2.55-.88,23.4,23.4,0,0,1-4.68-2.51c-.37-.25-.72-.51-1.08-.78a24.59,24.59,0,0,1-2.25-2,26.11,26.11,0,0,1-2.24-2.43,28.42,28.42,0,0,1-.75-2.91c-1.14-5.83.29-10.07,4.83-12.35a6,6,0,0,1,1.17.61c3.2,2.09,6.37,7.43,9.51,12.57,3.22-1.53,4.88-1.33,9.68-3.06C184.72,105.37,185.15,106.93,184.4,108.39Z"/><path class="cls-36" d="M184.41,108.39l-.31.33c0,.06-.1.12-.14.17-4.05,4.35-6,6.48-11.77,8.83-.46-.1-.9-.21-1.35-.33a23.94,23.94,0,0,1-2.55-.88,23.4,23.4,0,0,1-4.68-2.51c-.37-.26-.72-.51-1.08-.79a23,23,0,0,1-2.25-2c-.08.57-.16,1.14-.25,1.69a70.66,70.66,0,0,1-2.88,10.75c1.66,1,3.29,2,4.87,3.07-2.93-1.09-7.87-1.89-10-2.56a5,5,0,0,0,1.78-2.13c2-3.85,2.85-11.39,3.53-16.16.19-1.3.38-2.67.56-4.11a29.51,29.51,0,0,0,3.08,4.74,21.29,21.29,0,0,0,1.69,1.83c2.54,2.42,5.61,4,10.25,6.42,1.8.93,5.87-4.52,11.53-6.4Z"/><polygon class="cls-10" points="212.38 44.23 189.36 57.48 189.36 114.4 212.38 101.78 212.38 44.23"/><path class="cls-9" d="M146.6,75l-.3,1.06a7.78,7.78,0,0,1-3.18-1.57l-.22-1.33A6.82,6.82,0,0,0,146.6,75Z"/><path class="cls-37" d="M158.29,70.42c3.67-3,6.82-5.11,6.91-7.14,0-2.8-3.13-4.92-5.74-4.75a18.09,18.09,0,0,0-6.93,2.63Z"/><path class="cls-33" d="M159.44,66.66c.38,5.47-5.17,9-11.53,9.5a7.75,7.75,0,0,1-1.61-.11,2.81,2.81,0,0,0-1.73-3.28c-1.17-.51-1.62.23-1.45,1.71-1.37-1.41-1.35-3.51-1-6.16,1.4-4.83,3.94-8.18,9.83-8.65C155.43,60,158.59,61.75,159.44,66.66Z"/><path class="cls-33" d="M77.63,23.77c1.36,5.16,1,11.47,2.79,19,2.42,7.49,5.4,11.15,8.83,19.67.53.82,18-7,17.82-7.85-3.57-16.39-6.24-4.68-8.51-11.76-1-5.44-7.77-13.88-9.89-20.07-.38-4.33-1.83-5.2-4.1-6.18C79.47,14.86,74.76,18.92,77.63,23.77Z"/><path class="cls-35" d="M78.12,132.72s-.71,3.87-.35,5.54S82.53,141,82.53,141s3.74,4.55,9,4.14c3.09-.24,4.14-1,4.62-2a2.91,2.91,0,0,0-.57-2.92c-.61-.85-4.58-2.3-6.19-4.86-.78-1.25-2.08-3.87-2.08-3.87l-.16-1.41a4.07,4.07,0,0,0-3.88-3.62h-.08a4.4,4.4,0,0,0-4.58,4.72l.06.85Z"/><path class="cls-35" d="M59.76,144.51c-.64,1.23-.64,3.3-.7,6.31a6.58,6.58,0,0,0,3.56,3.52s1.16,5.39,8.37,5.56c6.76.17,6.71-2.57,6.67-2.56a4,4,0,0,0-1.55-2.86,60.18,60.18,0,0,1-5.45-5,14.88,14.88,0,0,1-1.61-3l-.3-4.89H59.64Z"/><path class="cls-34" d="M85.81,59.94l-12,16.23c.59,4.48,1.54,16.87,2.59,21.1-2.23,16.06.64,34.24,2,35.26a6,6,0,0,0,8.76-1.37,246.83,246.83,0,0,0,1.1-35.95Z"/><path class="cls-33" d="M77.47,73l-3.32,30.15c-1.88,22.24-2.72,40.53-5.31,43-1.09,2.6-7.93,2.3-9.76,0-.2-2.42-.4-4.94-.56-7.52-.69-11.2-.62-23.59,3.58-34.22-1.35-7.82-2.76-22.46-2-29.63a22.9,22.9,0,0,1,.51-15.67,1.8,1.8,0,0,1,.08-.21,1.73,1.73,0,0,0,.21.17,9.73,9.73,0,0,0,3.35,1.84c8.67,2.83,21.65-4.31,21.66-4.13C86.16,65.48,83,68.94,77.47,73Z"/><path class="cls-36" d="M65.2,105c-4.2,7.4-5.75,19.89-6.68,33.6-.69-11.2-.62-23.59,3.58-34.22-1.35-7.82-2.76-22.46-2-29.63a22.9,22.9,0,0,1,.51-15.67l.29,0,4.34-.67c-.37.85-.71,1.68-1,2.51a19.91,19.91,0,0,0-.28,13.39C62.18,83,63.32,93.76,65.2,105Z"/><path class="cls-33" d="M88,45.77c-.57,3.6-1.29,7-2,10.35a5.4,5.4,0,0,1-.53,2.05C84.57,60,82.36,62.51,76.59,63a33.64,33.64,0,0,1-9,.28,13.19,13.19,0,0,1-3.94-1.08l-.17-.08-.6-.32C60,60.09,60.05,57.7,60.05,57.7A160.56,160.56,0,0,1,57.6,39.38a57,57,0,0,1,0-6.14c.19-4.49,1.49-9.59,1.46-12.66C65.28,18.14,66.74,16.89,72,14a38.19,38.19,0,0,1,15,.18C90,25.4,89.49,36.07,88,45.77Z"/><path class="cls-38" d="M63.66,62.24l-.17-.08-.6-.32C60,60.09,60.05,57.7,60.05,57.7A160.56,160.56,0,0,1,57.6,39.38a57,57,0,0,1,0-6.14C60,32,62.72,30.38,62.72,30.38,60.57,40.47,61.27,51.17,63.66,62.24Z"/><path class="cls-33" d="M57.3,21.8C52,27.45,49.71,35.91,45.85,45.58c-.46,3.75.63,11.69,4.19,13.74l6.33-5.5c.19-2.79.83-4.75.55-7.51,4.15-2.6,5.62-8.68,10.08-15.24C68.3,21.89,63,16.89,57.3,21.8Z"/><path class="cls-39" d="M55.49,34c-4.59,5.33-4,29.5-5.45,40.28l57.74,5.53c-1.13-8.15,1.27-30.4,7.25-38.39Z"/><path class="cls-31" d="M106.2,55.92c-1.81.39-1.66,1.81-.29,1.8-2.08.18-2.22,2.05-.46,2-1.19.19-1.27,1.58.48,1.56-1.25.54-1.27,1.36.21,1.41l2-.1c.8,0,1.83-.6,1.5-1.55.67-.08,1-1.75.67-1.84.57-.32.88-1.54.4-1.88.78-.54.77-1.79-.58-3l-.64-.54-.69,1.76Z"/><path class="cls-31" d="M54.14,54.3c1.6.92,1,2.22-.29,1.79,1.93.81,1.49,2.63-.16,2,1.07.55.72,1.89-.93,1.33,1,.9.78,1.69-.64,1.28L50.27,60c-.76-.26-1.56-1.14-1-1.94-.62-.28-.43-2-.07-1.95-.45-.48-.37-1.74.19-1.92-.58-.75-.18-1.93,1.47-2.67l.78-.31.11,1.89Z"/><path class="cls-31" d="M73.16,11.76c-.18,0-3.24,3.78-3.24,3.78-4.08,2.32,1.16,10.92,6.73,10l4.62-3.21Z"/><path class="cls-36" d="M83.62,21.82c0,4.11-1.05,7.32-3.84,6.83-6-.73-7-9.14-6.42-12.32Z"/><path class="cls-31" d="M80,1.41c-5,.05-7.85,2.41-8,7.62.14,5.49.42,8.79,3.06,12.54,1.65,2.07,3.89,3.56,6.45,3.43,3-.15,7.53-7.44,8-12.72C90.13,7,85.59,2.87,80,1.41Z"/><path class="cls-35" d="M88.77,16.13C87.64,18.8,81,18.31,78.1,15.05L77.77,17l-2.68-2.22-2.33,3-.84-1.2c-2.12-4.26-2-11.26,4-14.78C84-1.42,94.05,8,88.77,16.13Z"/><path class="cls-31" d="M74.35,17.07a4.2,4.2,0,0,1-.66-1.75,2,2,0,0,1,.58-1.69A1.39,1.39,0,0,1,76,13.55a1.5,1.5,0,0,1,.5,1.16A4.24,4.24,0,0,1,76.28,16L76,17.09a1,1,0,0,1-.41.66.73.73,0,0,1-.72-.1A1.74,1.74,0,0,1,74.35,17.07Z"/><path class="cls-40" d="M77.26,16.36c1,3.16,4.5,6.14,7.57,6.35,1.72-1.94,2.66-3.71,2.76-5.21L78,14.12Z"/><path class="cls-33" d="M81.74.16A8.57,8.57,0,0,0,71.4,7.54c0,4.21,4.32,7.72,9.54,8.43,4.62-.06,8-.93,9-2.86C91.29,5.1,87.35,1.17,81.74.16Z"/><path class="cls-37" d="M77.26,14.93s5.9,6.82,9.6,7c5,.18,8.32-2.15,8.81-3.5,1.27-3.48-5.45-7.57-5.45-7.57C89.86,13.42,82.49,15.79,77.26,14.93Z"/></g></g></g></svg>