<svg id="visual" viewBox="0 0 2000 540" width="2000" height="540" xmlns="http://www.w3.org/2000/svg" xmlns:xlink="http://www.w3.org/1999/xlink" version="1.1"><rect x="0" y="0" width="2000" height="540" fill="#FFFFFF"></rect><defs><linearGradient id="grad1_0" x1="73%" y1="100%" x2="100%" y2="0%"><stop offset="-24.074074074074076%" stop-color="#ffffff" stop-opacity="1"></stop><stop offset="124.07407407407408%" stop-color="#ffffff" stop-opacity="1"></stop></linearGradient></defs><defs><linearGradient id="grad2_0" x1="0%" y1="100%" x2="27%" y2="0%"><stop offset="-24.074074074074076%" stop-color="#ffffff" stop-opacity="1"></stop><stop offset="124.07407407407408%" stop-color="#ffffff" stop-opacity="1"></stop></linearGradient></defs><g transform="translate(2000, 540)"><path d="M-540 0C-499.5 -47 -459 -94.1 -431.8 -140.3C-404.6 -186.5 -390.6 -231.8 -362.4 -263.3C-334.3 -294.8 -291.8 -312.5 -260.4 -358.4C-228.9 -404.3 -208.4 -478.6 -166.9 -513.6C-125.3 -548.6 -62.6 -544.3 0 -540L0 0Z" fill="#5B15B0"></path></g><g transform="translate(0, 0)"><path d="M540 0C545.6 64.8 551.2 129.5 513.6 166.9C476 204.2 395.2 214.2 362.4 263.3C329.7 312.5 345.1 400.7 313.9 432C282.7 463.3 205 437.6 144.9 446C84.9 454.5 42.4 497.3 0 540L0 0Z" fill="#5B15B0"></path></g></svg>