<svg xmlns="http://www.w3.org/2000/svg" xmlns:xlink="http://www.w3.org/1999/xlink" viewBox="0 0 163.96 149.43"><defs><style>.cls-1{fill:#eff0f5;}.cls-2{fill:#ffa200;}.cls-3{fill:#222229;}.cls-4{fill:#464654;}.cls-5{isolation:isolate;}.cls-6{clip-path:url(#clip-path);}.cls-7{clip-path:url(#clip-path-2);}.cls-8{clip-path:url(#clip-path-3);}.cls-9{fill:#eff6fe;}.cls-10{fill:#c6bcb3;}.cls-11{clip-path:url(#clip-path-4);}.cls-12{clip-path:url(#clip-path-5);}.cls-13,.cls-22{fill:#35353f;}.cls-14{fill:#e0e7f2;}.cls-15{fill:#543f42;}.cls-16{clip-path:url(#clip-path-6);}.cls-17{clip-path:url(#clip-path-7);}.cls-18{fill:#434851;}.cls-19{clip-path:url(#clip-path-8);}.cls-20{clip-path:url(#clip-path-9);}.cls-21{fill:#c7d1e9;}.cls-22{opacity:0.2;mix-blend-mode:screen;}.cls-23{fill:#848aa8;}.cls-24{clip-path:url(#clip-path-10);}.cls-25{clip-path:url(#clip-path-11);}.cls-26{fill:#fbc70e;}.cls-27{clip-path:url(#clip-path-12);}.cls-28{clip-path:url(#clip-path-13);}.cls-29{clip-path:url(#clip-path-14);}.cls-30{clip-path:url(#clip-path-15);}.cls-31{fill:#f6f2ef;}.cls-32{clip-path:url(#clip-path-16);}.cls-33{clip-path:url(#clip-path-17);}.cls-34{clip-path:url(#clip-path-18);}.cls-35{fill:#ffb700;}.cls-36{fill:#2b65c8;}.cls-37{clip-path:url(#clip-path-19);}.cls-38{clip-path:url(#clip-path-20);}.cls-39{clip-path:url(#clip-path-21);}.cls-40{clip-path:url(#clip-path-22);}.cls-41{clip-path:url(#clip-path-23);}.cls-42{clip-path:url(#clip-path-24);}.cls-43{clip-path:url(#clip-path-25);}.cls-44{clip-path:url(#clip-path-26);}.cls-45{clip-path:url(#clip-path-27);}.cls-46{fill:#191919;}</style><clipPath id="clip-path"><path class="cls-1" d="M17.3,91l-.34.19a.3.3,0,0,0,.13-.29l.34-.2A.33.33,0,0,1,17.3,91Z"/></clipPath><clipPath id="clip-path-2"><path class="cls-1" d="M13,79.33l.34-.2a.32.32,0,0,1,.32,0l-.34.19A.31.31,0,0,0,13,79.33Z"/></clipPath><clipPath id="clip-path-3"><path class="cls-1" d="M16.66,81.29l.34-.2a1,1,0,0,1,.45.78l-.34.2A1,1,0,0,0,16.66,81.29Z"/></clipPath><clipPath id="clip-path-4"><path class="cls-3" d="M145.09,82.68l3.35,1.94c-1.7-1-4-.85-6.62.65l-3.35-2C141.06,81.83,143.4,81.69,145.09,82.68Z"/></clipPath><clipPath id="clip-path-5"><path class="cls-3" d="M135.26,107.3l-3.35-2c-1.67-1-2.7-3-2.71-6,0-5.9,4.13-13.09,9.27-16.06l3.35,2c-5.14,3-9.29,10.15-9.28,16.06C132.55,104.26,133.59,106.33,135.26,107.3Z"/></clipPath><clipPath id="clip-path-6"><path class="cls-3" d="M142.59,92.32l.76.44a1.49,1.49,0,0,0-1.5.15l-.76-.44A1.49,1.49,0,0,1,142.59,92.32Z"/></clipPath><clipPath id="clip-path-7"><path class="cls-3" d="M140.36,97.9l-.76-.44a1.49,1.49,0,0,1-.61-1.35,4.65,4.65,0,0,1,2.1-3.64l.76.44a4.59,4.59,0,0,0-2.1,3.64A1.47,1.47,0,0,0,140.36,97.9Z"/></clipPath><clipPath id="clip-path-8"><path class="cls-3" d="M73.22,124.12l3.34,1.95c-1.69-1-4-.85-6.62.64l-3.34-1.94C69.18,123.28,71.53,123.14,73.22,124.12Z"/></clipPath><clipPath id="clip-path-9"><path class="cls-3" d="M63.38,148.74,60,146.8c-1.67-1-2.71-3-2.71-6,0-5.9,4.13-13.09,9.27-16.06l3.34,1.94c-5.14,3-9.29,10.16-9.27,16.07C60.68,145.71,61.71,147.77,63.38,148.74Z"/></clipPath><clipPath id="clip-path-10"><path class="cls-2" d="M41.07,140.77l-.54.32a.79.79,0,0,1,.8.07l.54-.31A.82.82,0,0,0,41.07,140.77Z"/></clipPath><clipPath id="clip-path-11"><path class="cls-2" d="M45.47,145.75l.54-.31a.82.82,0,0,0,.33-.72,2.48,2.48,0,0,0-1.12-1.94l-.54.32A2.46,2.46,0,0,1,45.8,145,.78.78,0,0,1,45.47,145.75Z"/></clipPath><clipPath id="clip-path-12"><path class="cls-2" d="M1.48,118l-.54.32a.79.79,0,0,1,.8.07l.54-.31A.79.79,0,0,0,1.48,118Z"/></clipPath><clipPath id="clip-path-13"><path class="cls-2" d="M5.88,122.94l.54-.31a.79.79,0,0,0,.32-.72A2.47,2.47,0,0,0,5.63,120l-.54.32a2.44,2.44,0,0,1,1.11,1.93A.79.79,0,0,1,5.88,122.94Z"/></clipPath><clipPath id="clip-path-14"><path class="cls-3" d="M70.39,133.89l.76.44a1.49,1.49,0,0,0-1.5.15l-.76-.44A1.49,1.49,0,0,1,70.39,133.89Z"/></clipPath><clipPath id="clip-path-15"><path class="cls-3" d="M68.16,139.47l-.75-.44a1.47,1.47,0,0,1-.62-1.35,4.65,4.65,0,0,1,2.1-3.64l.76.44a4.62,4.62,0,0,0-2.1,3.64A1.49,1.49,0,0,0,68.16,139.47Z"/></clipPath><clipPath id="clip-path-16"><path class="cls-2" d="M158.89,83.19l-.66-.38a.47.47,0,0,1-.2-.43l.66.39A.47.47,0,0,0,158.89,83.19Z"/></clipPath><clipPath id="clip-path-17"><path class="cls-2" d="M161.11,74.18l.66.38a.46.46,0,0,0-.47,0l-.66-.39A.48.48,0,0,1,161.11,74.18Z"/></clipPath><clipPath id="clip-path-18"><path class="cls-2" d="M158.68,76.88,158,76.5a1.44,1.44,0,0,1,.66-1.14l.66.38A1.43,1.43,0,0,0,158.68,76.88Z"/></clipPath><clipPath id="clip-path-19"><path class="cls-1" d="M71,116.87l-.34.19a.3.3,0,0,0,.13-.29l.34-.2A.33.33,0,0,1,71,116.87Z"/></clipPath><clipPath id="clip-path-20"><path class="cls-1" d="M66.68,105.18,67,105a.32.32,0,0,1,.32,0l-.34.19A.32.32,0,0,0,66.68,105.18Z"/></clipPath><clipPath id="clip-path-21"><path class="cls-1" d="M70.34,107.14l.34-.2a1,1,0,0,1,.45.78l-.34.2A1,1,0,0,0,70.34,107.14Z"/></clipPath><clipPath id="clip-path-22"><path class="cls-4" d="M41.18,130.64l1.48-.87a.53.53,0,0,1,.51,0l-1.49.87A.47.47,0,0,0,41.18,130.64Z"/></clipPath><clipPath id="clip-path-23"><path class="cls-4" d="M49.84,138l-1.49.86a.49.49,0,0,0,.21-.46l1.49-.86A.51.51,0,0,1,49.84,138Z"/></clipPath><clipPath id="clip-path-24"><path class="cls-4" d="M47.86,134.25l1.48-.87a1.59,1.59,0,0,1,.72,1.24l-1.49.87A1.59,1.59,0,0,0,47.86,134.25Z"/></clipPath><clipPath id="clip-path-25"><path class="cls-4" d="M2.41,108.08l1.49-.87a.53.53,0,0,1,.51.05l-1.49.87A.48.48,0,0,0,2.41,108.08Z"/></clipPath><clipPath id="clip-path-26"><path class="cls-4" d="M11.08,115.4l-1.49.86a.49.49,0,0,0,.21-.46l1.48-.86A.53.53,0,0,1,11.08,115.4Z"/></clipPath><clipPath id="clip-path-27"><path class="cls-4" d="M9.09,111.69l1.49-.87a1.6,1.6,0,0,1,.71,1.24l-1.48.87A1.58,1.58,0,0,0,9.09,111.69Z"/></clipPath></defs><g class="cls-5"><g id="Layer_2" data-name="Layer 2"><g id="Layer_1-2" data-name="Layer 1"><g class="cls-5"><path class="cls-1" d="M17.3,91l-.34.19a.3.3,0,0,0,.13-.29l.34-.2A.33.33,0,0,1,17.3,91Z"/><g class="cls-6"><g class="cls-5"><path class="cls-1" d="M17.09,90.92l.34-.2a.33.33,0,0,1-.13.3l-.34.19a.3.3,0,0,0,.13-.29Z"/></g></g><path class="cls-1" d="M13,79.33l.34-.2a.32.32,0,0,1,.32,0l-.34.19A.31.31,0,0,0,13,79.33Z"/><g class="cls-7"><g class="cls-5"><path class="cls-1" d="M13,79.33l.34-.2a.31.31,0,0,1,.28,0l-.34.2a.31.31,0,0,0-.28,0Z"/><path class="cls-1" d="M13.28,79.34l.34-.2,0,0-.34.19,0,0Z"/></g></g><polygon class="cls-1" points="17.11 82.07 17.45 81.87 17.43 90.72 17.09 90.92 17.11 82.07"/><polygon class="cls-1" points="13.32 79.36 13.66 79.17 17 81.09 16.66 81.29 13.32 79.36"/><path class="cls-1" d="M16.66,81.29l.34-.2a1,1,0,0,1,.45.78l-.34.2A1,1,0,0,0,16.66,81.29Z"/><g class="cls-8"><g class="cls-5"><path class="cls-1" d="M16.66,81.29l.34-.2a1.2,1.2,0,0,1,.21.17l-.34.2a.68.68,0,0,0-.21-.17Z"/><path class="cls-1" d="M16.87,81.46l.34-.2a1.24,1.24,0,0,1,.17.27l-.34.19a1.45,1.45,0,0,0-.17-.26Z"/><path class="cls-1" d="M17,81.72l.34-.19a1,1,0,0,1,.07.28l-.34.2a1.11,1.11,0,0,0-.07-.29Z"/><path class="cls-1" d="M17.11,82l.34-.2v.06l-.34.2V82Z"/></g></g><path class="cls-9" d="M16.66,81.29a1,1,0,0,1,.45.78l0,8.85c0,.29-.2.41-.45.26L13.3,89.25a1,1,0,0,1-.45-.78l0-8.85c0-.29.21-.4.45-.26Z"/></g><polygon class="cls-10" points="137.97 81.76 151.66 89.72 151.65 83.15 137.97 75.2 137.97 81.76"/><g class="cls-5"><path class="cls-3" d="M145.09,82.68l3.35,1.94c-1.7-1-4-.85-6.62.65l-3.35-2C141.06,81.83,143.4,81.69,145.09,82.68Z"/><g class="cls-11"><g class="cls-5"><path class="cls-3" d="M141.82,85.27l-3.35-2a10.8,10.8,0,0,1,2-.91l3.35,1.94a9.77,9.77,0,0,0-2,.92Z"/><path class="cls-3" d="M143.85,84.35l-3.35-1.94a5.56,5.56,0,0,1,4.59.27l3.35,1.94a5.56,5.56,0,0,0-4.59-.27Z"/></g></g><path class="cls-3" d="M135.26,107.3l-3.35-2c-1.67-1-2.7-3-2.71-6,0-5.9,4.13-13.09,9.27-16.06l3.35,2c-5.14,3-9.29,10.15-9.28,16.06C132.55,104.26,133.59,106.33,135.26,107.3Z"/><g class="cls-12"><g class="cls-5"><path class="cls-3" d="M135.26,107.3l-3.35-2c-1.67-1-2.7-3-2.71-6a14.67,14.67,0,0,1,.23-2.52l3.34,1.94a14.78,14.78,0,0,0-.23,2.53c0,2.93,1.05,5,2.72,6Z"/><path class="cls-3" d="M132.77,98.8l-3.34-1.94c.93-5.3,4.62-11,9-13.54l3.35,2c-4.43,2.55-8.12,8.23-9,13.53Z"/></g></g><path class="cls-13" d="M141.82,85.27c5.14-3,9.31-.59,9.33,5.32s-4.13,13.09-9.27,16.06-9.32.58-9.34-5.32S136.68,88.23,141.82,85.27Z"/></g><path class="cls-14" d="M148.2,92.39a13.34,13.34,0,0,1-6,10.45c-1.87,1.08-3.55,1.06-4.66.14a2.78,2.78,0,0,1-.42-.42,5,5,0,0,1-1-3.21,13.33,13.33,0,0,1,6-10.44,4.54,4.54,0,0,1,3.83-.63l.25.11C147.45,89,148.2,90.36,148.2,92.39Z"/><path class="cls-10" d="M147.21,91.6a13.34,13.34,0,0,1-6,10.45,4.34,4.34,0,0,1-4.09.51,5,5,0,0,1-1-3.21,11,11,0,0,1,.77-3.84A14.44,14.44,0,0,1,140,90.65a11.14,11.14,0,0,1,1.28-1.13,8.61,8.61,0,0,1,.92-.61,4.54,4.54,0,0,1,3.83-.63l.25.11A4.93,4.93,0,0,1,147.21,91.6Z"/><path class="cls-15" d="M142.05,90.25l-.48,1.23a.58.58,0,0,1-1,.12l-.48-.68a.63.63,0,0,1-.1-.27,11.14,11.14,0,0,1,1.28-1.13A.58.58,0,0,1,142.05,90.25Z"/><path class="cls-15" d="M137.87,93.47a.57.57,0,0,1,.52.24l.48.68a.59.59,0,0,1-.19.84l-1,.55a.58.58,0,0,1-.82-.27Z"/><path class="cls-15" d="M137.8,98.33l-1,.55a.58.58,0,0,0-.19.83l.48.68a.58.58,0,0,0,1-.12l.48-1.23A.58.58,0,0,0,137.8,98.33Z"/><path class="cls-15" d="M140.78,98.69l-.47,1.23a.58.58,0,0,0,.83.71l1-.55a.59.59,0,0,0,.19-.84l-.48-.68A.58.58,0,0,0,140.78,98.69Z"/><path class="cls-15" d="M143.49,95.78l.47.67a.58.58,0,0,0,1-.12l.48-1.23a.58.58,0,0,0-.84-.71l-1,.55A.58.58,0,0,0,143.49,95.78Z"/><path class="cls-15" d="M144.55,91.84l.95-.55a.59.59,0,0,0,.19-.84l-.48-.68a.58.58,0,0,0-1,.13l-.47,1.23A.58.58,0,0,0,144.55,91.84Z"/><g class="cls-5"><path class="cls-3" d="M142.59,92.32l.76.44a1.49,1.49,0,0,0-1.5.15l-.76-.44A1.49,1.49,0,0,1,142.59,92.32Z"/><g class="cls-16"><g class="cls-5"><path class="cls-3" d="M141.85,92.91l-.76-.44a2.65,2.65,0,0,1,.46-.21l.76.44a2.65,2.65,0,0,0-.46.21Z"/><path class="cls-3" d="M142.31,92.7l-.76-.44a1.27,1.27,0,0,1,1,.06l.76.44a1.27,1.27,0,0,0-1-.06Z"/></g></g><path class="cls-3" d="M140.36,97.9l-.76-.44a1.49,1.49,0,0,1-.61-1.35,4.65,4.65,0,0,1,2.1-3.64l.76.44a4.59,4.59,0,0,0-2.1,3.64A1.47,1.47,0,0,0,140.36,97.9Z"/><g class="cls-17"><g class="cls-5"><path class="cls-3" d="M140.36,97.9l-.76-.44a1.49,1.49,0,0,1-.61-1.35,3.66,3.66,0,0,1,0-.57l.76.44a2.75,2.75,0,0,0-.05.57,1.47,1.47,0,0,0,.61,1.35Z"/><path class="cls-3" d="M139.8,96l-.76-.44a4.72,4.72,0,0,1,2.05-3.07l.76.44a4.72,4.72,0,0,0-2,3.07Z"/></g></g><path class="cls-13" d="M141.85,92.91c1.16-.67,2.11-.13,2.11,1.21a4.62,4.62,0,0,1-2.1,3.64c-1.16.67-2.11.13-2.11-1.21A4.59,4.59,0,0,1,141.85,92.91Z"/></g><polygon class="cls-18" points="0 114.75 8.57 109.94 10.28 110.93 1.71 115.73 0 114.75"/><polygon class="cls-10" points="65.84 123.32 79.54 131.28 79.52 124.72 65.84 116.77 65.84 123.32"/><g class="cls-5"><path class="cls-3" d="M73.22,124.12l3.34,1.95c-1.69-1-4-.85-6.62.64l-3.34-1.94C69.18,123.28,71.53,123.14,73.22,124.12Z"/><g class="cls-19"><g class="cls-5"><path class="cls-3" d="M69.94,126.71l-3.34-1.94a10.87,10.87,0,0,1,2-.92l3.34,2a10.8,10.8,0,0,0-2,.91Z"/><path class="cls-3" d="M72,125.8l-3.34-2a5.56,5.56,0,0,1,4.59.27l3.34,1.95A5.56,5.56,0,0,0,72,125.8Z"/></g></g><path class="cls-3" d="M63.38,148.74,60,146.8c-1.67-1-2.71-3-2.71-6,0-5.9,4.13-13.09,9.27-16.06l3.34,1.94c-5.14,3-9.29,10.16-9.27,16.07C60.68,145.71,61.71,147.77,63.38,148.74Z"/><g class="cls-20"><g class="cls-5"><path class="cls-3" d="M63.38,148.74,60,146.8c-1.67-1-2.71-3-2.71-6a13.81,13.81,0,0,1,.22-2.53l3.35,1.95a14.69,14.69,0,0,0-.23,2.53c0,2.93,1,5,2.71,6Z"/><path class="cls-3" d="M60.9,140.25l-3.35-1.95c.94-5.29,4.63-11,9-13.53l3.34,1.94c-4.42,2.56-8.11,8.24-9,13.54Z"/></g></g><path class="cls-13" d="M69.94,126.71c5.14-3,9.32-.58,9.34,5.32s-4.14,13.1-9.28,16.06-9.31.59-9.33-5.31S64.8,129.68,69.94,126.71Z"/></g><polygon class="cls-14" points="50.11 148.26 3.44 121.13 3.41 110.15 3.4 105.81 3.39 103.03 50.06 130.16 50.11 148.26"/><polygon class="cls-14" points="59.99 118.59 73.72 79.04 27.05 51.91 13.31 91.46 59.99 118.59"/><polygon class="cls-9" points="13.31 91.46 3.39 103.03 50.06 130.16 59.99 118.59 13.31 91.46"/><polygon class="cls-21" points="29.25 54.99 29.23 54.98 27.81 54.16 15.26 90.79 71.77 79.71 29.25 54.99"/><polygon class="cls-9" points="15.26 90.79 59.22 116.34 59.81 114.89 59.85 114.78 71.77 79.71 15.26 90.79"/><polygon class="cls-3" points="29.25 54.99 20.12 81.65 17.21 90.12 59.81 114.89 59.85 114.78 62.74 106.28 71.77 79.71 29.25 54.99"/><polygon class="cls-13" points="18.78 89.54 29.96 56.9 70.21 80.3 59.1 112.98 18.78 89.54"/><polygon class="cls-3" points="20.12 81.65 17.21 90.12 59.81 114.89 59.85 114.78 62.74 106.28 20.12 81.65"/><path class="cls-22" d="M30,56.9,18.78,89.54l6.72,3.92a64.92,64.92,0,0,1,34.2-11,46.41,46.41,0,0,1,9.57.56l.94-2.76Z"/><polygon class="cls-9" points="163.88 27.13 73.78 79.1 68.42 75.99 65.73 74.42 34.45 56.24 31.76 54.67 27.11 51.97 117.2 0 121.81 2.68 124.51 4.25 155.79 22.43 158.48 23.99 163.88 27.13"/><path class="cls-21" d="M151.66,89.72v0c0-6.69-4.76-9.39-10.58-6s-10.54,11.52-10.52,18.21v0l-51,29.39c-.12-6.6-4.85-9.24-10.67-5.88s-10.53,11.45-10.61,18.16l-8.14,4.7,0-18.1L60,118.59,73.72,79l90.09-52L164,82.58Z"/><path class="cls-23" d="M80.91,128.55l-.13-.49c-1-3.68-3.61-5.8-7.15-5.8a9.47,9.47,0,0,0-1.54.14l-.45.08V93.09a17.43,17.43,0,0,1,1-5.72L73,86.32a17.42,17.42,0,0,1,7.75-9.38l11.62-6.7a1.33,1.33,0,0,1,1.36,0,1.35,1.35,0,0,1,.67,1.18v49.37Zm-7.28-7.06a7.92,7.92,0,0,1,7.76,5.89l12.21-7V71.42a.58.58,0,0,0-.87-.51l-11.62,6.7a16.71,16.71,0,0,0-7.41,9l-.36,1.06a16.65,16.65,0,0,0-.92,5.46v28.48A10.24,10.24,0,0,1,73.63,121.49Z"/><g class="cls-5"><polygon class="cls-13" points="48.38 142.87 0 114.75 0.02 121.31 48.4 149.43 48.38 142.87"/><polygon class="cls-18" points="40.84 126.89 40.84 134.54 12.62 118.13 12.59 110.46 13.31 110.88 40.84 126.89"/><polygon class="cls-13" points="40.84 126.89 40.84 133.69 13.34 117.69 13.31 110.88 40.84 126.89"/><polygon class="cls-18" points="50.1 141.88 3.42 114.75 1.71 115.73 48.38 142.87 50.1 141.88"/><polygon class="cls-3" points="48.38 142.87 48.4 149.43 50.12 148.44 50.1 141.88 48.38 142.87"/></g><g class="cls-5"><polygon class="cls-3" points="48.4 142.87 56.97 138.07 56.95 144.63 48.38 149.43 48.4 142.87"/><polygon class="cls-18" points="46.68 141.88 55.26 137.08 56.97 138.07 48.4 142.87 46.68 141.88"/></g><g class="cls-5"><g class="cls-5"><path class="cls-2" d="M41.07,140.77l-.54.32a.79.79,0,0,1,.8.07l.54-.31A.82.82,0,0,0,41.07,140.77Z"/><g class="cls-24"><g class="cls-5"><path class="cls-2" d="M41.33,141.16l.54-.31a.82.82,0,0,0-.8-.08l-.54.32a.79.79,0,0,1,.8.07Z"/></g></g></g><polygon class="cls-2" points="44.68 143.1 45.22 142.78 41.87 140.85 41.33 141.16 44.68 143.1"/><g class="cls-5"><path class="cls-2" d="M45.47,145.75l.54-.31a.82.82,0,0,0,.33-.72,2.48,2.48,0,0,0-1.12-1.94l-.54.32A2.46,2.46,0,0,1,45.8,145,.78.78,0,0,1,45.47,145.75Z"/><g class="cls-25"><g class="cls-5"><path class="cls-2" d="M45.47,145.75l.54-.31a.82.82,0,0,0,.33-.72,2.48,2.48,0,0,0-1.12-1.94l-.54.32A2.46,2.46,0,0,1,45.8,145a.78.78,0,0,1-.33.72Z"/></g></g></g><path class="cls-26" d="M41.33,141.16c-.62-.35-1.12-.06-1.13.64a2.48,2.48,0,0,0,1.12,1.94l3.35,1.94c.62.35,1.12.06,1.13-.65a2.46,2.46,0,0,0-1.12-1.93Z"/></g><g class="cls-5"><g class="cls-5"><path class="cls-2" d="M1.48,118l-.54.32a.79.79,0,0,1,.8.07l.54-.31A.79.79,0,0,0,1.48,118Z"/><g class="cls-27"><g class="cls-5"><path class="cls-2" d="M1.74,118.35l.54-.31a.79.79,0,0,0-.8-.08l-.54.32a.79.79,0,0,1,.8.07Z"/></g></g></g><polygon class="cls-2" points="5.09 120.29 5.63 119.97 2.28 118.04 1.74 118.35 5.09 120.29"/><g class="cls-5"><path class="cls-2" d="M5.88,122.94l.54-.31a.79.79,0,0,0,.32-.72A2.47,2.47,0,0,0,5.63,120l-.54.32a2.44,2.44,0,0,1,1.11,1.93A.79.79,0,0,1,5.88,122.94Z"/><g class="cls-28"><g class="cls-5"><path class="cls-2" d="M5.88,122.94l.54-.31a.79.79,0,0,0,.32-.72A2.47,2.47,0,0,0,5.63,120l-.54.32a2.44,2.44,0,0,1,1.11,1.93.79.79,0,0,1-.32.72Z"/></g></g></g><path class="cls-26" d="M1.74,118.35c-.62-.35-1.13-.06-1.13.64a2.48,2.48,0,0,0,1.12,1.94l3.35,1.93c.62.36,1.12.07,1.12-.64a2.44,2.44,0,0,0-1.11-1.93Z"/></g><path class="cls-14" d="M76,134a13.34,13.34,0,0,1-6,10.45c-1.87,1.08-3.55,1.06-4.66.14a2.33,2.33,0,0,1-.41-.42,4.93,4.93,0,0,1-1-3.21,13.33,13.33,0,0,1,6-10.44,4.56,4.56,0,0,1,3.84-.63l.24.11C75.25,130.54,76,131.93,76,134Z"/><path class="cls-10" d="M75,133.17a13.34,13.34,0,0,1-6,10.45,4.33,4.33,0,0,1-4.08.51,4.93,4.93,0,0,1-1-3.21,11,11,0,0,1,.77-3.84,14.44,14.44,0,0,1,3.06-4.86,11.14,11.14,0,0,1,1.28-1.13,8.61,8.61,0,0,1,.92-.61,4.56,4.56,0,0,1,3.84-.63l.24.11A4.93,4.93,0,0,1,75,133.17Z"/><path class="cls-15" d="M69.85,131.82l-.48,1.23a.58.58,0,0,1-1,.12l-.47-.68a.54.54,0,0,1-.11-.27,11.14,11.14,0,0,1,1.28-1.13A.58.58,0,0,1,69.85,131.82Z"/><path class="cls-15" d="M65.67,135a.55.55,0,0,1,.52.24l.48.68a.58.58,0,0,1-.19.84l-1,.55a.58.58,0,0,1-.82-.27Z"/><path class="cls-15" d="M65.61,139.9l-1,.55a.57.57,0,0,0-.18.83l.47.68a.58.58,0,0,0,1-.12l.48-1.23A.58.58,0,0,0,65.61,139.9Z"/><path class="cls-15" d="M68.59,140.26l-.48,1.23a.58.58,0,0,0,.83.71l1-.55a.58.58,0,0,0,.19-.84l-.48-.68A.57.57,0,0,0,68.59,140.26Z"/><path class="cls-15" d="M71.29,137.35l.47.67a.58.58,0,0,0,1-.12l.48-1.23a.58.58,0,0,0-.83-.71l-1,.55A.58.58,0,0,0,71.29,137.35Z"/><path class="cls-15" d="M72.35,133.41l1-.55a.58.58,0,0,0,.19-.84l-.48-.68a.57.57,0,0,0-1,.13l-.48,1.23A.58.58,0,0,0,72.35,133.41Z"/><g class="cls-5"><path class="cls-3" d="M70.39,133.89l.76.44a1.49,1.49,0,0,0-1.5.15l-.76-.44A1.49,1.49,0,0,1,70.39,133.89Z"/><g class="cls-29"><g class="cls-5"><path class="cls-3" d="M69.65,134.48l-.76-.44a2.65,2.65,0,0,1,.46-.21l.76.44a2.65,2.65,0,0,0-.46.21Z"/><path class="cls-3" d="M70.11,134.27l-.76-.44a1.27,1.27,0,0,1,1,.06l.76.44a1.27,1.27,0,0,0-1-.06Z"/></g></g><path class="cls-3" d="M68.16,139.47l-.75-.44a1.47,1.47,0,0,1-.62-1.35,4.65,4.65,0,0,1,2.1-3.64l.76.44a4.62,4.62,0,0,0-2.1,3.64A1.49,1.49,0,0,0,68.16,139.47Z"/><g class="cls-30"><g class="cls-5"><path class="cls-3" d="M68.16,139.47l-.75-.44a1.47,1.47,0,0,1-.62-1.35,3.66,3.66,0,0,1,0-.57l.76.44a3.66,3.66,0,0,0,0,.57,1.49,1.49,0,0,0,.61,1.35Z"/><path class="cls-3" d="M67.6,137.55l-.76-.44a4.72,4.72,0,0,1,2-3.07l.76.44a4.72,4.72,0,0,0-2.05,3.07Z"/></g></g><path class="cls-13" d="M69.65,134.48c1.16-.67,2.11-.13,2.11,1.21a4.62,4.62,0,0,1-2.1,3.64c-1.16.67-2.11.13-2.11-1.21A4.62,4.62,0,0,1,69.65,134.48Z"/></g><g class="cls-5"><polygon class="cls-21" points="30.55 134.07 31 133.81 30.99 137.88 30.54 138.14 30.55 134.07"/><polygon class="cls-31" points="19.8 127.86 20.25 127.6 31 133.81 30.55 134.07 19.8 127.86"/><polygon class="cls-14" points="30.55 134.07 30.54 138.14 19.79 131.93 19.8 127.86 30.55 134.07"/></g><g class="cls-5"><g class="cls-5"><path class="cls-2" d="M158.89,83.19l-.66-.38a.47.47,0,0,1-.2-.43l.66.39A.47.47,0,0,0,158.89,83.19Z"/><g class="cls-32"><g class="cls-5"><path class="cls-2" d="M158.89,83.19l-.66-.38a.47.47,0,0,1-.2-.43l.66.39a.47.47,0,0,0,.2.42Z"/></g></g></g><g class="cls-5"><path class="cls-2" d="M161.11,74.18l.66.38a.46.46,0,0,0-.47,0l-.66-.39A.48.48,0,0,1,161.11,74.18Z"/><g class="cls-33"><g class="cls-5"><path class="cls-2" d="M161.3,74.61l-.66-.39a.48.48,0,0,1,.47,0l.66.38a.46.46,0,0,0-.47,0Z"/></g></g></g><polygon class="cls-2" points="158.69 82.77 158.03 82.38 158.02 76.5 158.68 76.88 158.69 82.77"/><polygon class="cls-2" points="159.34 75.74 158.68 75.36 160.64 74.22 161.3 74.61 159.34 75.74"/><g class="cls-5"><path class="cls-2" d="M158.68,76.88,158,76.5a1.44,1.44,0,0,1,.66-1.14l.66.38A1.43,1.43,0,0,0,158.68,76.88Z"/><g class="cls-34"><g class="cls-5"><path class="cls-2" d="M158.68,76.88,158,76.5a1.44,1.44,0,0,1,.66-1.14l.66.38a1.43,1.43,0,0,0-.66,1.14Z"/></g></g></g><path class="cls-35" d="M161.3,74.61c.36-.21.66,0,.66.37l0,5.89a1.44,1.44,0,0,1-.66,1.14l-2,1.14c-.37.21-.67,0-.67-.38V76.88a1.43,1.43,0,0,1,.66-1.14Z"/></g><polygon class="cls-36" points="94.33 108.66 141.21 81.59 141.21 76.05 94.33 103.12 94.33 108.66"/><polygon class="cls-36" points="71.77 116.12 60.3 122.74 57.29 130.01 71.77 121.66 71.77 116.12"/><polygon class="cls-36" points="153.64 74.42 110.19 99.5 118.25 62.24 161.69 37.15 153.64 74.42"/><polygon class="cls-36" points="106.26 66.27 105.33 78.35 109.88 78.17 103.96 94.77 103.04 85.55 97.21 84.63 106.26 66.27"/><g class="cls-5"><polygon class="cls-36" points="14.05 104.29 18.11 99.52 46.92 115.92 42.87 120.69 14.05 104.29"/></g><polygon class="cls-18" points="64.61 114.79 61.52 116.6 61.08 116.52 61.08 116.35 61.09 116.35 64.2 114.55 64.61 114.79"/><polygon class="cls-13" points="61.52 116.6 61.52 118.09 61.08 117.84 61.08 116.34 61.09 116.35 61.52 116.6"/><polygon class="cls-3" points="64.61 114.79 64.61 116.31 61.52 118.09 61.52 116.6 64.61 114.79"/><path class="cls-18" d="M67.91,119.3a2,2,0,0,1-1-.3L63,116.74a.32.32,0,0,1-.12-.44.34.34,0,0,1,.44-.12l3.92,2.27a.83.83,0,0,0,1.37-.8v-7a.32.32,0,0,1,.32-.32.32.32,0,0,1,.32.32v7a1.6,1.6,0,0,1-.7,1.48A1.31,1.31,0,0,1,67.91,119.3Z"/><g class="cls-5"><path class="cls-1" d="M71,116.87l-.34.19a.3.3,0,0,0,.13-.29l.34-.2A.33.33,0,0,1,71,116.87Z"/><g class="cls-37"><g class="cls-5"><path class="cls-1" d="M70.76,116.77l.34-.2a.33.33,0,0,1-.13.3l-.34.19a.3.3,0,0,0,.13-.29Z"/></g></g><path class="cls-1" d="M66.68,105.18,67,105a.32.32,0,0,1,.32,0l-.34.19A.32.32,0,0,0,66.68,105.18Z"/><g class="cls-38"><g class="cls-5"><path class="cls-1" d="M66.68,105.18,67,105a.31.31,0,0,1,.28,0l-.34.2a.31.31,0,0,0-.28,0Z"/><path class="cls-1" d="M67,105.19l.34-.2,0,0-.34.19,0,0Z"/></g></g><polygon class="cls-1" points="70.79 107.92 71.13 107.72 71.1 116.57 70.76 116.77 70.79 107.92"/><polygon class="cls-1" points="67 105.21 67.34 105.02 70.68 106.94 70.34 107.14 67 105.21"/><path class="cls-1" d="M70.34,107.14l.34-.2a1,1,0,0,1,.45.78l-.34.2A1,1,0,0,0,70.34,107.14Z"/><g class="cls-39"><g class="cls-5"><path class="cls-1" d="M70.34,107.14l.34-.2a1.12,1.12,0,0,1,.2.18l-.34.19a.79.79,0,0,0-.2-.17Z"/><path class="cls-1" d="M70.54,107.31l.34-.19a.78.78,0,0,1,.17.26l-.34.2a1,1,0,0,0-.17-.27Z"/><path class="cls-1" d="M70.71,107.58l.34-.2a.72.72,0,0,1,.07.28l-.33.2a1,1,0,0,0-.08-.28Z"/><path class="cls-1" d="M70.79,107.86l.33-.2a.13.13,0,0,1,0,.06l-.34.2v-.06Z"/></g></g><path class="cls-9" d="M70.34,107.14a1,1,0,0,1,.45.78l0,8.85c0,.29-.19.41-.45.26L67,115.1a1,1,0,0,1-.45-.78l0-8.85c0-.29.2-.4.45-.26Z"/></g><polygon class="cls-21" points="122.86 6.21 37.85 55.29 35.3 53.81 120.32 4.73 122.86 6.21"/><polygon class="cls-21" points="154.93 24.85 69.92 73.94 67.37 72.46 152.39 23.37 154.93 24.85"/><g class="cls-5"><g class="cls-5"><path class="cls-4" d="M41.18,130.64l1.48-.87a.53.53,0,0,1,.51,0l-1.49.87A.47.47,0,0,0,41.18,130.64Z"/><g class="cls-40"><g class="cls-5"><path class="cls-4" d="M41.18,130.64l1.48-.87.13,0-1.49.86a.33.33,0,0,0-.12,0Z"/><path class="cls-4" d="M41.3,130.59l1.49-.86a.57.57,0,0,1,.38.09l-1.49.87a.59.59,0,0,0-.38-.1Z"/></g></g></g><g class="cls-5"><path class="cls-4" d="M49.84,138l-1.49.86a.49.49,0,0,0,.21-.46l1.49-.86A.51.51,0,0,1,49.84,138Z"/><g class="cls-41"><g class="cls-5"><path class="cls-4" d="M48.56,138.36l1.49-.86a.51.51,0,0,1-.21.46l-1.49.86a.49.49,0,0,0,.21-.46Z"/></g></g></g><polygon class="cls-4" points="48.57 135.49 50.06 134.62 50.05 137.5 48.56 138.36 48.57 135.49"/><polygon class="cls-4" points="41.68 130.69 43.17 129.82 49.34 133.38 47.85 134.25 41.68 130.69"/><g class="cls-5"><path class="cls-4" d="M47.86,134.25l1.48-.87a1.59,1.59,0,0,1,.72,1.24l-1.49.87A1.59,1.59,0,0,0,47.86,134.25Z"/><g class="cls-42"><g class="cls-5"><path class="cls-4" d="M47.86,134.25l1.48-.87a1.48,1.48,0,0,1,.52.56l-1.49.87a1.47,1.47,0,0,0-.51-.56Z"/><path class="cls-4" d="M48.37,134.81l1.49-.87a1.47,1.47,0,0,1,.2.68l-1.49.87a1.36,1.36,0,0,0-.2-.68Z"/></g></g></g><path class="cls-13" d="M48.31,134.06A1.58,1.58,0,0,1,49,135.3v2.88c0,.45-.33.63-.72.4L42.13,135a1.57,1.57,0,0,1-.72-1.23v-2.88a.44.44,0,0,1,.72-.41Z"/><path class="cls-26" d="M48.62,138.42a.38.38,0,0,1-.19-.06l-6.17-3.56a1.31,1.31,0,0,1-.59-1v-2.88c0-.09,0-.25.14-.25a.41.41,0,0,1,.19.06l6.17,3.57a1.34,1.34,0,0,1,.59,1v2.88C48.76,138.27,48.74,138.42,48.62,138.42Z"/></g><g class="cls-5"><g class="cls-5"><path class="cls-4" d="M2.41,108.08l1.49-.87a.53.53,0,0,1,.51.05l-1.49.87A.48.48,0,0,0,2.41,108.08Z"/><g class="cls-43"><g class="cls-5"><path class="cls-4" d="M2.41,108.08l1.49-.87.12,0L2.53,108l-.12,0Z"/><path class="cls-4" d="M2.53,108,4,107.17a.6.6,0,0,1,.39.09l-1.49.87a.55.55,0,0,0-.39-.1Z"/></g></g></g><g class="cls-5"><path class="cls-4" d="M11.08,115.4l-1.49.86a.49.49,0,0,0,.21-.46l1.48-.86A.53.53,0,0,1,11.08,115.4Z"/><g class="cls-44"><g class="cls-5"><path class="cls-4" d="M9.8,115.8l1.48-.86a.53.53,0,0,1-.2.46l-1.49.86a.49.49,0,0,0,.21-.46Z"/></g></g></g><polygon class="cls-4" points="9.8 112.93 11.29 112.06 11.29 114.94 9.8 115.8 9.8 112.93"/><polygon class="cls-4" points="2.92 108.13 4.41 107.26 10.58 110.82 9.09 111.69 2.92 108.13"/><g class="cls-5"><path class="cls-4" d="M9.09,111.69l1.49-.87a1.6,1.6,0,0,1,.71,1.24l-1.48.87A1.58,1.58,0,0,0,9.09,111.69Z"/><g class="cls-45"><g class="cls-5"><path class="cls-4" d="M9.09,111.69l1.49-.87a1.57,1.57,0,0,1,.52.56l-1.49.87a1.41,1.41,0,0,0-.52-.56Z"/><path class="cls-4" d="M9.61,112.25l1.49-.87a1.46,1.46,0,0,1,.19.68l-1.48.87a1.47,1.47,0,0,0-.2-.68Z"/></g></g></g><path class="cls-13" d="M9.09,111.69a1.58,1.58,0,0,1,.72,1.24v2.87c0,.46-.33.64-.72.41l-6.17-3.56a1.57,1.57,0,0,1-.72-1.24v-2.87c0-.46.33-.64.72-.41Z"/><path class="cls-26" d="M9.4,116.05a.41.41,0,0,1-.19-.06L3,112.42a1.31,1.31,0,0,1-.59-1v-2.87c0-.1,0-.25.14-.25a.41.41,0,0,1,.19.06L9,111.91a1.36,1.36,0,0,1,.59,1v2.88C9.54,115.89,9.52,116.05,9.4,116.05Z"/></g><path class="cls-3" d="M91.92,75V94.3a1.52,1.52,0,0,1-.77,1.33l-14.76,8.52a1.53,1.53,0,0,1-2-.43,1.5,1.5,0,0,1-.28-.89V93.44a18,18,0,0,1,.23-2.84A17.63,17.63,0,0,1,75,87.85a17,17,0,0,1,7.58-9.17l7.85-4.52a.85.85,0,0,1,.47-.14A1,1,0,0,1,91.92,75Z"/><path class="cls-13" d="M91,74.39V93.7A1.53,1.53,0,0,1,90.25,95l-9.62,5.56-1,.56-4.16,2.4a1.52,1.52,0,0,1-1.11.17,1.5,1.5,0,0,1-.28-.89V93.44a18,18,0,0,1,.23-2.84A17.63,17.63,0,0,1,75,87.85a17,17,0,0,1,4.61-7c.31-.29.64-.57,1-.83a18.29,18.29,0,0,1,2-1.35l7.85-4.52a.85.85,0,0,1,.47-.14A.91.91,0,0,1,91,74.39Z"/><path class="cls-3" d="M80.63,80v21.18l-1,.56V80.86C80,80.57,80.29,80.29,80.63,80Z"/><polygon class="cls-46" points="92.48 102.05 92.48 105.84 91.67 105.38 91.67 102.51 92.48 102.05"/><polygon class="cls-46" points="92.48 105.84 90.16 107.18 90.16 106.25 91.67 105.38 92.48 105.84"/><polygon class="cls-18" points="91.67 102.51 91.67 105.38 90.16 106.25 90.16 103.38 91.67 102.51"/></g></g></g></svg>