<svg xmlns="http://www.w3.org/2000/svg" xmlns:xlink="http://www.w3.org/1999/xlink" viewBox="0 0 447.12 258"><defs><style>.cls-1{isolation:isolate;}.cls-2{fill:#fff;}.cls-3{fill:url(#linear-gradient);}.cls-34,.cls-4{fill:#d1d3d4;}.cls-5{fill:#cfe4bd;}.cls-6{fill:url(#linear-gradient-2);}.cls-7{fill:#fee2a6;}.cls-8{fill:url(#New_Gradient_Swatch_copy_8);}.cls-9{fill:url(#New_Gradient_Swatch_copy_9);}.cls-10{fill:url(#New_Gradient_Swatch_copy_9-2);}.cls-11{fill:url(#New_Gradient_Swatch_copy_9-3);}.cls-12{fill:url(#New_Gradient_Swatch_copy_9-4);}.cls-13{fill:url(#New_Gradient_Swatch_copy_9-5);}.cls-14{fill:url(#New_Gradient_Swatch_copy_9-6);}.cls-15{fill:url(#New_Gradient_Swatch_copy_9-7);}.cls-16{fill:url(#New_Gradient_Swatch_copy_9-8);}.cls-17{fill:url(#New_Gradient_Swatch_copy_9-9);}.cls-18{fill:url(#New_Gradient_Swatch_copy_9-10);}.cls-19{fill:url(#New_Gradient_Swatch_copy_9-11);}.cls-20{fill:url(#New_Gradient_Swatch_copy_9-12);}.cls-21{fill:url(#New_Gradient_Swatch_copy_9-13);}.cls-22{fill:url(#New_Gradient_Swatch_copy_9-14);}.cls-23{fill:url(#New_Gradient_Swatch_copy_9-15);}.cls-24{fill:url(#New_Gradient_Swatch_copy_9-16);}.cls-25{fill:url(#New_Gradient_Swatch_copy_9-17);}.cls-26{fill:url(#New_Gradient_Swatch_copy_9-18);}.cls-27{fill:url(#New_Gradient_Swatch_copy_9-19);}.cls-28{fill:#c8cacc;}.cls-28,.cls-29,.cls-34{mix-blend-mode:multiply;}.cls-29{fill:url(#radial-gradient);}.cls-30{fill:url(#New_Gradient_Swatch_copy_18);}.cls-31{fill:url(#New_Gradient_Swatch_copy_9-20);}.cls-32{mix-blend-mode:color-dodge;fill:url(#Radial_Gradient_1);}.cls-33{fill:url(#linear-gradient-3);}</style><linearGradient id="linear-gradient" x1="329.7" y1="329.02" x2="149.03" y2="-18.31" gradientUnits="userSpaceOnUse"><stop offset="0.08" stop-color="#f0eff2"/><stop offset="1" stop-color="#fff"/></linearGradient><linearGradient id="linear-gradient-2" x1="147.59" y1="264.68" x2="276.26" y2="-16.66" gradientUnits="userSpaceOnUse"><stop offset="0.04" stop-color="#138bbd"/><stop offset="0.23" stop-color="#169ac7"/><stop offset="0.59" stop-color="#1fc3df"/><stop offset="1" stop-color="#2af6ff"/></linearGradient><linearGradient id="New_Gradient_Swatch_copy_8" x1="242.38" y1="127.97" x2="-23.96" y2="15.63" gradientUnits="userSpaceOnUse"><stop offset="0.04" stop-color="#ffa98c"/><stop offset="0.32" stop-color="#ffb892"/><stop offset="0.86" stop-color="#fee1a3"/><stop offset="1" stop-color="#feeca8"/></linearGradient><linearGradient id="New_Gradient_Swatch_copy_9" x1="324.1" y1="118.38" x2="149.35" y2="2.38" gradientUnits="userSpaceOnUse"><stop offset="0.04" stop-color="#9f19ab"/><stop offset="0.24" stop-color="#ae25b1"/><stop offset="0.65" stop-color="#d744bf"/><stop offset="1" stop-color="#ff63ce"/></linearGradient><linearGradient id="New_Gradient_Swatch_copy_9-2" x1="323.47" y1="119.33" x2="148.72" y2="3.33" xlink:href="#New_Gradient_Swatch_copy_9"/><linearGradient id="New_Gradient_Swatch_copy_9-3" x1="322.34" y1="121.03" x2="147.59" y2="5.03" xlink:href="#New_Gradient_Swatch_copy_9"/><linearGradient id="New_Gradient_Swatch_copy_9-4" x1="314.57" y1="132.73" x2="139.82" y2="16.72" xlink:href="#New_Gradient_Swatch_copy_9"/><linearGradient id="New_Gradient_Swatch_copy_9-5" x1="306.77" y1="144.48" x2="132.02" y2="28.48" xlink:href="#New_Gradient_Swatch_copy_9"/><linearGradient id="New_Gradient_Swatch_copy_9-6" x1="290.06" y1="169.66" x2="115.31" y2="53.66" xlink:href="#New_Gradient_Swatch_copy_9"/><linearGradient id="New_Gradient_Swatch_copy_9-7" x1="272.31" y1="196.39" x2="97.56" y2="80.39" xlink:href="#New_Gradient_Swatch_copy_9"/><linearGradient id="New_Gradient_Swatch_copy_9-8" x1="272.83" y1="195.61" x2="98.08" y2="79.61" xlink:href="#New_Gradient_Swatch_copy_9"/><linearGradient id="New_Gradient_Swatch_copy_9-9" x1="274.28" y1="193.43" x2="99.53" y2="77.43" xlink:href="#New_Gradient_Swatch_copy_9"/><linearGradient id="New_Gradient_Swatch_copy_9-10" x1="277.98" y1="187.86" x2="103.23" y2="71.86" xlink:href="#New_Gradient_Swatch_copy_9"/><linearGradient id="New_Gradient_Swatch_copy_9-11" x1="275.24" y1="191.98" x2="100.49" y2="75.98" xlink:href="#New_Gradient_Swatch_copy_9"/><linearGradient id="New_Gradient_Swatch_copy_9-12" x1="275.35" y1="191.81" x2="100.61" y2="75.81" xlink:href="#New_Gradient_Swatch_copy_9"/><linearGradient id="New_Gradient_Swatch_copy_9-13" x1="276.29" y1="190.39" x2="101.55" y2="74.39" xlink:href="#New_Gradient_Swatch_copy_9"/><linearGradient id="New_Gradient_Swatch_copy_9-14" x1="284.75" y1="177.65" x2="110" y2="61.65" xlink:href="#New_Gradient_Swatch_copy_9"/><linearGradient id="New_Gradient_Swatch_copy_9-15" x1="293.5" y1="164.47" x2="118.75" y2="48.47" xlink:href="#New_Gradient_Swatch_copy_9"/><linearGradient id="New_Gradient_Swatch_copy_9-16" x1="296.36" y1="160.16" x2="121.61" y2="44.16" xlink:href="#New_Gradient_Swatch_copy_9"/><linearGradient id="New_Gradient_Swatch_copy_9-17" x1="299.21" y1="155.87" x2="124.46" y2="39.86" xlink:href="#New_Gradient_Swatch_copy_9"/><linearGradient id="New_Gradient_Swatch_copy_9-18" x1="302.93" y1="150.27" x2="128.18" y2="34.27" xlink:href="#New_Gradient_Swatch_copy_9"/><linearGradient id="New_Gradient_Swatch_copy_9-19" x1="304.42" y1="148.02" x2="129.67" y2="32.02" xlink:href="#New_Gradient_Swatch_copy_9"/><radialGradient id="radial-gradient" cx="1107.94" cy="-3363.44" r="22.04" gradientTransform="translate(-979.33 2142.14) scale(1.18 0.6)" gradientUnits="userSpaceOnUse"><stop offset="0" stop-color="#c7c8c9"/><stop offset="1" stop-color="#fff"/></radialGradient><linearGradient id="New_Gradient_Swatch_copy_18" x1="348.22" y1="108.71" x2="306.81" y2="14.63" gradientUnits="userSpaceOnUse"><stop offset="0.04" stop-color="#9f19ab"/><stop offset="0.16" stop-color="#ae25b1"/><stop offset="0.41" stop-color="#d744bf"/><stop offset="0.63" stop-color="#ff63ce"/><stop offset="0.87" stop-color="#dc48c1"/></linearGradient><linearGradient id="New_Gradient_Swatch_copy_9-20" x1="275.39" y1="98.81" x2="355.89" y2="33.23" xlink:href="#New_Gradient_Swatch_copy_9"/><radialGradient id="Radial_Gradient_1" cx="335.4" cy="52.82" r="40.5" gradientUnits="userSpaceOnUse"><stop offset="0" stop-color="#fff"/><stop offset="1"/></radialGradient><linearGradient id="linear-gradient-3" x1="-212.66" y1="2169.77" x2="-234.82" y2="2153.02" gradientTransform="matrix(0.87, 0.5, 0, 1.15, 514.7, -2329.76)" gradientUnits="userSpaceOnUse"><stop offset="0" stop-color="#d4d1d8"/><stop offset="1" stop-color="#fff"/></linearGradient></defs><g class="cls-1"><g id="Layer_2" data-name="Layer 2"><g id="Layer_1-2" data-name="Layer 1"><polygon class="cls-2" points="272.73 258 447.12 156.07 383.32 103.96 317.59 82.02 253.16 32.05 172.8 0 0 100.34 79.03 132.39 144.46 183.51 208.91 205.3 272.73 258"/><polygon class="cls-3" points="211.38 200.85 146.87 179.05 81.56 128.02 11.33 99.54 173.21 5.54 250.65 36.43 315.19 86.49 380.87 108.41 438.38 155.39 273.22 251.92 211.38 200.85"/><polygon class="cls-4" points="178.43 57.57 172.43 61.24 179.76 69.91 190.43 64.57 178.43 57.57"/><path class="cls-4" d="M138,172.08,174.71,149l12.49,9.29a1.44,1.44,0,0,0,.41.21l7.72,2.61-18.83,11L178,174.7,199.68,162a1.49,1.49,0,0,0,.74-1.44,1.51,1.51,0,0,0-1-1.27l-10.61-3.59-11.36-8.45,10.78-6.77L186.63,138l-51.2,32.14Z"/><polygon class="cls-4" points="56.92 84.74 23.55 104.49 27.05 105.91 60.36 86.2 60.23 85.98 75.4 91.64 76.45 88.83 48.04 78.22 44.68 80.17 56.92 84.74"/><path class="cls-4" d="M143.73,90.78a1.63,1.63,0,0,0,.61.13,1.52,1.52,0,0,0,.8-.23l12.46-7.82,4.66,2,26.81,24.82,2-2.2-6.27-5.81,32.87-20.14a1.5,1.5,0,0,0,.71-1.15,1.53,1.53,0,0,0-.5-1.26L199.59,63l-.19-.14-19.67-12.5-1.61,2.53,19.57,12.44,9.23,8.14L175.26,92.79,164.11,82.47a1.39,1.39,0,0,0-.43-.28l-42-17.91L120.5,67l33.74,14.39-10,6.28L92.37,64.59l20.24-12.15-1.54-2.57L89,63.1l-8.45-3.77-3.2,1.86Zm65.55-15.29L214.41,80,182.55,99.54l-5-4.63Z"/><polygon class="cls-4" points="327.13 197.16 325.06 199.32 339.5 213.18 342.19 211.61 327.13 197.16"/><polygon class="cls-4" points="215.91 190.16 214.27 187.65 199.97 197 203.59 198.22 215.91 190.16"/><path class="cls-4" d="M346.28,141.16a1.5,1.5,0,0,0,1.07,1.19L370.68,149l.83-2.88-22.43-6.41-1.28-7.54,36.52-21-2.49-2L347.26,129l-.69-4a1.5,1.5,0,0,0-.8-1.09l-7.08-3.62,28.54-16.42-3.81-1.27L335.5,118.66l-21.73-11.09-1.36,2.67,31.33,16Z"/><polygon class="cls-4" points="266.07 48.38 254.68 54.94 256.17 57.54 268.63 50.37 266.07 48.38"/><polygon class="cls-5" points="216.76 102.91 257.43 101.24 294.43 93.57 312.43 102.91 281.09 122.24 269.76 119.24 218.43 137.57 202.76 108.57 216.76 102.91"/><polygon class="cls-5" points="172.09 3.9 107.59 42.41 131.59 54.41 158.59 43.41 177.59 44.91 209.59 27.41 206.59 17.91 172.09 3.9"/><polygon class="cls-5" points="232.59 146.41 201.09 157.41 201.59 163.91 206.09 176.41 231.09 187.41 235.59 190.41 238.09 192.41 284.09 202.41 295.09 209.91 318.09 195.91 307.09 177.41 318.09 155.91 307.59 147.41 271.09 130.91 232.59 146.41"/><path class="cls-6" d="M240.46,224.87l27.12,22.4c2.72-14.25,7.57-43.77,9.18-64.7,1.51-19.62-15.2-29.23-24-38.66-5.41-5.8-7.45-11.31-9.66-18.1-2.83-8.69-1.18-16.67.73-25.91,1.95-9.5,6.87-21.44,3.6-33.33C243.76,53.24,225.26,46.44,207,37.19A96.47,96.47,0,0,1,171.86,6.33L147.17,20.67c12.53,15.08,35.58,22.14,53.59,31.24,11.06,5.58,23.38,16.37,24.69,21.15,2,7.25.51,14.45-1.21,22.79-2.17,10.51-7.73,23.14-3.26,36.88,3.58,11,10.77,18.71,17.11,25.51,8.79,9.42,16.83,14.53,16,24.9C253,197.29,245.91,213.93,240.46,224.87Z"/><path class="cls-7" d="M300.33,218.43l74.34-46a3,3,0,0,0,1.42-2.63L375.14,134l20.22-13.72-4.85-4-20.1,13.63a3,3,0,0,0-1.32,2.57l1,35.77-74.54,46.09.06.1L285,205.61a3,3,0,0,0-1.36-.65l-48.09-9.33-4.86-4.85a3,3,0,0,0-1.07-.69l-61.49-22.81-50-43.43,59-35.37a3,3,0,0,0,1.26-3.64l-9.75-25.71,42.67-23.91L233.58,44l63.16,49.73a2.27,2.27,0,0,0,.46.3l17.2,9L279,125.37l3.19,5.07,57.09-35.91-7.36-2.46-12.19,7.67.26-.49L300.23,88.88,237,39.05a2.81,2.81,0,0,0-.75-.43l-24-9.5a3,3,0,0,0-2.57.17L164.71,54.46l-34,2.39-24.34-12.5-6.16,3.58L124,60.13,40,111.17,47,114,131,62.85l31.76-2.24,9.11,24-60.35,36.21a3.05,3.05,0,0,0-1.45,2.31,3,3,0,0,0,1,2.53l53.5,46.5a3,3,0,0,0,.92.55l18.37,6.81-12.08,8,7.21,2.44,11.85-7.81,36,13.37,5,5a3,3,0,0,0,1.55.82l48.24,9.35L307.23,232l5.5-3.21Z"/><path class="cls-8" d="M315.77,139.93a4.25,4.25,0,0,0-1.06-.68l-42-18.5a4,4,0,0,0-2.95-.12l-68.88,24.26L179.1,127.18a8.78,8.78,0,0,0,2.24-5.75,8.17,8.17,0,0,0-.53-2.84l29.45-16.26,45.14-3.44a3.79,3.79,0,0,0,1.73-.55l41.55-24.66-6.8-5.27L253.86,91l-45.07,3.43a4,4,0,0,0-1.63.48l-32,17.7A22.15,22.15,0,0,0,165,110.29a24.37,24.37,0,0,0-5.8.69l-18-14.68a3.9,3.9,0,0,0-1-.58L69.18,66l-8.67,5,76,31.88,15,12.19a9,9,0,0,0-2.76,6.28,8.49,8.49,0,0,0,1.21,4.27L109.74,150l6.74,5.27,40.14-24.38a23.08,23.08,0,0,0,8.5,1.55,23.68,23.68,0,0,0,6.67-.93l25.78,21a4,4,0,0,0,3.85.67l69.51-24.48,40,17.61L367.27,197l7.25-4.23Zm-144-17a13.79,13.79,0,0,1-6.65,1.52,14,14,0,0,1-6.74-1.55c-1.22-.71-1.63-1.39-1.63-1.59s.4-.84,1.58-1.52a13.64,13.64,0,0,1,6.64-1.53,13.93,13.93,0,0,1,6.74,1.56c1.22.7,1.63,1.38,1.63,1.58S173,122.28,171.77,123Z"/><polygon class="cls-5" points="375.59 191.41 365.09 180.91 379.09 171.91 395.59 128.91 401.59 126.41 437.09 155.41 375.59 191.41"/><polygon class="cls-5" points="109.09 147.41 83.59 128.41 81.09 109.41 70.09 102.41 94.09 87.41 131.09 101.91 128.59 108.91 109.09 120.41 100.59 125.91 113.59 129.41 117.59 143.91 109.09 147.41"/><path class="cls-9" d="M322.93,118.66a1.3,1.3,0,0,1-.51-.11l-1.83-.82a1.25,1.25,0,1,1,1-2.28l1.83.81a1.26,1.26,0,0,1-.51,2.4Z"/><path class="cls-10" d="M317.52,116.24a1.17,1.17,0,0,1-.51-.11l-3.58-1.59a1.25,1.25,0,0,1,1-2.29l3.58,1.6a1.25,1.25,0,0,1-.51,2.39Z"/><path class="cls-11" d="M306.83,113.27a1.25,1.25,0,0,1-.65-2.32l1.71-1a1.25,1.25,0,0,1,1.16-.07l1.82.82a1.25,1.25,0,1,1-1,2.28l-1.22-.55-1.16.7A1.24,1.24,0,0,1,306.83,113.27Z"/><path class="cls-12" d="M285.81,126a1.25,1.25,0,0,1-.65-2.32l3.5-2.12a1.25,1.25,0,0,1,1.3,2.14l-3.51,2.12A1.24,1.24,0,0,1,285.81,126Zm7-4.25a1.25,1.25,0,0,1-.65-2.32l3.5-2.12a1.25,1.25,0,1,1,1.29,2.14l-3.5,2.12A1.15,1.15,0,0,1,292.82,121.75Zm7-4.24a1.25,1.25,0,0,1-.65-2.32l3.51-2.12a1.24,1.24,0,0,1,1.71.42,1.25,1.25,0,0,1-.42,1.72l-3.5,2.12A1.28,1.28,0,0,1,299.82,117.51Z"/><path class="cls-13" d="M280.59,129.16a1.31,1.31,0,0,1-.43-.08l-1.88-.69a1.27,1.27,0,0,1-.74-1.61,1.25,1.25,0,0,1,1.61-.74l1.31.48,1.2-.72a1.25,1.25,0,0,1,1.29,2.14l-1.71,1A1.26,1.26,0,0,1,280.59,129.16Z"/><path class="cls-14" d="M205.64,148.7a1.25,1.25,0,0,1-.42-2.42l3.66-1.29a1.25,1.25,0,0,1,.83,2.36l-3.66,1.28A1.22,1.22,0,0,1,205.64,148.7Zm7.31-2.57a1.25,1.25,0,0,1-.42-2.43l3.66-1.29a1.25,1.25,0,0,1,.83,2.36l-3.66,1.29A1.22,1.22,0,0,1,213,146.13Zm7.31-2.58a1.25,1.25,0,0,1-.42-2.42l3.66-1.29a1.24,1.24,0,0,1,1.59.76,1.26,1.26,0,0,1-.76,1.6l-3.66,1.28A1.14,1.14,0,0,1,220.26,143.55Zm7.31-2.57a1.25,1.25,0,0,1-.41-2.43l3.65-1.29a1.25,1.25,0,1,1,.83,2.36L228,140.91A1.23,1.23,0,0,1,227.57,141Zm7.31-2.57a1.28,1.28,0,0,1-1.18-.84,1.26,1.26,0,0,1,.77-1.59l3.65-1.29a1.25,1.25,0,1,1,.83,2.36l-3.65,1.28A1.25,1.25,0,0,1,234.88,138.41Zm7.32-2.58a1.25,1.25,0,0,1-.42-2.43l3.66-1.29a1.25,1.25,0,0,1,.83,2.36l-3.66,1.29A1.22,1.22,0,0,1,242.2,135.83Zm7.31-2.57a1.25,1.25,0,0,1-.42-2.43l3.66-1.29a1.25,1.25,0,0,1,.83,2.36l-3.66,1.28A1.19,1.19,0,0,1,249.51,133.26Zm7.31-2.58a1.25,1.25,0,0,1-.42-2.43l3.66-1.29a1.25,1.25,0,0,1,.83,2.36l-3.66,1.29A1.14,1.14,0,0,1,256.82,130.68Zm7.31-2.57a1.25,1.25,0,0,1-.41-2.43l3.65-1.29a1.25,1.25,0,1,1,.83,2.36L264.55,128A1.54,1.54,0,0,1,264.13,128.11Zm10.95-1a1.29,1.29,0,0,1-.43-.07L271,125.71a1.25,1.25,0,0,1,.86-2.35l3.64,1.34a1.25,1.25,0,0,1,.74,1.61A1.24,1.24,0,0,1,275.08,127.12Z"/><path class="cls-15" d="M200.09,150.66a1.24,1.24,0,0,1-.79-.29l-1.55-1.26a1.25,1.25,0,0,1,1.58-1.94l1,.82,1.22-.43a1.25,1.25,0,1,1,.83,2.36l-1.88.66A1.25,1.25,0,0,1,200.09,150.66Z"/><path class="cls-16" d="M195.78,147.15a1.25,1.25,0,0,1-.79-.28l-2.75-2.24a1.25,1.25,0,0,1,1.57-1.94l2.76,2.24a1.25,1.25,0,0,1-.79,2.22Zm-5.51-4.48a1.29,1.29,0,0,1-.79-.28l-2.76-2.25a1.23,1.23,0,0,1-.18-1.75,1.25,1.25,0,0,1,1.76-.19l2.75,2.25a1.25,1.25,0,0,1-.78,2.22Zm-5.52-4.49a1.23,1.23,0,0,1-.79-.28l-2.76-2.24a1.26,1.26,0,0,1-.18-1.76,1.24,1.24,0,0,1,1.76-.18l2.76,2.24a1.25,1.25,0,0,1,.18,1.76A1.27,1.27,0,0,1,184.75,138.18Zm-5.52-4.48a1.26,1.26,0,0,1-.78-.28l-2.76-2.25a1.25,1.25,0,0,1,1.57-1.94l2.76,2.25a1.23,1.23,0,0,1,.18,1.75A1.22,1.22,0,0,1,179.23,133.7Z"/><path class="cls-17" d="M173.72,129.21a1.23,1.23,0,0,1-.79-.28l-1.55-1.26a1.27,1.27,0,0,1-.47-1,1.25,1.25,0,0,1,.5-1,11.63,11.63,0,0,0,1.26-1.22,1.25,1.25,0,1,1,1.87,1.66l-.46.5.43.34a1.25,1.25,0,0,1-.79,2.22Z"/><path class="cls-18" d="M175.48,123.48a1.32,1.32,0,0,1-.39-.06,1.26,1.26,0,0,1-.8-1.58,4.08,4.08,0,0,0,.22-1.3,3.56,3.56,0,0,0-.28-1.39,1.25,1.25,0,1,1,2.3-1,6,6,0,0,1,.48,2.35,6.55,6.55,0,0,1-.34,2.07A1.25,1.25,0,0,1,175.48,123.48Zm-2.37-6.36a1.23,1.23,0,0,1-.76-.26,9.23,9.23,0,0,0-2.84-1.43,1.26,1.26,0,0,1-.82-1.57,1.25,1.25,0,0,1,1.57-.81,11.63,11.63,0,0,1,3.62,1.83,1.27,1.27,0,0,1,.22,1.76A1.22,1.22,0,0,1,173.11,117.12Zm-6.79-2.3h-.11a24.82,24.82,0,0,0-3.45,0,1.22,1.22,0,0,1-1.33-1.16,1.25,1.25,0,0,1,1.17-1.33,27.06,27.06,0,0,1,3.82,0,1.25,1.25,0,0,1-.1,2.5Z"/><path class="cls-19" d="M157.09,115.66a1.26,1.26,0,0,1-.8-.3l-1.53-1.28a1.25,1.25,0,1,1,1.61-1.92l1,.88c.35-.08.83-.18,1.42-.28a1.24,1.24,0,0,1,1.45,1,1.26,1.26,0,0,1-1,1.45c-1.12.2-1.83.39-1.84.39A1.26,1.26,0,0,1,157.09,115.66Z"/><path class="cls-20" d="M152.41,111.73a1.25,1.25,0,0,1-.8-.3l-3.14-2.64a1.25,1.25,0,1,1,1.6-1.91l3.15,2.64a1.24,1.24,0,0,1,.15,1.76A1.22,1.22,0,0,1,152.41,111.73Z"/><path class="cls-21" d="M146.12,106.44a1.22,1.22,0,0,1-.8-.29l-1.53-1.29a1.25,1.25,0,0,1,.18-2l1.73-1A1.25,1.25,0,0,1,147,104l-.19.11.17.15a1.24,1.24,0,0,1,.15,1.76A1.26,1.26,0,0,1,146.12,106.44Z"/><path class="cls-22" d="M149.38,102.37a1.24,1.24,0,0,1-1.08-.62,1.25,1.25,0,0,1,.45-1.71l3.07-1.77a1.25,1.25,0,0,1,1.25,2.16L150,102.21A1.28,1.28,0,0,1,149.38,102.37Zm6.12-3.55a1.24,1.24,0,0,1-1.08-.62,1.26,1.26,0,0,1,.45-1.71l3.07-1.78a1.25,1.25,0,0,1,1.25,2.17l-3.06,1.77A1.19,1.19,0,0,1,155.5,98.82Zm6.12-3.55a1.25,1.25,0,0,1-.63-2.33l3.07-1.78a1.25,1.25,0,0,1,1.25,2.16l-3.06,1.78A1.29,1.29,0,0,1,161.62,95.27Zm6.12-3.56a1.24,1.24,0,0,1-1.08-.62,1.26,1.26,0,0,1,.46-1.71l3.06-1.77a1.25,1.25,0,0,1,1.25,2.16l-3.06,1.77A1.19,1.19,0,0,1,167.74,91.71Z"/><path class="cls-23" d="M173.86,88.16a1.24,1.24,0,0,1-1.08-.62,1.26,1.26,0,0,1,.46-1.71l.89-.52-.28-1a1.25,1.25,0,1,1,2.41-.67l.54,1.93a1.26,1.26,0,0,1-.58,1.42l-1.73,1A1.19,1.19,0,0,1,173.86,88.16Z"/><path class="cls-24" d="M174.06,81.67a1.26,1.26,0,0,1-1.2-.91l-1-3.55a1.25,1.25,0,0,1,2.41-.68l1,3.56a1.23,1.23,0,0,1-1.21,1.58Z"/><path class="cls-25" d="M172.08,74.56a1.25,1.25,0,0,1-1.2-.91l-.54-1.93a1.26,1.26,0,0,1,.63-1.44l1.77-.93a1.25,1.25,0,0,1,1.16,2.21L173,72l.27,1a1.26,1.26,0,0,1-.87,1.54A1.32,1.32,0,0,1,172.08,74.56Z"/><path class="cls-26" d="M177.26,69.55a1.23,1.23,0,0,1-1.1-.67,1.24,1.24,0,0,1,.52-1.69l2.5-1.22a1.25,1.25,0,1,1,1.16,2.21l-2.5,1.23A1.3,1.3,0,0,1,177.26,69.55Z"/><path class="cls-27" d="M183.73,67.71a4.85,4.85,0,0,1-4.39,0c-1.22-.71-1.22-1.84,0-2.54a4.82,4.82,0,0,1,4.39,0A1.33,1.33,0,0,1,183.73,67.71Z"/><polygon class="cls-4" points="328.43 191.24 346.43 180.57 324.76 160.57 318.43 164.91 330.43 178.24 322.43 183.24 328.43 191.24"/><polygon class="cls-4" points="284.43 241.91 302.43 231.24 285.93 216.74 279.59 221.07 278.43 233.91 284.43 241.91"/><polygon class="cls-4" points="311.43 115.91 297.09 124.91 306.58 130.22 315.62 127.56 325.76 133.24 336.76 126.91 311.43 115.91"/><polygon class="cls-4" points="143.09 64.91 139.09 67.57 158.09 75.91 162.09 71.91 158.43 64.91 143.09 64.91"/><polygon class="cls-4" points="157.09 152.24 171.43 143.24 165.76 137.57 159.76 140.91 154.09 135.57 143.43 141.91 157.09 152.24"/><polygon class="cls-4" points="255.09 85.91 268.76 76.57 255.09 64.57 250.43 68.91 257.76 74.57 251.43 79.91 255.09 85.91"/><polygon class="cls-4" points="356.09 171.57 366.09 165.24 365.76 149.24 358.09 147.91 356.09 158.24 352.43 160.91 336.09 146.57 330.76 149.57 356.09 171.57"/><polygon class="cls-4" points="201.09 141.91 212.09 136.24 199.43 111.24 189.43 116.57 189.09 123.91 183.76 127.91 201.09 141.91"/><polygon class="cls-28" points="317.59 82.02 253.16 32.05 79.03 132.39 144.46 183.51 317.59 82.02"/><polygon class="cls-28" points="208.91 205.3 272.73 258 447.12 156.07 383.32 103.96 208.91 205.3"/><ellipse class="cls-29" cx="328.64" cy="116.67" rx="26.03" ry="13.28"/><path class="cls-30" d="M329,17.41C320.56,12.51,313,12.36,307.7,16l-6.1,2.85.75,3.91a27.56,27.56,0,0,0-2.05,11C300.3,46.27,307,66,313.88,83l7.21,37.64,8-4S357.78,92.89,357.78,67C357.78,48.77,344.92,26.57,329,17.41Z"/><path class="cls-31" d="M349.83,71c0,25.9-28.74,49.69-28.74,49.69s-28.74-57-28.74-82.88c0-18.22,12.87-25.55,28.74-16.39S349.83,52.74,349.83,71Z"/><path class="cls-32" d="M322.91,20.39c-8.29-4.79-15.74-5-21-1.62,5.09-2.3,11.8-1.65,19.17,2.61C337,30.55,349.83,52.74,349.83,71c0,22.2-21.09,42.83-27.13,48.28l.21.42S351.66,95.87,351.66,70C351.66,51.75,338.79,29.55,322.91,20.39Z"/><path class="cls-33" d="M333.59,61.58c0,7.92-5.6,11.12-12.5,7.13s-12.5-13.64-12.5-21.56S314.19,36,321.09,40,333.59,53.66,333.59,61.58Z"/><path class="cls-34" d="M325,66.93c-6.91-4-12.5-13.64-12.5-21.56,0-3.14.89-5.52,2.37-7-3.72.33-6.23,3.5-6.23,8.8,0,7.92,5.6,17.57,12.5,21.56,4.17,2.41,7.85,2.18,10.12-.11A10.71,10.71,0,0,1,325,66.93Z"/></g></g></g></svg>