<svg xmlns="http://www.w3.org/2000/svg" xmlns:xlink="http://www.w3.org/1999/xlink" viewBox="0 0 402.45 313.88"><defs><style>.cls-1{fill:none;}.cls-2{isolation:isolate;}.cls-3,.cls-55,.cls-68{fill:gray;}.cls-3{opacity:0.38;}.cls-3,.cls-55,.cls-66{mix-blend-mode:multiply;}.cls-4{fill:#a8abad;}.cls-5{fill:#5b15b0;}.cls-6{clip-path:url(#clip-path);}.cls-14,.cls-7{fill:#fff;}.cls-8{fill:#223040;}.cls-9{fill:#f8f9fc;}.cls-10{fill:#031124;}.cls-11{fill:#0e4067;}.cls-12{fill:#035086;}.cls-13{fill:#ffcb03;}.cls-14{opacity:0.4;mix-blend-mode:screen;}.cls-15{fill:#151c26;}.cls-16{fill:#141c25;}.cls-17{fill:#0c3356;}.cls-18{fill:#0c141b;}.cls-19{fill:#0d3457;}.cls-20{fill:#1a578b;}.cls-21{fill:#151d27;}.cls-22{fill:#202d3c;}.cls-23{fill:#ffbe03;}.cls-24{fill:#9d9d9d;}.cls-25{fill:#b4b4b4;}.cls-26{fill:#03162b;}.cls-27{fill:#afafaf;}.cls-28{fill:#858585;}.cls-29{fill:#031933;}.cls-30{fill:#bababa;}.cls-31{fill:#031123;}.cls-32{fill:#031934;}.cls-33{fill:#031b36;}.cls-34{fill:#a0a0a0;}.cls-35{fill:#a4a4a4;}.cls-36{fill:#03172f;}.cls-37{fill:#03162d;}.cls-38{fill:#b9b9b9;}.cls-39{fill:#031a36;}.cls-40{fill:#b6b6b6;}.cls-41{fill:#031a35;}.cls-42{fill:#868686;}.cls-43{fill:#03274c;}.cls-44{fill:#ffffea;}.cls-45{fill:#032446;}.cls-46{fill:#f24634;}.cls-47{fill:#f7a317;}.cls-48{fill:#ffd51e;}.cls-49{fill:#ffc71e;}.cls-50{fill:#cd4528;}.cls-51{fill:#032b4f;}.cls-52{fill:#cdd7b8;}.cls-53{fill:#b82d1f;}.cls-54{fill:#f96254;}.cls-55{opacity:0.5;}.cls-56{fill:#03569e;}.cls-57{fill:#032a51;}.cls-58{fill:#03417b;}.cls-59{fill:#03375e;}.cls-60{fill:#03223d;}.cls-61{fill:#033e68;}.cls-62{fill:#737373;}.cls-63{fill:#d0d0d0;}.cls-64{fill:#878787;}.cls-65{fill:#a6a6a6;}.cls-66{opacity:0.39;}.cls-67{clip-path:url(#clip-path-2);}.cls-69{fill:#4f4f4f;}.cls-70{fill:#717171;}.cls-71{fill:#f6f6f6;}.cls-72{fill:#4f99b5;}.cls-73{fill:#73bed8;}.cls-74{fill:#a4d1e2;}.cls-75{fill:#86c1d6;}.cls-76{fill:#6db8d4;}.cls-77{fill:#95def7;}.cls-78{fill:#ccf3ff;}.cls-79{fill:#aae1f5;}.cls-80{fill:#959595;}.cls-81{fill:#8a8a8a;}.cls-82{fill:#818283;}.cls-83{fill:#79797a;}.cls-84{fill:#8a8b8c;}.cls-85{fill:#c6c6c6;}.cls-86{fill:#e2e3e5;}.cls-87{fill:#e4e5e8;}.cls-88{fill:#c1c2c4;}.cls-89{fill:#36393f;}.cls-90{fill:#0e1114;}.cls-91{fill:#032744;}.cls-92{fill:#ececec;}.cls-93{fill:#6a6b6c;}.cls-94{fill:#dedede;}.cls-95{fill:#3b3c3c;}.cls-96{fill:#3e3f3f;}.cls-97{fill:#d7d7d7;}.cls-98{fill:#032342;}.cls-99{fill:#164572;}.cls-100{fill:#082844;}.cls-101{fill:#ecc199;}.cls-102{fill:#14436c;}.cls-103{fill:#a87a0c;}.cls-104{fill:#7c634c;}.cls-105{fill:#926909;}.cls-106{fill:#8a7058;}.cls-107{fill:#7d644e;}.cls-108{fill:#092a46;}.cls-109{fill:#836954;}.cls-110{fill:#9e8064;}.cls-111{fill:#b0800d;}.cls-112{fill:#ffc018;}.cls-113{fill:#ffdfbf;}.cls-114{fill:#ffd62e;}.cls-115{fill:#ffe12e;}</style><clipPath id="clip-path"><polygon class="cls-1" points="85.21 211.85 104.77 200.48 171.37 238.94 151.81 250.3 85.21 211.85"/></clipPath><clipPath id="clip-path-2"><polygon class="cls-1" points="232.22 208.53 189.06 184.4 205.41 175.33 248.57 199.45 232.22 208.53"/></clipPath></defs><g class="cls-2"><g id="Layer_2" data-name="Layer 2"><g id="Layer_1-2" data-name="Layer 1"><path class="cls-3" d="M231.2,107.56,3.83,238.64a7.65,7.65,0,0,0,0,13.26l43,24.73,32.45,18.65c12,6.92,23.58,14.94,37.54,17.4,6.47,1.14,14.29,1.73,20.73.56,4.24-.77,6-4.49,7.28-7l96.89-188.47A7.65,7.65,0,0,0,231.2,107.56Z"/><path class="cls-4" d="M15.72,220.71c0,3.31,2.16,6.62,6.5,9.12l44.86,25.89,0-10.27c0-1.72,1.1-3.43,3.2-4.81l-15.67-9c-1.72-1-2.6-2.32-2.59-3.65l.07-21.07c0-1.3.84-2.6,2.54-3.58L228.84,102.07a13.8,13.8,0,0,1,12.47,0L282.68,126c0-3,0-6,0-8.66a2.44,2.44,0,0,1,1.42-2,7.69,7.69,0,0,1,6.93,0l29.57,17.08a2.5,2.5,0,0,1,1.47,2l0,14.29,21.56,12.46c1.74,1,2.61,2.31,2.6,3.63l0,12.61,18.34-10.66c4.25-2.47,6.38-5.72,6.39-9q0,10.55-.07,21.08c0,3.26-2.12,6.51-6.38,9L155,309.55c-8.57,5-22.6,5-31.21,0L22.16,250.91c-4.34-2.51-6.51-5.81-6.5-9.12C15.68,234.76,15.7,227.75,15.72,220.71Z"/><path class="cls-5" d="M54.65,203.3,228.84,102.07a13.8,13.8,0,0,1,12.47,0l102.3,59.07c3.46,2,3.47,5.22.05,7.22L169.47,269.58a13.77,13.77,0,0,1-12.47,0L54.69,210.51C51.28,208.55,51.23,205.29,54.65,203.3Z"/><g class="cls-2"><g class="cls-6"><path class="cls-7" d="M112.74,205.08a14.16,14.16,0,0,0-3.94-1.53,16.52,16.52,0,0,0-4.34-.38,19.08,19.08,0,0,0-4.48.75,19.86,19.86,0,0,0-4.38,1.89l-1.25.73a13,13,0,0,0-3.25,2.52,5,5,0,0,0-1.33,2.58,3.6,3.6,0,0,0,.67,2.5,8.11,8.11,0,0,0,2.68,2.28A15.85,15.85,0,0,0,96.77,218a16.24,16.24,0,0,0,3.72.58,15,15,0,0,0,3.62-.34,13.35,13.35,0,0,0,3.32-1.17l-3.94-2.28a9,9,0,0,1-1.81.69,6.74,6.74,0,0,1-1.77.21,6.34,6.34,0,0,1-1.76-.28,8.77,8.77,0,0,1-1.83-.81,3.83,3.83,0,0,1-1.42-1.26,1.5,1.5,0,0,1-.1-1.35A4,4,0,0,1,96,210.48a15.45,15.45,0,0,1,2.37-1.63l1.28-.75a14.43,14.43,0,0,1,5.46-2,7.06,7.06,0,0,1,4.43.88A5.45,5.45,0,0,1,111,208a1.62,1.62,0,0,1,.45,1,1.7,1.7,0,0,1-.44,1,6,6,0,0,1-1.21,1.05l4,2.28a8,8,0,0,0,2-2,3.28,3.28,0,0,0,.63-2.11,3.82,3.82,0,0,0-.93-2.16,9.5,9.5,0,0,0-2.66-2.12Z"/><path class="cls-7" d="M116.85,221.6l9.51-2.77-4.72,5.53-4.79-2.76ZM133,217.09,129.35,215l-26.18,6.95,4.2,2.43,5.24-1.52,6.92,4-2.59,3.05,4.2,2.42L133,217.09Z"/><polygon class="cls-7" points="147.02 225.18 143.08 222.9 124.04 233.97 136.37 241.09 139.52 239.25 131.13 234.41 147.02 225.18 147.02 225.18"/><polygon class="cls-7" points="162.73 234.25 158.78 231.97 139.74 243.03 152.07 250.15 155.22 248.32 146.84 243.48 162.73 234.25 162.73 234.25"/></g></g><path class="cls-8" d="M88.83,240.3c-5-2.9-13.06-2.91-18,0s-4.92,7.55.08,10.44L89.3,261.36c5,2.88,13.07,2.9,18,0s4.92-7.55-.08-10.44Z"/><path class="cls-7" d="M364.42,148.63c8.61,5,8.65,13.12.1,18.09L155,288.47c-8.58,5-22.61,5-31.23,0L22.22,229.83c-8.61-5-8.69-13.11-.11-18.09L231.62,90c8.56-5,22.61-5,31.23,0ZM54.65,203.3c-3.42,2-3.37,5.25,0,7.21L157,269.58a13.77,13.77,0,0,0,12.47,0L343.66,168.36c3.42-2,3.41-5.24-.05-7.22l-102.3-59.07a13.8,13.8,0,0,0-12.47,0L54.65,203.3Zm16.23,47.43L89.3,261.36c5,2.88,13.07,2.9,18,0s4.92-7.55-.08-10.44L88.83,240.3c-5-2.9-13.06-2.91-18,0s-4.92,7.55.08,10.44ZM320.62,132.36l-29.57-17.08a7.69,7.69,0,0,0-6.93,0c-1.9,1.11-1.89,2.9,0,4l29.57,17.07a7.65,7.65,0,0,0,6.94,0c1.93-1.13,1.92-2.92,0-4Z"/><path class="cls-9" d="M291.05,115.28a7.69,7.69,0,0,0-6.93,0c-1.9,1.11-1.89,2.9,0,4l29.57,17.07a7.65,7.65,0,0,0,6.94,0c1.93-1.13,1.92-2.92,0-4Z"/><polygon class="cls-10" points="93.89 143.7 88.5 143.7 88.53 140.32 93.91 140.32 93.89 143.7"/><path class="cls-10" d="M93.14,142.62c1,.62,1,1.61-.08,2.21a4.23,4.23,0,0,1-3.81,0c-1-.62-1-1.61.08-2.21A4.19,4.19,0,0,1,93.14,142.62Z"/><g class="cls-2"><path class="cls-11" d="M96.52,136.89c2.8,1.68,2.7,4.37-.22,6a11.41,11.41,0,0,1-10.35-.1c-2.8-1.68-2.7-4.37.21-6A11.43,11.43,0,0,1,96.52,136.89Z"/><path class="cls-12" d="M85.8,142.06a6.1,6.1,0,0,1-1.3-1,5.07,5.07,0,0,1-.39-.47,4.41,4.41,0,0,1-.39-.67,3.2,3.2,0,0,1-.22-.66,2.93,2.93,0,0,1-.08-.66,3.08,3.08,0,0,1,.2-1.16,3.72,3.72,0,0,1,.64-1.13,5.94,5.94,0,0,1,1-1,8.69,8.69,0,0,1,3.27-1.41,11.84,11.84,0,0,1,2.26-.29,11,11,0,0,1,1.13,0,12.89,12.89,0,0,1,2.17.31,10.12,10.12,0,0,1,1,.31,6.71,6.71,0,0,1,1,.4,4.71,4.71,0,0,1,.58.32.34.34,0,0,0-.15-.06,1.2,1.2,0,0,0-.82.19A9.65,9.65,0,0,0,87,135c-2.47,1.38-2.55,3.65-.19,5.07a9.67,9.67,0,0,0,8.75.09c2.46-1.38,2.54-3.64.18-5.07a1.2,1.2,0,0,1,.82-.19.34.34,0,0,1,.15.06,6.29,6.29,0,0,1,1.19.91A4.5,4.5,0,0,1,98.7,137a3.74,3.74,0,0,1,.33,1.19,3.37,3.37,0,0,1,0,.57,2.71,2.71,0,0,1-.14.66,3.54,3.54,0,0,1-.27.66,6,6,0,0,1-.35.53,5.58,5.58,0,0,1-1,1,7.47,7.47,0,0,1-1.58.91,9.32,9.32,0,0,1-1.78.57A11.46,11.46,0,0,1,85.8,142.06Z"/><path class="cls-12" d="M85.79,140a6,6,0,0,1-1.29-1c-.22-.23-.39-.48-.4-.48a3.88,3.88,0,0,1-.38-.67,3.2,3.2,0,0,1-.23-.66,3.56,3.56,0,0,1-.08-.66c0-.08,0-.36,0-.5a3.68,3.68,0,0,1,.17-.66,3,3,0,0,1,.32-.66,3.51,3.51,0,0,1,.38-.54,6,6,0,0,1,1.12-1,7.57,7.57,0,0,1,1.35-.74c.2-.08.46-.19.67-.26a9,9,0,0,1,1.1-.31,12.46,12.46,0,0,1,2.26-.29c.09,0,.57,0,1.12,0s.65,0,1.11.11c0,0,.48.07,1.06.21a7.76,7.76,0,0,1,1,.3,8.7,8.7,0,0,1,.95.4c.18.08.41.22.59.32a.44.44,0,0,0-.16-.06,1.26,1.26,0,0,0-.82.19,9.62,9.62,0,0,0-8.74-.08c-2.46,1.37-2.55,3.64-.18,5.06a9.65,9.65,0,0,0,8.74.09c2.47-1.38,2.55-3.64.18-5.07a1.26,1.26,0,0,1,.82-.19.44.44,0,0,1,.16.06c.17.11.4.25.56.38a5.11,5.11,0,0,1,.63.54,3.92,3.92,0,0,1,.84,1.16,3.2,3.2,0,0,1,.33,1.18,2.51,2.51,0,0,1,0,.57,2.85,2.85,0,0,1-.13.66,3.67,3.67,0,0,1-.28.66,3.63,3.63,0,0,1-.35.54,5.23,5.23,0,0,1-1,1,7,7,0,0,1-1.58.91,9.42,9.42,0,0,1-1.77.57A11.54,11.54,0,0,1,85.79,140Z"/><path class="cls-12" d="M85.78,137.85a6.59,6.59,0,0,1-1.29-1,6.1,6.1,0,0,1-.39-.48,3.65,3.65,0,0,1-.39-.66,3.51,3.51,0,0,1-.22-.67,2.41,2.41,0,0,1-.08-.66,2.29,2.29,0,0,1,0-.5,3,3,0,0,1,.16-.66,4,4,0,0,1,.71-1.2,5.7,5.7,0,0,1,1.11-1,8.25,8.25,0,0,1,1.35-.74,9.85,9.85,0,0,1,1.77-.57,12.46,12.46,0,0,1,2.26-.29c.25,0,.65,0,1.13,0s.64.05,1.1.11c0,0,.49.07,1.07.21a10.2,10.2,0,0,1,1,.3,7.94,7.94,0,0,1,1,.4,5.54,5.54,0,0,1,.59.32.34.34,0,0,0-.15-.06,1.32,1.32,0,0,0-.82.19,9.64,9.64,0,0,0-8.75-.08c-2.46,1.37-2.54,3.64-.18,5.06a9.67,9.67,0,0,0,8.75.09c2.46-1.37,2.54-3.64.18-5.07a1.32,1.32,0,0,1,.82-.19.34.34,0,0,1,.15.06c.17.11.41.25.57.38a6.37,6.37,0,0,1,.63.54,4.53,4.53,0,0,1,.84,1.16A3.66,3.66,0,0,1,99,134a4.82,4.82,0,0,1,0,.56,3.31,3.31,0,0,1-.14.66,3.73,3.73,0,0,1-.63,1.2,5.21,5.21,0,0,1-1,1,8.27,8.27,0,0,1-1.58.91,11.77,11.77,0,0,1-1.78.57A11.6,11.6,0,0,1,85.78,137.85Z"/><path class="cls-12" d="M85.78,135.74a5.68,5.68,0,0,1-1.29-1,5.12,5.12,0,0,1-.4-.48,4.22,4.22,0,0,1-.38-.66,2.86,2.86,0,0,1-.23-.66,3.75,3.75,0,0,1-.08-.67c0-.08,0-.36,0-.5a3.68,3.68,0,0,1,.17-.66,3.36,3.36,0,0,1,.31-.66,6,6,0,0,1,.39-.54,6.36,6.36,0,0,1,1.11-1,8.69,8.69,0,0,1,1.35-.74,10.82,10.82,0,0,1,1.78-.57,12.46,12.46,0,0,1,2.26-.29c.25,0,.64,0,1.12,0s.65,0,1.11.11c0,0,.48.07,1.06.21a8.81,8.81,0,0,1,1,.3,8.09,8.09,0,0,1,1,.4l.59.32a.44.44,0,0,0-.16-.06,1.28,1.28,0,0,0-.82.2,9.59,9.59,0,0,0-8.74-.09c-2.47,1.37-2.55,3.64-.18,5.06a9.62,9.62,0,0,0,8.74.09c2.46-1.37,2.55-3.64.18-5.06a1.28,1.28,0,0,1,.82-.2.44.44,0,0,1,.16.06,6.94,6.94,0,0,1,1,.73,4.8,4.8,0,0,1,.77.88,3.59,3.59,0,0,1,.58,1.46,3.3,3.3,0,0,1-.18,1.63,4.24,4.24,0,0,1-1,1.47,5.48,5.48,0,0,1-.58.51c-.17.13-.4.28-.58.39a7.38,7.38,0,0,1-1.23.61,12,12,0,0,1-4.93.75,11.14,11.14,0,0,1-1.67-.2c-.3-.06-.69-.16-1-.24a4.68,4.68,0,0,1-.53-.17A9,9,0,0,1,85.78,135.74Z"/><path class="cls-11" d="M96.3,140.19A11.38,11.38,0,0,1,86,140.08a3.77,3.77,0,0,1-2-2.57c-.17,1.17.5,2.38,2,3.29a11.41,11.41,0,0,0,10.35.1c1.66-.92,2.41-2.19,2.23-3.42A4,4,0,0,1,96.3,140.19Z"/><path class="cls-11" d="M96.3,138A11.41,11.41,0,0,1,86,137.93a3.79,3.79,0,0,1-2-2.57c-.17,1.17.5,2.37,2,3.28a11.38,11.38,0,0,0,10.35.11c1.66-.93,2.41-2.19,2.23-3.42A4,4,0,0,1,96.3,138Z"/><path class="cls-11" d="M96.3,136a11.41,11.41,0,0,1-10.35-.1,3.8,3.8,0,0,1-2-2.58c-.17,1.17.5,2.38,2,3.29a11.41,11.41,0,0,0,10.35.1c1.66-.92,2.41-2.19,2.23-3.42A4,4,0,0,1,96.3,136Z"/><path class="cls-11" d="M96.3,133.92a10.6,10.6,0,0,1-5.1,1A10.34,10.34,0,0,1,86,133.82a3.8,3.8,0,0,1-2-2.58c-.17,1.17.5,2.38,2,3.29a11.41,11.41,0,0,0,10.35.1c1.66-.92,2.41-2.19,2.23-3.42A4,4,0,0,1,96.3,133.92Z"/></g><path class="cls-13" d="M96.7,127.54c2.9,1.76,2.8,4.55-.22,6.24a11.82,11.82,0,0,1-10.74-.11c-2.9-1.75-2.8-4.54.22-6.23A11.79,11.79,0,0,1,96.7,127.54Z"/><path class="cls-13" d="M107.59,108.61A15.9,15.9,0,0,0,91.26,93.52h-.12a15.9,15.9,0,0,0-16.33,15.09c-.36,4.35-.42,8.21,6.74,16.6a9.2,9.2,0,0,1,2.1,5.64c.09,1.13,5.54,1.86,7.57,2,2-.15,7.48-.88,7.57-2a9.15,9.15,0,0,1,2.11-5.64C108.05,116.82,108,113,107.59,108.61Z"/><path class="cls-14" d="M85.9,108.18c-1.05,3.12-3.79,5-6.11,4.23s-3.36-4-2.31-7.07,3.79-5,6.12-4.23S87,105.06,85.9,108.18Z"/><path class="cls-14" d="M89.08,100a1.71,1.71,0,1,1-2.53-1.07A2,2,0,0,1,89.08,100Z"/><path class="cls-11" d="M99.29,110.37l-.05,0v-.07a2.93,2.93,0,0,0-1,1.11,1.93,1.93,0,0,1-.68.76.58.58,0,0,1-.68,0,.92.92,0,0,0-1,.07,2.93,2.93,0,0,0-1,1.11,1.91,1.91,0,0,1-.67.76.6.6,0,0,1-.68,0,.91.91,0,0,0-1,.07,2.91,2.91,0,0,0-1,1.1,1.87,1.87,0,0,1-.67.77.6.6,0,0,1-.68,0,1,1,0,0,0-1,.07,3,3,0,0,0-1,1.11,1.84,1.84,0,0,1-.67.76.58.58,0,0,1-.68,0,1,1,0,0,0-1,.07v.07a.65.65,0,0,0-.08.66l4.94,13.44s0,0,0,0v2.79h.55v-3h0v0h0a.74.74,0,0,0,0-.25l-4.86-13.24a.77.77,0,0,1,.17.07,1,1,0,0,0,1-.07,2.93,2.93,0,0,0,1-1.11,1.84,1.84,0,0,1,.67-.76.6.6,0,0,1,.68,0,1,1,0,0,0,1-.07,2.93,2.93,0,0,0,1-1.11,1.91,1.91,0,0,1,.67-.76.6.6,0,0,1,.68,0,.92.92,0,0,0,1-.06,3.08,3.08,0,0,0,1-1.11,1.87,1.87,0,0,1,.67-.77.62.62,0,0,1,.68,0,.92.92,0,0,0,1-.06,2.87,2.87,0,0,0,1-1.12l.25-.37L94,130.19a1.22,1.22,0,0,0,0,.4v4.56h.55V130l4.85-19.09C99.47,110.58,99.43,110.32,99.29,110.37Z"/><g class="cls-2"><g class="cls-2"><g class="cls-2"><path class="cls-15" d="M66.58,157.31l-3.35-1.95c1.82-1.05,2.5-2.88,1.52-4.07l3.35,2c1,1.18.31,3-1.52,4.07Z"/></g></g><polygon class="cls-16" points="22.88 182.54 19.53 180.59 63.23 155.36 66.58 157.31 22.88 182.54"/><g class="cls-2"><g class="cls-2"><path class="cls-15" d="M21.29,182.85l-3.35-1.95c.33.19.87.11,1.59-.31l3.35,1.95c-.72.42-1.26.5-1.59.31Z"/></g></g><g class="cls-2"><g class="cls-2"><path class="cls-17" d="M21.29,182.85l-3.35-1.95c-.51-.29-.52-1.23.07-2.62l3.35,1.94c-.59,1.4-.57,2.34-.07,2.63Z"/></g></g><g class="cls-2"><g class="cls-2"><path class="cls-15" d="M19.42,186.07l-3.35-1.94a2.14,2.14,0,0,1-.67-.64c-.76-1.16-.63-3.18.38-5.57l3.35,2c-1,2.39-1.14,4.41-.37,5.57a2,2,0,0,0,.66.63Z"/></g></g><polygon class="cls-18" points="68.1 153.24 64.75 151.29 43.04 125.02 46.4 126.97 68.1 153.24"/><g class="cls-2"><g class="cls-2"><path class="cls-15" d="M46.4,127,43,125a1.54,1.54,0,0,0-.41-.36l3.35,2a1.55,1.55,0,0,1,.42.36Z"/></g></g><g class="cls-2"><g class="cls-2"><path class="cls-17" d="M44.61,126.68l-3.35-2a1.33,1.33,0,0,1,1.37-.07l3.35,2a1.31,1.31,0,0,0-1.37.07Z"/></g></g><polygon class="cls-19" points="21.36 180.22 18 178.28 39.48 127.08 42.84 129.02 21.36 180.22"/><path class="cls-20" d="M44.61,126.68a1.3,1.3,0,0,1,1.79.29l21.7,26.27c1,1.18.31,3-1.52,4.07l-43.7,25.23c-1.81,1.05-2.5,0-1.52-2.32L42.84,129A4.78,4.78,0,0,1,44.61,126.68Z"/><g class="cls-2"><g class="cls-2"><path class="cls-17" d="M42.84,129l-3.36-1.94a4.87,4.87,0,0,1,1.78-2.35l3.35,2A4.78,4.78,0,0,0,42.84,129Z"/></g></g><polygon class="cls-21" points="19.13 179.87 15.78 177.92 37.26 126.72 40.61 128.67 19.13 179.87"/><path class="cls-22" d="M70.32,150.31c1,1.23,1.15,3.1.4,5.13a9.62,9.62,0,0,1-4.13,4.9l-43.7,25.23c-1.86,1.08-3.36,1-4.13-.13s-.64-3.18.37-5.57l21.48-51.2a10.47,10.47,0,0,1,4-5c1.58-.91,3-.76,4,.4Zm-3.74,7c1.83-1.05,2.51-2.89,1.52-4.07L46.4,127a1.3,1.3,0,0,0-1.79-.29A4.78,4.78,0,0,0,42.84,129l-21.48,51.2c-1,2.32-.29,3.37,1.52,2.32l43.7-25.23Z"/><g class="cls-2"><g class="cls-2"><path class="cls-15" d="M40.61,128.67l-3.36-1.95a10.48,10.48,0,0,1,4-5,3.15,3.15,0,0,1,3.24-.24l3.36,1.94a3.17,3.17,0,0,0-3.25.25,10.47,10.47,0,0,0-4,5Z"/></g></g></g><polygon class="cls-23" points="50.63 134.68 45.39 151.02 50.51 153.94 38.4 171.74 43.86 157.17 38.75 155.26 50.63 134.68"/><g class="cls-2"><g class="cls-2"><g class="cls-2"><path class="cls-24" d="M357.28,71.13V72.4a.44.44,0,0,0-.24-.32,1,1,0,0,0-.27-.1V70.71a1.09,1.09,0,0,1,.27.11.39.39,0,0,1,.23.31Z"/><path class="cls-25" d="M356.78,70.71V72a1.18,1.18,0,0,0-.27,0,1.12,1.12,0,0,0-.55.13V70.82a1,1,0,0,1,.54-.14,1.27,1.27,0,0,1,.28,0Z"/><path class="cls-24" d="M356,70.82v1.26a.36.36,0,0,0-.22.32V71.13a.37.37,0,0,1,.23-.31Z"/></g></g><g class="cls-2"><g class="cls-2"><path class="cls-24" d="M363.35,72.82v1.27a.41.41,0,0,0-.23-.33,1,1,0,0,0-.26-.09V72.4a.93.93,0,0,1,.25.1.39.39,0,0,1,.23.32Z"/><path class="cls-25" d="M362.87,72.4v1.27a1.2,1.2,0,0,0-.84.09V72.5a1.25,1.25,0,0,1,.84-.1Z"/><polygon class="cls-24" points="362.03 72.5 362.02 73.76 362.02 73.76 362.03 72.5 362.03 72.5 362.03 72.5"/></g></g><g class="cls-2"><g class="cls-2"><path class="cls-26" d="M363.35,72.82v1.27a.38.38,0,0,1-.22.31V73.14a.38.38,0,0,0,.22-.32Z"/></g></g><polygon class="cls-27" points="362.03 72.5 362.02 73.76 357.29 76.51 357.3 75.25 362.03 72.5"/><polygon class="cls-28" points="357.3 75.25 357.29 76.51 357.27 72.4 357.28 71.13 357.3 75.25"/><polygon class="cls-29" points="363.13 73.14 363.13 74.4 358.4 77.15 358.4 75.88 363.13 73.14"/><polygon class="cls-30" points="365.5 75.88 365.5 77.15 358.4 77.15 358.4 75.88 365.5 75.88"/><g class="cls-2"><g class="cls-2"><path class="cls-24" d="M343.49,76v1.26l-.26-.1V75.85a.69.69,0,0,1,.25.1Z"/><path class="cls-25" d="M343.24,75.85v1.26a1.23,1.23,0,0,0-.83.1V76a1.2,1.2,0,0,1,.84-.1Z"/><polygon class="cls-24" points="342.4 75.95 342.4 77.21 342.39 77.21 342.4 75.95 342.4 75.95 342.4 75.95"/></g></g><polygon class="cls-31" points="355.75 76.14 355.75 77.41 355.73 72.4 355.73 71.13 355.75 76.14"/><g class="cls-2"><g class="cls-2"><path class="cls-24" d="M366.28,76.33v1.26a.39.39,0,0,0-.23-.31,1.08,1.08,0,0,0-.27-.1V75.91a1.09,1.09,0,0,1,.27.11.39.39,0,0,1,.23.31Z"/><path class="cls-25" d="M365.78,75.91v1.27a1.27,1.27,0,0,0-.28,0V75.88a1.18,1.18,0,0,1,.27,0Z"/></g></g><g class="cls-2"><g class="cls-2"><path class="cls-26" d="M366.28,76.33V77.6a.39.39,0,0,1-.23.31V76.65a.39.39,0,0,0,.23-.32Z"/><path class="cls-32" d="M366.05,76.65v1.26a1.11,1.11,0,0,1-.54.13V76.78a1.11,1.11,0,0,0,.54-.13Z"/></g></g><polygon class="cls-33" points="365.51 76.78 365.51 78.04 356.85 78.05 356.86 76.78 365.51 76.78"/><polygon class="cls-27" points="342.4 75.95 342.39 77.21 339.44 78.93 339.44 77.66 342.4 75.95"/><polygon class="cls-29" points="356.86 76.78 356.85 78.05 354.54 79.39 354.54 78.13 356.86 76.78"/><polygon class="cls-29" points="342.95 76.9 342.95 78.16 340.24 79.74 340.24 78.47 342.95 76.9"/><polygon class="cls-29" points="340.24 78.47 340.24 79.74 339.47 80.18 339.48 78.92 340.24 78.47"/><g class="cls-2"><g class="cls-2"><path class="cls-24" d="M339.45,77.66v1.27a5.75,5.75,0,0,0-.86-.27V77.39a6.28,6.28,0,0,1,.87.27Z"/><path class="cls-25" d="M338.58,77.39v1.27a6.92,6.92,0,0,0-4.78.55V78a6.93,6.93,0,0,1,4.78-.56Z"/><path class="cls-24" d="M333.8,78v1.26h0A2.17,2.17,0,0,0,332.51,81V79.75a2.22,2.22,0,0,1,1.28-1.8Z"/></g></g><polygon class="cls-26" points="339.48 78.92 339.47 80.18 339.12 79.94 339.12 78.68 339.48 78.92"/><polygon class="cls-27" points="355.75 76.14 355.75 77.41 349.81 80.86 349.81 79.6 355.75 76.14"/><polygon class="cls-34" points="349.81 79.6 349.81 80.86 343.49 77.21 343.49 75.95 349.81 79.6"/><g class="cls-2"><g class="cls-2"><path class="cls-26" d="M339.12,78.68v1.26l-.15-.09a3.91,3.91,0,0,0-1-.37V78.22a3.42,3.42,0,0,1,1,.37l.14.09Z"/><path class="cls-32" d="M338,78.22v1.26a4.55,4.55,0,0,0-3.13.36V78.58a4.5,4.5,0,0,1,3.13-.36Z"/><path class="cls-26" d="M334.88,78.58v1.26h0A1.42,1.42,0,0,0,334,81V79.76a1.44,1.44,0,0,1,.84-1.18Z"/></g></g><polygon class="cls-29" points="353.45 78.76 353.44 80.03 350.91 81.5 350.92 80.23 353.45 78.76"/><g class="cls-2"><g class="cls-2"><path class="cls-25" d="M332.6,80.26v1.26a6.67,6.67,0,0,0-4,.7V81a6.79,6.79,0,0,1,4-.69Z"/><path class="cls-24" d="M328.63,81v1.27h0a2.19,2.19,0,0,0-1.28,1.8V82.75A2.18,2.18,0,0,1,328.62,81Z"/></g></g><g class="cls-2"><g class="cls-2"><path class="cls-24" d="M335.05,81v1.27l-.17-.09A1.44,1.44,0,0,1,334,81V79.76a1.46,1.46,0,0,0,.86,1.19.83.83,0,0,0,.16.09Z"/></g></g><polygon class="cls-35" points="335.46 81.25 335.46 82.51 335.05 82.31 335.05 81.04 335.46 81.25"/><polygon class="cls-29" points="335.46 81.25 335.46 82.51 334.39 83.14 334.39 81.88 335.46 81.25"/><polygon class="cls-36" points="334.39 81.88 334.39 83.14 333.99 82.97 333.99 81.7 334.39 81.88"/><g class="cls-2"><g class="cls-2"><path class="cls-24" d="M328.63,81v1.27h0a2.19,2.19,0,0,0-1.28,1.8V82.75A2.18,2.18,0,0,1,328.62,81Z"/></g></g><g class="cls-2"><g class="cls-2"><path class="cls-26" d="M334,81.7V83a1.36,1.36,0,0,0-.18-.12,3.25,3.25,0,0,0-1-.37V81.22a3.81,3.81,0,0,1,1,.36l.18.12Z"/><path class="cls-32" d="M332.85,81.22v1.26a4.57,4.57,0,0,0-3.13.36V81.58a4.53,4.53,0,0,1,3.14-.36Z"/><path class="cls-26" d="M329.71,81.58v1.26h0a1.43,1.43,0,0,0-.83,1.18V82.76a1.45,1.45,0,0,1,.84-1.18Z"/></g></g><g class="cls-2"><g class="cls-2"><path class="cls-26" d="M327.43,83.26v1.27a1.52,1.52,0,0,1-.09-.51V82.75a1.3,1.3,0,0,0,.08.51Z"/></g></g><polygon class="cls-34" points="356.68 83.56 356.67 84.82 350.91 81.5 350.92 80.23 356.68 83.56"/><g class="cls-2"><g class="cls-2"><path class="cls-24" d="M356.91,83.88v1.26a.39.39,0,0,0-.23-.32V83.56a.39.39,0,0,1,.23.32Z"/></g></g><polygon class="cls-37" points="355.04 83.88 355.03 85.14 342.95 78.16 342.95 76.9 355.04 83.88"/><g class="cls-2"><g class="cls-2"><path class="cls-24" d="M329.88,84.05v1.26l-.17-.09a1.44,1.44,0,0,1-.84-1.19V82.76a1.43,1.43,0,0,0,.84,1.19l.17.1Z"/></g></g><g class="cls-2"><g class="cls-2"><path class="cls-26" d="M356.91,83.88v1.26a.38.38,0,0,1-.22.32V84.19a.38.38,0,0,0,.23-.31Z"/></g></g><polygon class="cls-35" points="330.31 84.25 330.3 85.51 329.88 85.31 329.88 84.05 330.31 84.25"/><polygon class="cls-29" points="330.31 84.25 330.3 85.51 329.22 86.14 329.22 84.88 330.31 84.25"/><polygon class="cls-36" points="329.22 84.88 329.22 86.14 328.81 85.97 328.82 84.7 329.22 84.88"/><g class="cls-2"><g class="cls-2"><path class="cls-25" d="M327.43,83.26v1.27a6.7,6.7,0,0,0-4,.69V84a6.74,6.74,0,0,1,4-.69Z"/><path class="cls-24" d="M323.47,84v1.27h0a2.2,2.2,0,0,0-1.28,1.8V85.76a2.2,2.2,0,0,1,1.29-1.8Z"/></g></g><g class="cls-2"><g class="cls-2"><path class="cls-26" d="M328.82,84.7V86l-.19-.12a3.53,3.53,0,0,0-.94-.36V84.21a3.61,3.61,0,0,1,.95.37l.19.12Z"/><path class="cls-32" d="M327.68,84.21v1.27a4.53,4.53,0,0,0-3.14.37V84.58a4.56,4.56,0,0,1,3.13-.37Z"/><path class="cls-26" d="M324.55,84.58v1.27h0A1.44,1.44,0,0,0,323.7,87V85.76a1.42,1.42,0,0,1,.84-1.17Z"/></g></g><g class="cls-2"><g class="cls-2"><path class="cls-24" d="M324.72,87v1.27l-.17-.09A1.44,1.44,0,0,1,323.7,87V85.76a1.44,1.44,0,0,0,.85,1.2l.17.08Z"/></g></g><g class="cls-2"><g class="cls-2"><path class="cls-26" d="M323,87.24V88.5a1.92,1.92,0,0,1-.8-1.48V85.76a2,2,0,0,0,.8,1.48Z"/></g></g><polygon class="cls-35" points="325.13 87.25 325.13 88.51 324.72 88.31 324.72 87.05 325.13 87.25"/><polygon class="cls-29" points="325.13 87.25 325.13 88.51 324.55 88.86 324.55 87.59 325.13 87.25"/><polygon class="cls-37" points="369.71 88.15 369.7 89.42 353.44 80.03 353.45 78.76 369.71 88.15"/><g class="cls-2"><g class="cls-2"><path class="cls-24" d="M343.51,87.77V89a.67.67,0,0,0-.26-.1V87.67a1.17,1.17,0,0,1,.26.1Z"/><path class="cls-25" d="M343.25,87.67v1.27a1.18,1.18,0,0,0-.83.09V87.77a1.26,1.26,0,0,1,.84-.1Z"/><path class="cls-24" d="M342.41,87.77V89h0a.38.38,0,0,0-.23.31V88.09a.38.38,0,0,1,.22-.32Z"/></g></g><g class="cls-2"><g class="cls-2"><path class="cls-26" d="M342.41,88.41v1.26a.39.39,0,0,1-.23-.32V88.09a.39.39,0,0,0,.22.32Z"/></g></g><polygon class="cls-27" points="322.97 87.24 322.97 88.5 320.19 90.12 320.19 88.85 322.97 87.24"/><polygon class="cls-34" points="345.93 89.17 345.92 90.43 343.5 89.04 343.51 87.77 345.93 89.17"/><polygon class="cls-27" points="355.04 83.88 355.03 85.14 345.92 90.43 345.93 89.17 355.04 83.88"/><polygon class="cls-29" points="324.55 87.59 324.55 88.86 321.83 90.43 321.84 89.17 324.55 87.59"/><g class="cls-2"><g class="cls-2"><path class="cls-24" d="M320.19,88.85v1.27a.38.38,0,0,0-.23.31V89.17a.38.38,0,0,1,.22-.32Z"/></g></g><g class="cls-2"><g class="cls-2"><path class="cls-24" d="M341.48,89v1.26a1,1,0,0,0-.26-.1V88.85a.69.69,0,0,1,.25.1Z"/><path class="cls-25" d="M341.23,88.85v1.26a1.23,1.23,0,0,0-.83.1V89a1.15,1.15,0,0,1,.84-.1Z"/><path class="cls-24" d="M340.39,89v1.26h0a.38.38,0,0,0-.22.32V89.26a.38.38,0,0,1,.23-.31Z"/></g></g><polygon class="cls-34" points="374.12 89.43 374.12 90.69 354.54 79.39 354.54 78.13 374.12 89.43"/><polygon class="cls-38" points="378.68 89.62 378.68 90.89 374.12 90.69 374.12 89.43 378.68 89.62"/><g class="cls-2"><g class="cls-2"><path class="cls-26" d="M320.19,89.49v1.26a.39.39,0,0,1-.23-.32V89.17a.39.39,0,0,0,.22.32Z"/></g></g><g class="cls-2"><g class="cls-2"><path class="cls-26" d="M340.39,89.58v1.27a.41.41,0,0,1-.23-.32V89.26a.39.39,0,0,0,.23.32Z"/></g></g><polygon class="cls-29" points="356.68 84.19 356.68 85.46 347.02 91.07 347.03 89.8 356.68 84.19"/><g class="cls-2"><g class="cls-2"><path class="cls-24" d="M379.4,90.07v1.26a.38.38,0,0,0-.24-.31.67.67,0,0,0-.26-.1V89.65a1.08,1.08,0,0,1,.27.1.4.4,0,0,1,.23.32Z"/><path class="cls-25" d="M378.9,89.65v1.27a.83.83,0,0,0-.22,0V89.62a.78.78,0,0,1,.22,0Z"/></g></g><g class="cls-2"><g class="cls-2"><path class="cls-26" d="M379.4,90.07v1.26a0,0,0,0,1,0,0V90.07Z"/></g></g><polygon class="cls-37" points="373.23 90.18 373.22 91.45 370.8 90.05 370.81 88.79 373.23 90.18"/><g class="cls-2"><g class="cls-2"><path class="cls-32" d="M373.72,90.32v1.26l-.28,0V90.26l.27.06Z"/><path class="cls-26" d="M373.45,90.26v1.27a1.2,1.2,0,0,1-.22-.08V90.18a.56.56,0,0,0,.22.08Z"/></g></g><polygon class="cls-39" points="378.57 90.52 378.57 91.78 373.72 91.58 373.72 90.32 378.57 90.52"/><g class="cls-2"><g class="cls-2"><path class="cls-26" d="M379.4,90.1v1.26a.38.38,0,0,1-.22.29V90.39a.4.4,0,0,0,.23-.29Z"/><path class="cls-32" d="M379.17,90.39v1.26l0,0a1.12,1.12,0,0,1-.56.11V90.52a1.36,1.36,0,0,0,.56-.11l0,0Z"/></g></g><polygon class="cls-34" points="349.45 91.2 349.44 92.47 347.02 91.07 347.03 89.8 349.45 91.2"/><polygon class="cls-37" points="348.36 91.84 348.35 93.1 342.41 89.67 342.41 88.41 348.36 91.84"/><polygon class="cls-34" points="347.43 92.38 347.42 93.64 341.48 90.21 341.48 88.95 347.43 92.38"/><polygon class="cls-37" points="342.81 90.98 342.81 92.24 340.39 90.85 340.39 89.58 342.81 90.98"/><g class="cls-2"><g class="cls-2"><path class="cls-24" d="M377.26,91.24V92.5a.92.92,0,0,0-.25-.09V91.14a1,1,0,0,1,.26.1Z"/><path class="cls-25" d="M377,91.14v1.27a1.18,1.18,0,0,0-.85.1V91.24a1.26,1.26,0,0,1,.84-.1Z"/><path class="cls-24" d="M376.16,91.24v1.27h0a.37.37,0,0,0-.22.31V91.56a.39.39,0,0,1,.23-.32Z"/></g></g><g class="cls-2"><g class="cls-2"><path class="cls-24" d="M376.16,91.24v1.27h0a.37.37,0,0,0-.22.31V91.56a.39.39,0,0,1,.23-.32Z"/></g></g><g class="cls-2"><g class="cls-2"><path class="cls-24" d="M349.68,91.52v1.27c0-.12-.07-.23-.22-.32V91.2a.41.41,0,0,1,.23.32Z"/></g></g><g class="cls-2"><g class="cls-2"><path class="cls-26" d="M376.16,91.88v1.26a.37.37,0,0,1-.23-.32V91.56a.41.41,0,0,0,.23.32Z"/></g></g><g class="cls-2"><g class="cls-2"><path class="cls-26" d="M349.68,91.52v1.27a.38.38,0,0,1-.22.31h0V91.84h0a.39.39,0,0,0,.23-.32Z"/><path class="cls-32" d="M349.45,91.84V93.1a1.2,1.2,0,0,1-.84.1V91.94a1.25,1.25,0,0,0,.84-.1Z"/><path class="cls-26" d="M348.61,91.94V93.2a.82.82,0,0,1-.26-.1V91.84a1.45,1.45,0,0,0,.25.1Z"/></g></g><g class="cls-2"><g class="cls-2"><path class="cls-24" d="M359.68,92.52v1.26l-.26-.1V92.42a.69.69,0,0,1,.25.1Z"/><path class="cls-25" d="M359.43,92.42v1.26a1.23,1.23,0,0,0-.83.1V92.52a1.2,1.2,0,0,1,.84-.1Z"/><polygon class="cls-24" points="358.59 92.52 358.59 93.78 358.59 93.78 358.59 92.52 358.59 92.52 358.59 92.52"/></g></g><g class="cls-2"><g class="cls-2"><path class="cls-24" d="M347.66,92.7V94a.39.39,0,0,0-.23-.32V92.38a.39.39,0,0,1,.23.32Z"/></g></g><polygon class="cls-34" points="327.9 92.67 327.9 93.94 321.83 90.43 321.84 89.17 327.9 92.67"/><g class="cls-2"><g class="cls-2"><path class="cls-24" d="M328.41,93v1.26a.4.4,0,0,0-.18-.19A.83.83,0,0,0,328,94V92.69a.73.73,0,0,1,.22.09.36.36,0,0,1,.18.19Z"/><path class="cls-25" d="M328,92.69V94l-.11,0V92.67l.11,0Z"/></g></g><polygon class="cls-37" points="346.33 93.01 346.33 94.28 343.91 92.88 343.91 91.61 346.33 93.01"/><g class="cls-2"><g class="cls-2"><path class="cls-24" d="M328.41,93v1.26a.4.4,0,0,0-.18-.19A.83.83,0,0,0,328,94V92.69a.73.73,0,0,1,.22.09.36.36,0,0,1,.18.19Z"/></g></g><g class="cls-2"><g class="cls-2"><path class="cls-26" d="M347.66,92.7V94a.38.38,0,0,1-.22.32h0V93h0a.39.39,0,0,0,.23-.31Z"/><path class="cls-32" d="M347.43,93v1.27a1.17,1.17,0,0,1-.83.09V93.11a1.2,1.2,0,0,0,.84-.1Z"/><path class="cls-26" d="M346.59,93.11v1.26a1,1,0,0,1-.26-.09V93a.82.82,0,0,0,.26.1Z"/></g></g><polygon class="cls-37" points="326.51 93.14 326.51 94.4 320.19 90.75 320.19 89.49 326.51 93.14"/><polygon class="cls-34" points="360.94 93.24 360.94 94.51 359.68 93.78 359.69 92.52 360.94 93.24"/><polygon class="cls-27" points="369.71 88.15 369.7 89.42 360.94 94.51 360.94 93.24 369.71 88.15"/><polygon class="cls-34" points="381.01 93.41 381.01 94.67 377.25 92.5 377.26 91.24 381.01 93.41"/><g class="cls-2"><g class="cls-2"><path class="cls-24" d="M381.24,93.73V95a.38.38,0,0,0-.22-.32V93.41a.38.38,0,0,1,.23.32Z"/></g></g><polygon class="cls-37" points="379.36 93.73 379.36 94.99 376.16 93.14 376.16 91.88 379.36 93.73"/><polygon class="cls-29" points="370.81 88.79 370.8 90.05 362.04 95.14 362.04 93.88 370.81 88.79"/><g class="cls-2"><g class="cls-2"><path class="cls-26" d="M381.24,93.73V95a.38.38,0,0,1-.22.32V94a.38.38,0,0,0,.23-.31Z"/></g></g><polygon class="cls-34" points="363.31 94.61 363.3 95.87 362.04 95.14 362.04 93.88 363.31 94.61"/><g class="cls-2"><g class="cls-2"><path class="cls-24" d="M363.53,94.93v1.26a.41.41,0,0,0-.23-.32V94.61a.38.38,0,0,1,.22.32Z"/></g></g><polygon class="cls-37" points="361.66 94.92 361.66 96.19 359.14 94.73 359.14 93.47 361.66 94.92"/><g class="cls-2"><g class="cls-2"><path class="cls-26" d="M363.53,94.93v1.26a.4.4,0,0,1-.22.32V95.24a.37.37,0,0,0,.22-.31Z"/></g></g><polygon class="cls-27" points="342.81 90.98 342.81 92.24 333.92 97.41 333.92 96.15 342.81 90.98"/><polygon class="cls-34" points="333.92 96.15 333.92 97.41 328.41 94.23 328.41 92.97 333.92 96.15"/><polygon class="cls-27" points="326.51 93.14 326.51 94.4 320.97 97.62 320.97 96.36 326.51 93.14"/><polygon class="cls-29" points="327.62 93.77 327.62 95.04 322.62 97.94 322.62 96.68 327.62 93.77"/><g class="cls-2"><g class="cls-2"><path class="cls-24" d="M321,96.36v1.26a.39.39,0,0,0-.23.32V96.67a.37.37,0,0,1,.22-.31Z"/></g></g><g class="cls-2"><g class="cls-2"><path class="cls-26" d="M321,97v1.27a.43.43,0,0,1-.25-.35V96.67c0,.12.08.24.26.34Z"/></g></g><polygon class="cls-29" points="343.91 91.61 343.91 92.88 334.47 98.36 334.48 97.1 343.91 91.61"/><polygon class="cls-37" points="333.38 97.1 333.38 98.36 327.62 95.04 327.62 93.77 333.38 97.1"/><g class="cls-2"><g class="cls-2"><polygon class="cls-26" points="334.48 97.1 334.47 98.36 334.47 98.36 334.47 97.1 334.48 97.1 334.48 97.1"/><path class="cls-32" d="M334.47,97.1v1.26a1.2,1.2,0,0,1-.84.1V97.2a1.23,1.23,0,0,0,.83-.1Z"/><path class="cls-26" d="M333.64,97.2v1.26a.69.69,0,0,1-.25-.1V97.1a1,1,0,0,0,.26.1Z"/></g></g><polygon class="cls-27" points="358.59 92.52 358.58 93.78 348.68 99.54 348.68 98.28 358.59 92.52"/><polygon class="cls-29" points="359.14 93.47 359.14 94.73 350.32 99.86 350.32 98.59 359.14 93.47"/><g class="cls-2"><g class="cls-2"><path class="cls-24" d="M348.68,98.28v1.26a.39.39,0,0,0-.23.32V98.59a.38.38,0,0,1,.23-.31Z"/></g></g><g class="cls-2"><g class="cls-2"><path class="cls-26" d="M348.68,98.91v1.27a.41.41,0,0,1-.23-.32V98.59a.39.39,0,0,0,.23.32Z"/></g></g><polygon class="cls-37" points="349.94 99.64 349.94 100.9 348.68 100.18 348.68 98.91 349.94 99.64"/><polygon class="cls-27" points="361.66 94.92 361.66 96.19 352.84 101.31 352.85 100.05 361.66 94.92"/><polygon class="cls-34" points="352.85 100.05 352.84 101.31 350.32 99.86 350.32 98.59 352.85 100.05"/><g class="cls-2"><g class="cls-2"><path class="cls-24" d="M367.28,100.13v1.26a.88.88,0,0,0-.26-.1V100a.82.82,0,0,1,.26.1Z"/><path class="cls-25" d="M367,100v1.26a1.23,1.23,0,0,0-.83.1v-1.26a1.2,1.2,0,0,1,.84-.1Z"/><polygon class="cls-24" points="366.18 100.13 366.18 101.39 366.18 101.39 366.18 100.13 366.18 100.13 366.18 100.13"/></g></g><polygon class="cls-27" points="379.36 93.73 379.36 94.99 367.81 101.7 367.82 100.44 379.36 93.73"/><polygon class="cls-34" points="367.82 100.44 367.81 101.7 367.27 101.39 367.28 100.13 367.82 100.44"/><polygon class="cls-29" points="363.31 95.24 363.31 96.51 353.39 102.27 353.4 101 363.31 95.24"/><polygon class="cls-37" points="352.3 101 352.3 102.27 351.04 101.54 351.04 100.27 352.3 101"/><polygon class="cls-29" points="381.01 94.05 381.01 95.31 368.91 102.34 368.92 101.07 381.01 94.05"/><g class="cls-2"><g class="cls-2"><polygon class="cls-26" points="353.4 101 353.39 102.27 353.39 102.27 353.4 101 353.4 101 353.4 101"/><path class="cls-32" d="M353.4,101v1.27a1.2,1.2,0,0,1-.84.09V101.1a1.2,1.2,0,0,0,.84-.1Z"/><path class="cls-26" d="M352.56,101.1v1.26a.92.92,0,0,1-.25-.09V101a.82.82,0,0,0,.26.1Z"/></g></g><polygon class="cls-34" points="369.34 101.32 369.33 102.58 368.91 102.34 368.92 101.07 369.34 101.32"/><polygon class="cls-37" points="367.69 101.63 367.69 102.9 366.73 102.34 366.73 101.08 367.69 101.63"/><g class="cls-2"><g class="cls-2"><path class="cls-24" d="M369.56,101.64v1.27a.37.37,0,0,0-.22-.33v-1.26a.38.38,0,0,1,.22.32Z"/></g></g><g class="cls-2"><g class="cls-2"><path class="cls-26" d="M369.56,101.64v0Z"/></g></g><polygon class="cls-27" points="366.18 100.13 366.18 101.39 361.84 103.91 361.84 102.65 366.18 100.13"/><polygon class="cls-40" points="376.74 102.79 376.74 104.06 369.55 102.94 369.56 101.68 376.74 102.79"/><g class="cls-2"><g class="cls-2"><path class="cls-24" d="M377.32,103.23v1.26a.5.5,0,0,0,0-.12.58.58,0,0,0-.21-.2,1.18,1.18,0,0,0-.25-.1v-1.26a.77.77,0,0,1,.25.1.48.48,0,0,1,.2.2.27.27,0,0,1,0,.12Z"/><path class="cls-25" d="M376.84,102.81v1.26h-.09v-1.27l.1,0Z"/></g></g><polygon class="cls-29" points="366.73 101.08 366.73 102.34 363.48 104.23 363.49 102.97 366.73 101.08"/><g class="cls-2"><g class="cls-2"><path class="cls-24" d="M361.84,102.65v1.26a.39.39,0,0,0-.23.32V103a.39.39,0,0,1,.23-.31Z"/></g></g><g class="cls-2"><g class="cls-2"><path class="cls-24" d="M377.32,103.23v1.26a.5.5,0,0,0,0-.12.58.58,0,0,0-.21-.2,1.18,1.18,0,0,0-.25-.1v-1.26a.77.77,0,0,1,.25.1.48.48,0,0,1,.2.2.27.27,0,0,1,0,.12Z"/></g></g><g class="cls-2"><g class="cls-2"><path class="cls-26" d="M361.84,103.28v1.27a.41.41,0,0,1-.23-.32V103a.39.39,0,0,0,.23.32Z"/></g></g><polygon class="cls-41" points="375.04 103.46 375.04 104.72 368.59 103.72 368.6 102.46 375.04 103.46"/><g class="cls-2"><g class="cls-2"><path class="cls-26" d="M377.32,103.23v1.26a.38.38,0,0,1-.22.32v-1.27a.37.37,0,0,0,.23-.31Z"/></g></g><polygon class="cls-34" points="364.45 103.52 364.44 104.79 363.48 104.23 363.49 102.97 364.45 103.52"/><polygon class="cls-27" points="367.69 101.63 367.69 102.9 364.44 104.79 364.45 103.52 367.69 101.63"/><polygon class="cls-37" points="362.38 103.59 362.38 104.86 361.84 104.55 361.84 103.28 362.38 103.59"/><polygon class="cls-29" points="368.6 102.46 368.59 103.72 365.87 105.31 365.87 104.04 368.6 102.46"/><polygon class="cls-27" points="349.94 99.64 349.94 100.9 338.88 107.33 338.88 106.07 349.94 99.64"/><path class="cls-7" d="M348.68,98.28c-.3.17-.3.45,0,.63l1.26.73-11.06,6.43-16.26-9.39,5-2.91,5.76,3.33a1.2,1.2,0,0,0,1.09,0l9.44-5.49,2.42,1.4a1.19,1.19,0,0,0,1.1,0c.31-.17.3-.46,0-.63L341.48,89a1.17,1.17,0,0,0-1.09,0,.33.33,0,0,0,0,.63l2.42,1.4-8.89,5.17L328.41,93a.36.36,0,0,0-.18-.19.86.86,0,0,0-.33-.11l-6.06-3.5,2.7-1.57.59-.35-.41-.21-.17-.08c-1.13-.66-1.14-1.72,0-2.37a4.47,4.47,0,0,1,4.09,0l.16.1.43.2,1.09-.63-.43-.2-.17-.1a1.26,1.26,0,0,1,0-2.37,4.55,4.55,0,0,1,4.1,0l.15.1.43.19,1.07-.62-.41-.21a.83.83,0,0,1-.16-.09,1.25,1.25,0,0,1,0-2.37,4.58,4.58,0,0,1,4.11,0l.14.09.36.24.75-.44L343,76.9l12.09,7-9.11,5.29-2.42-1.4a1.22,1.22,0,0,0-1.1,0,.34.34,0,0,0,0,.64l5.95,3.43a1.23,1.23,0,0,0,1.09,0c.31-.18.3-.46,0-.64L347,89.8l9.65-5.61c.3-.17.3-.45,0-.63l-5.76-3.33,2.53-1.47,16.26,9.39-8.77,5.09-1.26-.72a1.17,1.17,0,0,0-1.09,0Z"/><polygon class="cls-34" points="338.88 106.07 338.88 107.33 322.62 97.94 322.62 96.68 338.88 106.07"/><polygon class="cls-29" points="351.04 100.27 351.04 101.54 339.98 107.97 339.98 106.7 351.04 100.27"/><polygon class="cls-7" points="365.87 104.04 368.6 102.46 375.04 103.46 367.62 107.77 365.87 104.04"/><polygon class="cls-27" points="375.04 103.46 375.04 104.72 367.62 109.03 367.62 107.77 375.04 103.46"/><polygon class="cls-42" points="367.62 107.77 367.62 109.03 365.87 105.31 365.87 104.04 367.62 107.77"/><polygon class="cls-27" points="362.38 103.59 362.38 104.86 348.53 112.91 348.54 111.64 362.38 103.59"/><polygon class="cls-34" points="348.54 111.64 348.53 112.91 339.98 107.97 339.98 106.7 348.54 111.64"/><polygon class="cls-37" points="347.44 112.28 347.44 113.54 321 98.28 321.01 97.01 347.44 112.28"/><g class="cls-2"><g class="cls-2"><path class="cls-24" d="M343.25,113.12v1.26a1,1,0,0,0-.26-.1V113a.69.69,0,0,1,.25.1Z"/><path class="cls-25" d="M343,113v1.26a1.23,1.23,0,0,0-.83.1v-1.26a1.15,1.15,0,0,1,.84-.1Z"/><path class="cls-24" d="M342.16,113.12v1.26h0a.38.38,0,0,0-.22.32v-1.27a.38.38,0,0,1,.23-.31Z"/></g></g><g class="cls-2"><g class="cls-2"><path class="cls-24" d="M342.16,113.12v1.26h0a.38.38,0,0,0-.22.32v-1.27a.38.38,0,0,1,.23-.31Z"/></g></g><g class="cls-2"><g class="cls-2"><path class="cls-26" d="M342.16,113.75V115a.41.41,0,0,1-.23-.32v-1.27a.39.39,0,0,0,.23.32Z"/></g></g><polygon class="cls-27" points="347.44 112.28 347.44 113.54 344.63 115.18 344.63 113.91 347.44 112.28"/><polygon class="cls-34" points="344.63 113.91 344.63 115.18 343.25 114.38 343.25 113.12 344.63 113.91"/><polygon class="cls-29" points="363.48 104.23 363.48 105.5 345.73 115.81 345.73 114.55 363.48 104.23"/><polygon class="cls-34" points="347.11 115.34 347.1 116.61 345.73 115.81 345.73 114.55 347.11 115.34"/><g class="cls-2"><g class="cls-2"><path class="cls-24" d="M347.34,115.66v1.27a.36.36,0,0,0-.23-.32v-1.27a.41.41,0,0,1,.23.32Z"/></g></g><g class="cls-2"><g class="cls-2"><path class="cls-26" d="M347.34,115.66v1.27a.38.38,0,0,1-.22.31h0V116h0a.39.39,0,0,0,.23-.32Z"/><path class="cls-32" d="M347.11,116v1.26a1.23,1.23,0,0,1-.83.1v-1.27a1.2,1.2,0,0,0,.84-.09Z"/><path class="cls-26" d="M346.27,116.07v1.27a1,1,0,0,1-.26-.1V116a1.14,1.14,0,0,0,.26.09Z"/></g></g><path class="cls-43" d="M377.29,103.11c.07.15,0,.32-.2.43L367.77,109a1.2,1.2,0,0,1-.74.11,1.17,1.17,0,0,1-.36-.11.51.51,0,0,1-.19-.2l-2-4.16a1.19,1.19,0,0,1-.63-.13l-.42-.24-17.75,10.32,1.38.79c.3.18.31.46,0,.64a1.25,1.25,0,0,1-1.1,0l-3.85-2.23a.33.33,0,0,1,0-.63,1.17,1.17,0,0,1,1.09,0l1.38.79,2.81-1.63L321,97c-.34-.19-.34-.48,0-.65l5.54-3.22-6.32-3.65a.34.34,0,0,1,0-.64L323,87.24c-1.21-1-1.05-2.39.49-3.28a6.68,6.68,0,0,1,4-.7,2,2,0,0,1,1.19-2.3,6.73,6.73,0,0,1,4-.7c-.29-.83.15-1.7,1.19-2.31a7.08,7.08,0,0,1,5.66-.29L342.39,76a1.19,1.19,0,0,1,1.1,0l6.32,3.65,5.94-3.46,0-5c0-.24.34-.44.77-.45a1.18,1.18,0,0,1,.55.14.39.39,0,0,1,.23.31l0,4.12L362,72.5a1.17,1.17,0,0,1,1.09,0c.31.18.31.46,0,.64l-4.73,2.74h7.11a1,1,0,0,1,.54.14.39.39,0,0,1,.23.31c0,.25-.35.45-.77.45h-8.65l-2.32,1.35,19.58,11.3,4.56.19a1.22,1.22,0,0,1,.49.13.38.38,0,0,1,.23.35.42.42,0,0,1-.27.31,1.36,1.36,0,0,1-.56.11l-4.85-.2a1.35,1.35,0,0,1-.49-.14l-2.42-1.39L362,93.88l1.27.73a.33.33,0,0,1,0,.63L353.4,101a1.19,1.19,0,0,1-1.1,0l-1.26-.73L340,106.7l8.56,4.94,13.84-8-.54-.32a.33.33,0,0,1,0-.63l4.34-2.52a1.19,1.19,0,0,1,1.1,0l.54.31,11.54-6.71-3.2-1.85a.34.34,0,0,1,0-.64,1.25,1.25,0,0,1,1.1,0L381,93.41a.33.33,0,0,1,0,.63l-12.09,7,.42.25a.38.38,0,0,1,.22.36l7.18,1.11a1,1,0,0,1,.35.12A.48.48,0,0,1,377.29,103.11Zm-38.41,3,11.06-6.43-1.26-.73c-.3-.18-.3-.46,0-.63l9.91-5.76a1.17,1.17,0,0,1,1.09,0l1.26.72,8.77-5.09-16.26-9.39-2.53,1.47,5.76,3.33c.3.18.3.46,0,.63L347,89.8l2.42,1.4c.3.18.31.46,0,.64a1.23,1.23,0,0,1-1.09,0l-5.95-3.43a.34.34,0,0,1,0-.64,1.22,1.22,0,0,1,1.1,0l2.42,1.4L355,83.88,343,76.9l-2.71,1.57-.76.45-.36-.24-.14-.09a4.58,4.58,0,0,0-4.11,0,1.25,1.25,0,0,0,0,2.37.83.83,0,0,0,.16.09l.41.21-1.07.62-.4-.17-.18-.12a4.55,4.55,0,0,0-4.1,0,1.26,1.26,0,0,0,0,2.37l.17.1.43.2-1.09.63-.4-.18-.19-.12a4.47,4.47,0,0,0-4.09,0c-1.13.65-1.12,1.71,0,2.37l.17.08.41.21-.58.34-2.71,1.58,6.06,3.5a.86.86,0,0,1,.33.11.36.36,0,0,1,.18.19l5.51,3.18L342.81,91l-2.42-1.4a.33.33,0,0,1,0-.63,1.17,1.17,0,0,1,1.09,0l5.95,3.43c.3.17.31.46,0,.63a1.19,1.19,0,0,1-1.1,0l-2.42-1.4-9.44,5.49a1.2,1.2,0,0,1-1.09,0l-5.76-3.33-5,2.91,16.26,9.39Zm28.74,1.7,7.42-4.31-6.44-1L365.87,104l1.75,3.73Zm-6-12.84-2.52-1.46-8.82,5.12,2.53,1.46,8.81-5.12Zm2.79,8.59,3.24-1.89-1-.55L363.49,103l1,.55Z"/><polygon class="cls-7" points="363.49 102.97 366.73 101.08 367.69 101.63 364.45 103.52 363.49 102.97"/><polygon class="cls-37" points="363.9 104.47 363.9 105.74 363.48 105.5 363.48 104.23 363.9 104.47"/><g class="cls-2"><g class="cls-2"><path class="cls-32" d="M364.53,104.6v1.26a1.2,1.2,0,0,1-.38,0v-1.26a2.34,2.34,0,0,0,.38,0Z"/><path class="cls-26" d="M364.15,104.57v1.26a1,1,0,0,1-.24-.09v-1.27a.77.77,0,0,0,.25.1Z"/></g></g><polygon class="cls-10" points="366.48 108.76 366.47 110.02 364.52 105.86 364.53 104.6 366.48 108.76"/><polygon class="cls-29" points="377.09 103.54 377.09 104.81 367.77 110.22 367.77 108.96 377.09 103.54"/><g class="cls-2"><g class="cls-2"><polygon class="cls-26" points="367.77 108.96 367.77 110.22 367.77 110.22 367.77 108.96 367.77 108.96 367.77 108.96"/><path class="cls-32" d="M367.77,109v1.27a1.24,1.24,0,0,1-.75.11l-.09,0v-1.26h.1a1.2,1.2,0,0,0,.74-.11Z"/><path class="cls-26" d="M366.93,109.06v1.26a1,1,0,0,1-.26-.1.48.48,0,0,1-.2-.2v-1.26a.51.51,0,0,0,.19.2l.26.1Z"/></g></g><polygon class="cls-37" points="346.01 115.98 346.01 117.24 342.16 115.02 342.16 113.75 346.01 115.98"/><path class="cls-7" d="M352,64.08,302,93.19l50.41,29.1,50.09-29.1Zm29.17,29.77-.06.08A.53.53,0,0,1,381,94l-7.65,4.45-4.44,2.58.42.25a.61.61,0,0,1,.15.12.41.41,0,0,1,.05.09.39.39,0,0,1,0,.15l7.18,1.11a1,1,0,0,1,.35.12l.06,0a.42.42,0,0,1,.14.16.31.31,0,0,1-.13.39l-.07,0L367.77,109l-.07,0a1.19,1.19,0,0,1-.47.09l-.2,0a1.17,1.17,0,0,1-.36-.11.87.87,0,0,1-.14-.12l0-.08-2-4.16h-.25l-.24,0-.07,0-.07,0-.42-.24-17.75,10.32,1.38.79c.3.18.31.46,0,.64a1.17,1.17,0,0,1-.4.12h-.15A1.24,1.24,0,0,1,346,116l-3.85-2.23-.1-.07a.27.27,0,0,1-.07-.08.05.05,0,0,1,0,0,.11.11,0,0,1,0-.08.14.14,0,0,1,0-.09.39.39,0,0,1,.16-.24l.06,0a.69.69,0,0,1,.25-.1,1.53,1.53,0,0,1,.3,0,1.08,1.08,0,0,1,.54.13l1.38.79,2.81-1.63L321,97h0l0,0c-.28-.16-.3-.42-.05-.6l.05,0,5.54-3.22-6.32-3.65a.34.34,0,0,1,0-.64L323,87.24a1.92,1.92,0,0,1-.8-1.57,1.71,1.71,0,0,1,.25-.76,2,2,0,0,1,.23-.3,1.66,1.66,0,0,1,.3-.29,2.11,2.11,0,0,1,.23-.19l.28-.17a3.67,3.67,0,0,1,.63-.3,7.08,7.08,0,0,1,3.34-.4,1.58,1.58,0,0,1,.18-1.38,2.53,2.53,0,0,1,.49-.56l.16-.12a2.25,2.25,0,0,1,.36-.24,4.6,4.6,0,0,1,.63-.31,7.25,7.25,0,0,1,3.35-.39c-.29-.83.15-1.7,1.19-2.31a7.08,7.08,0,0,1,5.66-.29L342.39,76h0a1.21,1.21,0,0,1,1-.06l.12.06,6.32,3.65,5.94-3.46,0-5a.34.34,0,0,1,.13-.25,1,1,0,0,1,.64-.2,1.18,1.18,0,0,1,.55.14.39.39,0,0,1,.23.31l0,4.12L362,72.5a.93.93,0,0,1,.25-.1,1.36,1.36,0,0,1,.29,0h.15a.85.85,0,0,1,.4.12c.17.1.25.23.23.36a.16.16,0,0,1,0,.09.49.49,0,0,1-.19.19l-4.73,2.74h7.11a.92.92,0,0,1,.29,0,.69.69,0,0,1,.25.1.53.53,0,0,1,.16.13l0,0a.08.08,0,0,0,0,0,.28.28,0,0,1,0,.09c0,.25-.35.45-.77.45h-8.65l-2.32,1.35,19.58,11.3,4.56.19h.14a1.2,1.2,0,0,1,.35.12.47.47,0,0,1,.22.25.34.34,0,0,1,0,.1.35.35,0,0,1,0,.13.38.38,0,0,1-.11.11.41.41,0,0,1-.11.07.88.88,0,0,1-.26.08,1.45,1.45,0,0,1-.3,0l-4.85-.2-.2,0h0a1,1,0,0,1-.21-.07l0,0-2.42-1.39L362,93.88l1.27.73.05,0a.6.6,0,0,1,.08.08.16.16,0,0,1,.06.08l0,.08v.05a.25.25,0,0,1,0,.08s0,0,0,0a.22.22,0,0,1-.05.08.53.53,0,0,1-.14.11L353.4,101a.74.74,0,0,1-.26.1,1.42,1.42,0,0,1-.58,0,.82.82,0,0,1-.26-.1l-1.26-.73L340,106.7l8.56,4.94,13.84-8-.54-.32-.14-.11a.22.22,0,0,1-.05-.08.19.19,0,0,1,0-.12.29.29,0,0,1,0-.09.37.37,0,0,1,.07-.12.53.53,0,0,1,.14-.11l4.34-2.52a1.22,1.22,0,0,1,.69-.13,1.1,1.1,0,0,1,.41.13l.54.31,11.54-6.71-3.2-1.85a.61.61,0,0,1-.2-.19.29.29,0,0,1,0-.09c0-.13.05-.26.22-.36a.93.93,0,0,1,.25-.1,1.53,1.53,0,0,1,.3,0,1.21,1.21,0,0,1,.43.07l.12.06L381,93.41a.38.38,0,0,1,.23.31.09.09,0,0,1,0,0,.19.19,0,0,1,0,.08Z"/><polygon class="cls-7" points="359.14 93.47 350.32 98.59 352.85 100.05 361.66 94.92 359.14 93.47"/><polygon class="cls-27" points="402.45 93.19 402.45 94.45 352.36 123.56 352.36 122.29 402.45 93.19"/><polygon class="cls-34" points="352.36 122.29 352.36 123.56 301.95 94.45 301.95 93.19 352.36 122.29"/></g><path class="cls-44" d="M299,73.89a.64.64,0,0,1-.25.85l-3.43,1.87a.62.62,0,0,1-.85-.25h0a.62.62,0,0,1,.25-.85l3.43-1.87a.64.64,0,0,1,.85.25Z"/><path class="cls-44" d="M301.65,84.19a.63.63,0,0,1-.42.78l-3.75,1.1a.64.64,0,0,1-.78-.43h0a.61.61,0,0,1,.43-.77l3.75-1.1a.61.61,0,0,1,.77.42Z"/><path class="cls-45" d="M267.4,101.41a11.72,11.72,0,0,1-1.66-.13,9.14,9.14,0,0,1-6.28-3.52c-2.68-3.71-1.8-9-1.38-11.58a9.31,9.31,0,0,0,.15-1,.74.74,0,0,1,1.47,0,9.4,9.4,0,0,1-.17,1.28c-.39,2.36-1.2,7.27,1.12,10.48A7.75,7.75,0,0,0,266,99.83c5.39.84,10.63-3.37,15.7-7.45,4.59-3.69,8.94-7.18,13.45-7.18a.74.74,0,1,1,0,1.47c-4,0-8.14,3.33-12.53,6.86C277.76,97.41,272.78,101.41,267.4,101.41Z"/><path class="cls-46" d="M272,91.87a8.26,8.26,0,0,1-2.9-.53,5.36,5.36,0,0,1-3.38-3c-1.24-3.09.75-7.14,2.07-9.82a11.5,11.5,0,0,0,.83-1.89.75.75,0,0,1,.77-.69.7.7,0,0,1,.7.7,7.31,7.31,0,0,1-1,2.53c-1.13,2.3-3,6.14-2,8.62A3.93,3.93,0,0,0,269.64,90c4.83,1.77,9-2.18,13.47-6.35,3.78-3.55,7.68-7.22,12.17-7.22a.74.74,0,0,1,0,1.47c-3.91,0-7.6,3.47-11.17,6.82C280.34,88.23,276.46,91.87,272,91.87Z"/><g class="cls-2"><polygon class="cls-47" points="247.86 96.3 242.52 93.2 242.38 40.85 247.71 43.95 247.86 96.3"/><polygon class="cls-48" points="247.71 43.95 242.38 40.85 270.22 24.78 275.55 27.88 247.71 43.95"/><polygon class="cls-49" points="275.55 27.88 275.7 80.23 247.86 96.3 247.71 43.95 275.55 27.88"/></g><polygon class="cls-44" points="274.26 45.66 249.01 60.24 249.01 46.12 274.26 31.54 274.26 45.66"/><path class="cls-50" d="M253.42,61.9c-.47-.77-1.7-.52-2.74.56s-1.51,2.57-1,3.34,1.7.52,2.75-.56S253.9,62.67,253.42,61.9Z"/><path class="cls-50" d="M274.67,49.53c-.47-.77-1.7-.52-2.75.55s-1.5,2.58-1,3.34,1.7.52,2.74-.55S275.15,50.29,274.67,49.53Z"/><path class="cls-51" d="M251.62,50.56a3.6,3.6,0,0,1,1.94-3.15l1.65-.95c1.46-.84,1.86-.19,1.86.86v3.49a3.48,3.48,0,0,1-1.87,3l-1.65.95c-1.3.76-1.93.4-1.93-.81Zm2.52,2.12.42-.24a.9.9,0,0,0,.56-.91V48.84c0-.46-.21-.46-.48-.3l-.57.33a.91.91,0,0,0-.51.87v2.68C253.56,53,253.92,52.81,254.14,52.68Z"/><path class="cls-51" d="M257.85,47a3.59,3.59,0,0,1,1.95-3.15l1.64-1c1.46-.84,1.86-.19,1.86.86v3.49a3.46,3.46,0,0,1-1.87,3l-1.64.95c-1.31.76-1.94.4-1.94-.8Zm2.52,2.12.42-.24a.9.9,0,0,0,.56-.91V45.24c0-.46-.21-.46-.48-.3l-.57.33a.91.91,0,0,0-.5.87v2.68C259.8,49.38,260.15,49.21,260.37,49.08Z"/><path class="cls-51" d="M264.17,47.23a.45.45,0,0,1,.24-.39l1.14-.66c.18-.1.25,0,.25.11v1.17a.43.43,0,0,1-.25.38l-1.14.65c-.14.09-.24,0-.24-.09Z"/><path class="cls-51" d="M266.66,41.88a3.57,3.57,0,0,1,1.95-3.15l1.64-.95c1.46-.84,1.86-.19,1.86.85v3.49a3.48,3.48,0,0,1-1.87,3l-1.64.95c-1.31.75-1.94.39-1.94-.81ZM269.18,44l.42-.25a.89.89,0,0,0,.56-.9V40.16c0-.46-.21-.46-.48-.31l-.57.33a.92.92,0,0,0-.5.88v2.67C268.61,44.3,269,44.12,269.18,44Z"/><polygon class="cls-52" points="273.11 32.21 273.11 45.42 249.01 59.34 249.01 60.24 274.26 45.66 274.26 31.54 273.11 32.21"/><g class="cls-2"><g class="cls-2"><g class="cls-2"><path class="cls-53" d="M262.82,59.92l-1.29-.76c2.72-1.57,5.35-1.84,7.29-.71l1.29.75c-1.93-1.12-4.57-.85-7.29.72Z"/></g></g><g class="cls-2"><g class="cls-2"><path class="cls-53" d="M255.61,84.16l-1.3-.76a5.34,5.34,0,0,1-2.05-2.22c-2.35-4.56-.1-12.84,5-18.51a18.18,18.18,0,0,1,4.24-3.51l1.29.76a17.7,17.7,0,0,0-4.23,3.51c-5.14,5.66-7.39,13.95-5,18.5a5.37,5.37,0,0,0,2.05,2.23Z"/></g></g><path class="cls-46" d="M262.82,59.92c3.89-2.25,7.61-1.83,9.34,1.51,2.37,4.55.12,12.84-5,18.51a17.88,17.88,0,0,1-4.23,3.5c-3.88,2.24-7.61,1.83-9.34-1.51-2.36-4.55-.11-12.84,5-18.5A17.7,17.7,0,0,1,262.82,59.92Z"/></g><g class="cls-2"><polygon class="cls-53" points="262.09 82.47 260.8 81.71 260.74 63.03 262.04 63.78 262.09 82.47"/><polygon class="cls-53" points="262.04 63.78 260.74 63.03 264.51 60.85 265.8 61.61 262.04 63.78"/><polygon class="cls-54" points="265.8 61.61 265.86 80.29 262.09 82.47 262.04 63.78 265.8 61.61"/></g><g class="cls-2"><path class="cls-46" d="M297,76.62c0,.94-.64,1.33-1.45.88A3.21,3.21,0,0,1,294.08,75c0-.94.63-1.33,1.44-.88A3.22,3.22,0,0,1,297,76.62Z"/><path class="cls-46" d="M289.09,81.08a.69.69,0,0,1-.61-.08,2,2,0,0,1-1-1.61.66.66,0,0,1,.24-.6l3.67-2.61.67-.47.67-.48,1-.71c.2-.14.48-.31.67-.47a1.06,1.06,0,0,0-.37.93,3.21,3.21,0,0,0,1.48,2.52,1.06,1.06,0,0,0,1,.12Z"/><path class="cls-46" d="M296.53,77.62l-7.44,3.46a.63.63,0,0,0,.31-.64L297,76.62A1,1,0,0,1,296.53,77.62Z"/><path class="cls-46" d="M287.77,78.79l6.68-4.74a1,1,0,0,1,1.07,0A3.22,3.22,0,0,1,297,76.62l-7.61,3.82a2,2,0,0,0-.95-1.61A.61.61,0,0,0,287.77,78.79Z"/><path class="cls-46" d="M289.4,80.44c0,.6-.4.85-.92.56a2,2,0,0,1-1-1.61c0-.6.4-.85.92-.56A2,2,0,0,1,289.4,80.44Z"/></g><g class="cls-2"><path class="cls-45" d="M299,86.58c-.25.91-1,1.11-1.63.45a3.22,3.22,0,0,1-.73-2.83c.24-.9,1-1.11,1.63-.45A3.23,3.23,0,0,1,299,86.58Z"/><path class="cls-45" d="M290.16,88.68a.67.67,0,0,1-.57-.24,2.05,2.05,0,0,1-.47-1.81.68.68,0,0,1,.4-.51l4.25-1.49.78-.28.77-.27,1.16-.4c.23-.09.55-.17.77-.27a1,1,0,0,0-.61.79,3.22,3.22,0,0,0,.73,2.83,1.07,1.07,0,0,0,.89.38Z"/><path class="cls-45" d="M298.26,87.41l-8.1,1.27a.66.66,0,0,0,.48-.53L299,86.58A1,1,0,0,1,298.26,87.41Z"/><path class="cls-45" d="M289.52,86.12l7.73-2.71a1,1,0,0,1,1,.34,3.23,3.23,0,0,1,.73,2.83l-8.36,1.57a2.05,2.05,0,0,0-.47-1.81A.63.63,0,0,0,289.52,86.12Z"/><path class="cls-45" d="M290.64,88.15c-.16.58-.63.71-1.05.29a2.05,2.05,0,0,1-.47-1.81c.16-.58.63-.71,1.05-.29A2.05,2.05,0,0,1,290.64,88.15Z"/></g><polygon class="cls-55" points="273.51 184.07 237.43 163.24 296.61 129.1 332.67 149.94 273.51 184.07"/><g class="cls-2"><polygon class="cls-56" points="273.4 137.17 258.24 128.36 317.39 94.23 332.55 103.05 273.4 137.17"/><polygon class="cls-57" points="273.51 184.07 258.36 175.26 258.24 128.36 273.4 137.17 273.51 184.07"/><polygon class="cls-58" points="273.4 137.17 332.55 103.05 332.67 149.94 273.51 184.07 273.4 137.17"/></g><polygon class="cls-45" points="264.01 131.72 323.19 97.6 323.67 97.88 264.52 132.02 264.01 131.72"/><polygon class="cls-45" points="264.53 132.01 264.64 178.91 264.14 178.62 264.02 131.72 264.53 132.01"/><g class="cls-2"><polygon class="cls-59" points="278.46 127.18 278.46 127.53 275.87 129.03 275.87 128.68 278.46 127.18"/><polygon class="cls-60" points="275.87 128.68 275.87 129.03 268.56 124.81 268.57 124.46 275.87 128.68"/><polygon class="cls-61" points="271.16 122.96 278.46 127.18 275.87 128.68 268.57 124.46 271.16 122.96"/></g><g class="cls-2"><polygon class="cls-59" points="316.61 105.65 316.6 106 314.01 107.5 314.01 107.15 316.61 105.65"/><polygon class="cls-60" points="314.01 107.15 314.01 107.5 306.71 103.28 306.71 102.93 314.01 107.15"/><polygon class="cls-61" points="309.3 101.43 316.61 105.65 314.01 107.15 306.71 102.93 309.3 101.43"/></g><g class="cls-2"><polygon class="cls-62" points="306.2 112.09 303.48 110.51 303.45 100.07 306.17 101.65 306.2 112.09"/><polygon class="cls-63" points="286.79 109.69 284.07 108.11 306.08 95.41 308.8 96.99 286.79 109.69"/><polygon class="cls-64" points="286.82 123.27 284.1 121.69 284.07 108.11 286.79 109.69 286.82 123.27"/><polygon class="cls-65" points="286.79 109.69 308.8 96.99 308.83 110.57 306.2 112.09 306.17 101.65 289.43 111.31 289.46 121.75 286.82 123.27 286.79 109.69"/></g><polygon class="cls-23" points="311.71 121.69 305.53 140.97 311.56 144.41 297.28 165.42 303.72 148.22 297.7 145.97 311.71 121.69"/><g class="cls-66"><g class="cls-2"><g class="cls-67"><path class="cls-68" d="M198.69,179.06l-2.91,1.61c-3.7,2.06-3.72,5.41-.05,7.46l22.92,12.81a14.85,14.85,0,0,0,8.48,1.44l3.09,1.73a11.39,11.39,0,0,0,9.95,0h0c2.42-1.35,2.75-3.9.23-5.43h0l-3-1.7c.86-1.76.07-3.73-2.39-5.11l-22.92-12.81a15.35,15.35,0,0,0-13.39,0Z"/></g></g></g><polygon class="cls-10" points="238.81 203.67 233.5 203.67 233.52 200.34 238.83 200.34 238.81 203.67"/><path class="cls-11" d="M239.31,201.11c1.67,1,1.61,2.61-.13,3.59a6.8,6.8,0,0,1-6.18-.07c-1.67-1-1.62-2.61.13-3.58A6.83,6.83,0,0,1,239.31,201.11Z"/><g class="cls-2"><path class="cls-69" d="M241.39,197c2.76,1.66,2.67,4.31-.21,5.91a11.25,11.25,0,0,1-10.2-.1c-2.75-1.66-2.66-4.31.22-5.91A11.23,11.23,0,0,1,241.39,197Z"/><path class="cls-70" d="M230.83,202.05a6.05,6.05,0,0,1-1.27-1c-.21-.23-.39-.47-.39-.47a3.81,3.81,0,0,1-.38-.66,3.1,3.1,0,0,1-.22-.65,3.56,3.56,0,0,1-.08-.65,4.75,4.75,0,0,1,0-.5,3.86,3.86,0,0,1,.16-.65,4,4,0,0,1,.64-1.11,5.33,5.33,0,0,1,1-1,8.24,8.24,0,0,1,3.22-1.39,12.13,12.13,0,0,1,2.23-.29c.24,0,.63,0,1.11,0s.63,0,1.08.11a9.74,9.74,0,0,1,1.05.2,9.24,9.24,0,0,1,1,.3,9.77,9.77,0,0,1,.94.39l.58.32a.34.34,0,0,0-.15-.06,1.28,1.28,0,0,0-.81.19,9.47,9.47,0,0,0-8.61-.08c-2.43,1.35-2.51,3.58-.18,5a9.47,9.47,0,0,0,8.61.08c2.43-1.35,2.51-3.58.18-5a1.28,1.28,0,0,1,.81-.19.34.34,0,0,1,.15.06c.17.11.4.25.56.37a6,6,0,0,1,.61.53,5,5,0,0,1,.42.48,3.26,3.26,0,0,1,.41.67,3.13,3.13,0,0,1,.33,1.17,3.27,3.27,0,0,1,0,.56,3.56,3.56,0,0,1-.13.65,4,4,0,0,1-.28.65,4.26,4.26,0,0,1-.34.52,5.11,5.11,0,0,1-1,1,7.19,7.19,0,0,1-1.56.89,9.37,9.37,0,0,1-1.75.57A11.32,11.32,0,0,1,230.83,202.05Z"/><path class="cls-70" d="M230.83,200a5.85,5.85,0,0,1-1.28-1,4.19,4.19,0,0,1-.38-.47,4.29,4.29,0,0,1-.39-.65,3.2,3.2,0,0,1-.22-.66,3.46,3.46,0,0,1-.08-.65,4.73,4.73,0,0,1,0-.49,3.34,3.34,0,0,1,.17-.65,3.1,3.1,0,0,1,.31-.65,3.51,3.51,0,0,1,.38-.54,5.74,5.74,0,0,1,1.1-1,8,8,0,0,1,1.33-.73c.19-.08.46-.19.66-.25a9.28,9.28,0,0,1,1.08-.31,11.43,11.43,0,0,1,2.23-.28,10.36,10.36,0,0,1,1.11,0,10,10,0,0,1,1.09.1s.48.07,1.05.21a10.05,10.05,0,0,1,1,.29,9.46,9.46,0,0,1,.94.4c.17.08.4.21.57.31a.52.52,0,0,0-.15-.06,1.25,1.25,0,0,0-.81.2A9.44,9.44,0,0,0,232,193c-2.43,1.35-2.51,3.59-.18,5a9.52,9.52,0,0,0,8.62.09c2.42-1.36,2.5-3.59.17-5a1.25,1.25,0,0,1,.81-.2.52.52,0,0,1,.15.06c.17.11.4.25.56.38a4.3,4.3,0,0,1,.62.53,4.25,4.25,0,0,1,.83,1.14,3.58,3.58,0,0,1,.33,1.17,2.9,2.9,0,0,1,0,.56,2.85,2.85,0,0,1-.13.65,3.48,3.48,0,0,1-.27.65,4,4,0,0,1-.35.53,5.36,5.36,0,0,1-1,1,7.54,7.54,0,0,1-1.56.9,9.88,9.88,0,0,1-1.74.56A11.37,11.37,0,0,1,230.83,200Z"/><path class="cls-12" d="M230.82,197.9a5.7,5.7,0,0,1-1.27-1,3.05,3.05,0,0,1-.39-.47,4.17,4.17,0,0,1-.38-.65,3.31,3.31,0,0,1-.22-.65,2.87,2.87,0,0,1-.08-.66,3,3,0,0,1,0-.49,3.09,3.09,0,0,1,.16-.65,3.36,3.36,0,0,1,.31-.65,6.25,6.25,0,0,1,.38-.53,5.89,5.89,0,0,1,1.1-1,9.33,9.33,0,0,1,1.33-.73,10.46,10.46,0,0,1,1.75-.56,12.14,12.14,0,0,1,2.23-.28,10.39,10.39,0,0,1,1.1,0,10.06,10.06,0,0,1,1.09.11,9.74,9.74,0,0,1,1,.2c.44.11.63.17,1,.29a7.8,7.8,0,0,1,.94.4c.18.08.41.22.58.31l-.15-.05a1.17,1.17,0,0,0-.81.19A9.52,9.52,0,0,0,232,191c-2.42,1.35-2.5,3.59-.17,5a9.5,9.5,0,0,0,8.61.09c2.43-1.36,2.51-3.59.18-5a1.17,1.17,0,0,1,.81-.19l.15.05c.17.11.4.25.56.38a5.93,5.93,0,0,1,.62.53,4.13,4.13,0,0,1,.82,1.15,3,3,0,0,1,.33,1.17,3.12,3.12,0,0,1,0,.55,3.2,3.2,0,0,1-.13.65,3.82,3.82,0,0,1-.62,1.18,5.35,5.35,0,0,1-1,1,7.54,7.54,0,0,1-1.56.9,9.51,9.51,0,0,1-1.75.56A11.37,11.37,0,0,1,230.82,197.9Z"/><path class="cls-12" d="M230.81,195.82a6.42,6.42,0,0,1-1.27-1c-.21-.23-.38-.47-.39-.47a4.22,4.22,0,0,1-.38-.66,3.31,3.31,0,0,1-.22-.65,3.56,3.56,0,0,1-.08-.65,4.9,4.9,0,0,1,0-.5,3.78,3.78,0,0,1,.17-.65,3.66,3.66,0,0,1,.31-.65,3.56,3.56,0,0,1,.38-.53,5.45,5.45,0,0,1,1.1-1,7,7,0,0,1,1.33-.73,10.4,10.4,0,0,1,1.74-.57,12.14,12.14,0,0,1,2.23-.28c.24,0,.63,0,1.11,0s.63.05,1.08.11a9.74,9.74,0,0,1,1.05.2,9.24,9.24,0,0,1,1,.3,7.75,7.75,0,0,1,.94.39l.58.32a.34.34,0,0,0-.15-.06,1.18,1.18,0,0,0-.81.19,9.5,9.5,0,0,0-8.61-.09c-2.43,1.36-2.51,3.59-.18,5a9.47,9.47,0,0,0,8.61.09c2.43-1.35,2.51-3.59.18-5a1.18,1.18,0,0,1,.81-.19.34.34,0,0,1,.15.06,6.11,6.11,0,0,1,1,.72,4.92,4.92,0,0,1,.76.86,3.4,3.4,0,0,1,.57,1.44,3.18,3.18,0,0,1-.18,1.6,4.19,4.19,0,0,1-1,1.46,5.31,5.31,0,0,1-.57.5c-.17.12-.4.28-.58.39a8.4,8.4,0,0,1-1.2.59,10.76,10.76,0,0,1-3.2.73,13.54,13.54,0,0,1-1.66,0,11.78,11.78,0,0,1-1.65-.21c-.29-.06-.68-.15-1-.23a5.25,5.25,0,0,1-.52-.17A9.09,9.09,0,0,1,230.81,195.82Z"/><path class="cls-69" d="M241.18,200.21a11.25,11.25,0,0,1-10.2-.11,3.74,3.74,0,0,1-2-2.53c-.16,1.15.49,2.34,2,3.24a11.28,11.28,0,0,0,10.2.1c1.64-.91,2.37-2.16,2.2-3.37A4,4,0,0,1,241.18,200.21Z"/><path class="cls-11" d="M241.18,198.08A11.22,11.22,0,0,1,231,198a3.74,3.74,0,0,1-2-2.53c-.16,1.15.49,2.34,2,3.23a11.25,11.25,0,0,0,10.2.11c1.64-.91,2.37-2.16,2.2-3.38A3.91,3.91,0,0,1,241.18,198.08Z"/><path class="cls-11" d="M241.18,196.05A11.25,11.25,0,0,1,231,196a3.77,3.77,0,0,1-2-2.54c-.16,1.15.49,2.34,2,3.24a11.25,11.25,0,0,0,10.2.1c1.64-.91,2.37-2.16,2.2-3.37A3.93,3.93,0,0,1,241.18,196.05Z"/><path class="cls-11" d="M241.18,194a10.4,10.4,0,0,1-5,1,10.29,10.29,0,0,1-5.17-1.1,3.77,3.77,0,0,1-2-2.54c-.16,1.15.49,2.34,2,3.24a11.25,11.25,0,0,0,10.2.1c1.64-.91,2.37-2.16,2.2-3.37A3.93,3.93,0,0,1,241.18,194Z"/></g><path class="cls-65" d="M228.54,198.41a11,11,0,0,1-2.14-1.65,9.85,9.85,0,0,1-1.75-2.29,7.42,7.42,0,0,1-.53-1.1,13.38,13.38,0,0,1-.44-1.4,9.24,9.24,0,0,1-.24-2.07c0,1.83,1.18,3.66,3.55,5.09,4.87,2.93,12.94,3,18,.18,2.62-1.46,3.93-3.4,3.93-5.35a14.52,14.52,0,0,1-.12,1.48,8.84,8.84,0,0,1-.28,1.26,9.76,9.76,0,0,1-1.31,2.7,10.74,10.74,0,0,1-2.25,2.36,12.57,12.57,0,0,1-2.92,1.66,15.75,15.75,0,0,1-6.79,1.11,16.37,16.37,0,0,1-3.66-.64A13,13,0,0,1,228.54,198.41Z"/><path class="cls-71" d="M239.91,173.44c2,1.2,1.93,3.11-.15,4.27a8.13,8.13,0,0,1-7.38-.07c-2-1.2-1.92-3.11.16-4.27A8.11,8.11,0,0,1,239.91,173.44Z"/><path class="cls-71" d="M228.88,172.93a14.11,14.11,0,0,1,3.77-1.42,16.2,16.2,0,0,1,3.7-.38,14.77,14.77,0,0,1,7.47,2,3.87,3.87,0,0,0-3.91.31,8.11,8.11,0,0,0-7.37-.07c-2.08,1.16-2.15,3.07-.16,4.27a8.13,8.13,0,0,0,7.38.07c2.08-1.16,2.15-3.07.15-4.27a3.87,3.87,0,0,1,3.91-.31c.39.25.9.6,1.27.88a8,8,0,0,1,.7.61,9.92,9.92,0,0,1,1.82,2.28,9.67,9.67,0,0,1,1,2.49,8.65,8.65,0,0,1,.21,1.13,10.36,10.36,0,0,1,.07,1.12c0,1.94-1.3,3.89-3.92,5.35-5.08,2.83-13.15,2.75-18-.18-2.37-1.43-3.55-3.26-3.55-5.1a14.73,14.73,0,0,1,.11-1.48c.06-.38.19-.88.29-1.26a9.51,9.51,0,0,1,.91-2.07,10.09,10.09,0,0,1,1.76-2.22A11.85,11.85,0,0,1,228.88,172.93Z"/><path class="cls-63" d="M223.44,189.9l0-8.19c0,1.84,1.18,3.67,3.55,5.1,4.87,2.93,12.94,3,18,.18,2.62-1.46,3.93-3.41,3.92-5.35l0,8.18c0,2-1.31,3.89-3.93,5.35-5.08,2.83-13.15,2.75-18-.18C224.62,193.56,223.45,191.73,223.44,189.9Z"/><path class="cls-65" d="M227,189.52c4.87,2.94,12.94,3,18,.18,2.62-1.45,3.93-3.4,3.92-5.34l0,7.41v0l0-8.18c0,1.94-1.3,3.89-3.92,5.35-5.08,2.83-13.15,2.75-18-.19-2.37-1.42-3.55-3.25-3.55-5.09v.83C223.44,186.28,224.61,188.11,227,189.52Z"/><g class="cls-2"><polygon class="cls-72" points="234.44 178.14 237.56 176.32 237.63 144.7 234.5 146.51 234.44 178.14"/><g class="cls-2"><path class="cls-72" d="M234.5,146.52l3.13-1.82a2.47,2.47,0,0,1,1-2.26l-3.12,1.82a2.49,2.49,0,0,0-1,2.26Z"/></g><polygon class="cls-73" points="244.77 184.1 247.9 182.29 247.96 150.66 244.83 152.48 244.77 184.1"/><g class="cls-2"><path class="cls-74" d="M238,140.71l3.13-1.81c-1.9-1.09-3.61-1.19-4.85-.47l-3.13,1.81c1.24-.72,3-.62,4.85.47Z"/></g><g class="cls-2"><path class="cls-74" d="M244.83,152.48l3.13-1.82a15,15,0,0,0-6.79-11.76L238,140.71a15,15,0,0,1,6.79,11.77Z"/></g><path class="cls-75" d="M238,140.71c-3.76-2.17-6.82-.42-6.84,3.9l-.06,31.62,3.3,1.91.06-31.62c0-2.24,1.59-3.14,3.53-2a7.68,7.68,0,0,1,3.5,6.06l-.06,31.63,3.3,1.9.06-31.62A15,15,0,0,0,238,140.71Z"/></g><g class="cls-2"><polygon class="cls-76" points="227.88 182.24 231.01 180.43 231.07 148.8 227.95 150.62 227.88 182.24"/><g class="cls-2"><path class="cls-76" d="M228,150.62l3.12-1.82a2.42,2.42,0,0,1,1-2.25L229,148.36a2.47,2.47,0,0,0-1,2.26Z"/></g><polygon class="cls-77" points="238.21 188.2 241.34 186.39 241.4 154.76 238.28 156.58 238.21 188.2"/><g class="cls-2"><path class="cls-78" d="M231.48,144.81l3.13-1.81c-1.89-1.09-3.61-1.19-4.85-.47l-3.12,1.81c1.24-.72,3-.62,4.84.47Z"/></g><g class="cls-2"><path class="cls-78" d="M238.28,156.58l3.12-1.82A15,15,0,0,0,234.61,143l-3.13,1.81a15,15,0,0,1,6.8,11.77Z"/></g><path class="cls-79" d="M231.48,144.81c-3.76-2.17-6.82-.42-6.83,3.9l-.07,31.63,3.3,1.9.07-31.62c0-2.24,1.58-3.14,3.52-2a7.72,7.72,0,0,1,3.51,6.06l-.07,31.63,3.3,1.9.07-31.62A15,15,0,0,0,231.48,144.81Z"/></g><path class="cls-3" d="M168.11,226.63l-20.27-11.71a1.88,1.88,0,0,1,0-3.26l31.95-18.45a1.91,1.91,0,0,1,1.88,0L202,205a1.88,1.88,0,0,1,0,3.26l-32,18.4A1.91,1.91,0,0,1,168.11,226.63Z"/><path class="cls-3" d="M194.45,246.33s-15.76-4.56-3.33-17.26l-4.81-2.76.67-3.6L201.84,214,197.13,211l10.73-6.1,4.82,2.77L198,233.65l-5.17,6.58Z"/><path class="cls-3" d="M218,238.25a90.67,90.67,0,0,0-16.11,3.13c-4.57,1.37-7.08.25-7.08.25l2.32,3.65,7.13-.67,8.24-2.6,2.87-1.32Z"/><g class="cls-2"><g class="cls-2"><g class="cls-2"><path class="cls-34" d="M202.85,207.09l-2.13-1.23a3.22,3.22,0,0,0,1.46-2.55l2.13,1.24a3.2,3.2,0,0,1-1.46,2.54Z"/></g></g><polygon class="cls-80" points="171.18 225.38 169.05 224.14 200.72 205.86 202.85 207.09 171.18 225.38"/><polygon class="cls-81" points="204.31 204.55 202.18 203.31 202.08 166.93 204.21 168.16 204.31 204.55"/><g class="cls-2"><g class="cls-2"><path class="cls-34" d="M170.13,225.48,168,224.24a1,1,0,0,0,1.05-.1l2.13,1.24a1.07,1.07,0,0,1-1.05.1Z"/></g></g><polygon class="cls-82" points="171.13 223.71 169 222.47 200.71 204.22 202.84 205.45 171.13 223.71"/><polygon class="cls-83" points="202.84 205.45 200.71 204.22 200.65 167.75 202.78 168.99 202.84 205.45"/><g class="cls-2"><g class="cls-2"><path class="cls-34" d="M204.21,168.16l-2.13-1.23a1,1,0,0,0-.43-1l2.13,1.24a1,1,0,0,1,.43.94Z"/></g></g><g class="cls-2"><g class="cls-2"><path class="cls-84" d="M170.13,225.48,168,224.24a1,1,0,0,1-.43-.94l2.13,1.23a1,1,0,0,0,.43.95Z"/></g></g><g class="cls-2"><g class="cls-2"><path class="cls-84" d="M202.73,167.32l-2.13-1.24a1.07,1.07,0,0,1,1.05-.1l2.13,1.24a1,1,0,0,0-1.05.1Z"/></g></g><g class="cls-2"><path class="cls-63" d="M169.12,227.21,167,226a2,2,0,0,1-.85-1.85l2.13,1.24a2,2,0,0,0,.85,1.85Z"/></g><g class="cls-2"><path class="cls-85" d="M202.73,165.69l-2.13-1.24a2.07,2.07,0,0,1,2.06-.2l2.12,1.24a2,2,0,0,0-2.05.2Z"/></g><polygon class="cls-7" points="171.13 223.71 171.07 187.24 202.78 168.99 202.89 205.38 171.13 223.71"/><polygon class="cls-81" points="171.13 223.71 169 222.47 168.94 186.01 171.07 187.24 171.13 223.71"/><polygon class="cls-80" points="171.07 187.24 168.94 186.01 200.65 167.75 202.78 168.99 171.07 187.24"/><polygon class="cls-83" points="169.7 224.53 167.57 223.3 167.47 186.91 169.6 188.15 169.7 224.53"/><polygon class="cls-82" points="171.06 185.6 168.94 184.37 200.6 166.08 202.73 167.32 171.06 185.6"/><g class="cls-2"><g class="cls-2"><path class="cls-84" d="M169.6,188.15l-2.13-1.24a3.24,3.24,0,0,1,1.47-2.54l2.13,1.23a3.27,3.27,0,0,0-1.47,2.55Z"/></g></g><path class="cls-86" d="M202.73,167.32c.81-.47,1.48-.09,1.48.84l.1,36.39a3.2,3.2,0,0,1-1.46,2.54l-31.67,18.29c-.81.46-1.48.09-1.48-.85l-.1-36.38a3.27,3.27,0,0,1,1.47-2.55Zm.11,38.13L202.78,169l-31.71,18.25.06,36.47,31.71-18.26Z"/><polygon class="cls-63" points="168.27 225.36 166.15 224.12 166.04 187.73 168.17 188.97 168.27 225.36"/><polygon class="cls-63" points="171.06 183.97 168.93 182.74 200.6 164.45 202.73 165.69 171.06 183.97"/><path class="cls-7" d="M202.73,165.69c1.59-.92,2.9-.18,2.9,1.65l.1,36.39a6.37,6.37,0,0,1-2.88,5L171.18,227c-1.59.92-2.9.18-2.91-1.65l-.1-36.39a6.41,6.41,0,0,1,2.89-5Zm1.58,38.86-.1-36.39c0-.93-.67-1.31-1.48-.84L171.07,185.6a3.27,3.27,0,0,0-1.47,2.55l.1,36.38c0,.94.67,1.31,1.48.85l31.67-18.29a3.2,3.2,0,0,0,1.46-2.54Z"/><g class="cls-2"><path class="cls-63" d="M168.17,189,166,187.73a6.43,6.43,0,0,1,2.89-5l2.13,1.24a6.41,6.41,0,0,0-2.89,5Z"/></g></g><ellipse class="cls-7" cx="187.91" cy="195.78" rx="16.87" ry="9.54" transform="translate(-81.51 228.27) rotate(-53.05)"/><ellipse class="cls-87" cx="188.2" cy="196.03" rx="16.87" ry="9.54" transform="matrix(0.6, -0.8, 0.8, 0.6, -81.59, 228.6)"/><path class="cls-88" d="M196.86,181.77c1.63,1.19,2.6,3.29,2.6,6.18,0,7-5.68,16-12.69,20-3.35,1.94-6.39,2.38-8.65,1.57,2.31,1.7,6,1.56,10.08-.81,7-4.05,12.69-13,12.69-20C200.89,185,199.33,182.66,196.86,181.77Z"/><path class="cls-89" d="M183.87,198.53c0-1.07-.86-1.43-1.92-.82a4,4,0,0,0-1.92,3c0,1.06.86,1.42,1.92.81A4,4,0,0,0,183.87,198.53Z"/><path class="cls-89" d="M196.38,191.31c0-1.06-.87-1.43-1.93-.81a4,4,0,0,0-1.92,3c0,1.06.86,1.43,1.92.81A4,4,0,0,0,196.38,191.31Z"/><path class="cls-90" d="M182.88,197.43a1.19,1.19,0,0,1,.27.82,4,4,0,0,1-1.92,3,2,2,0,0,1-.93.29c.34.37.95.4,1.65,0a4,4,0,0,0,1.92-3C183.87,197.8,183.47,197.41,182.88,197.43Z"/><path class="cls-90" d="M195.38,190.21a1.19,1.19,0,0,1,.28.82,4,4,0,0,1-1.93,3,1.92,1.92,0,0,1-.92.29c.33.37.94.4,1.64,0a4,4,0,0,0,1.93-3C196.38,190.58,196,190.19,195.38,190.21Z"/><path class="cls-91" d="M236.31,214.54a1.41,1.41,0,0,0-1.94-.5l-11.59,6.85a1.4,1.4,0,0,0-.5,1.93h0a1.41,1.41,0,0,0,1.93.5l11.6-6.85a1.41,1.41,0,0,0,.5-1.93Z"/><path class="cls-91" d="M222.23,206.15a1.42,1.42,0,0,0-1.94-.5L208.7,212.5a1.4,1.4,0,0,0-.5,1.93h0a1.4,1.4,0,0,0,1.93.5l11.6-6.85a1.41,1.41,0,0,0,.5-1.93Z"/><g class="cls-2"><polygon class="cls-92" points="237.04 221.78 237.03 227.75 229.28 232.25 229.29 226.28 237.04 221.78"/><polygon class="cls-93" points="229.29 226.28 229.28 232.25 202.73 216.93 202.75 210.95 229.29 226.28"/><polygon class="cls-7" points="237.04 221.78 229.29 226.28 202.75 210.95 210.5 206.45 237.04 221.78"/></g><g class="cls-2"><polygon class="cls-94" points="203.47 214.93 203.45 220.91 202.73 216.93 202.75 210.95 203.47 214.93"/><polygon class="cls-95" points="203.5 215.13 203.49 221.11 203.45 220.91 203.47 214.93 203.5 215.13"/><polygon class="cls-93" points="197.13 218.74 197.11 224.72 197 224.66 197.02 218.68 197.13 218.74"/><polygon class="cls-85" points="197.05 224.94 197.03 230.91 194.54 229.47 194.56 223.49 197.05 224.94"/><polygon class="cls-95" points="222.09 225.86 222.07 231.83 203.49 221.11 203.5 215.13 222.09 225.86"/><polygon class="cls-96" points="222.43 225.88 222.41 231.85 222.07 231.83 222.09 225.86 222.43 225.88"/><polygon class="cls-97" points="229.29 226.28 229.28 232.25 222.41 231.85 222.43 225.88 229.29 226.28"/><polygon class="cls-92" points="229.29 226.28 222.43 225.88 222.09 225.86 203.5 215.13 203.47 214.93 202.75 210.95 229.29 226.28"/><polygon class="cls-93" points="215.87 229.56 215.85 235.54 197.11 224.72 197.13 218.74 215.87 229.56"/><polygon class="cls-93" points="215.98 229.63 215.96 235.6 215.85 235.54 215.87 229.56 215.98 229.63"/><polygon class="cls-92" points="222.43 225.88 222.41 231.85 215.96 235.6 215.98 229.63 222.43 225.88"/><polygon class="cls-7" points="203.47 214.93 203.5 215.13 222.09 225.86 222.43 225.88 215.98 229.63 215.87 229.56 197.13 218.74 197.02 218.68 203.47 214.93"/><polygon class="cls-95" points="205.18 229.63 205.16 235.6 197.03 230.91 197.05 224.94 205.18 229.63"/><polygon class="cls-85" points="207.68 231.07 207.66 237.04 205.16 235.6 205.18 229.63 207.68 231.07"/><polygon class="cls-97" points="215.98 229.59 215.97 235.57 207.66 237.04 207.68 231.07 215.98 229.59"/><polygon class="cls-92" points="215.98 229.63 207.68 231.07 205.18 229.63 197.05 224.94 194.56 223.49 197.13 218.74 215.98 229.63"/></g><g class="cls-2"><polygon class="cls-98" points="205.18 229.63 205.16 235.6 203.06 236.82 203.08 230.85 205.18 229.63"/><polygon class="cls-51" points="203.08 230.85 203.06 236.82 194.94 232.13 194.95 226.16 203.08 230.85"/><polygon class="cls-99" points="205.18 229.63 203.08 230.85 194.95 226.16 197.05 224.94 205.18 229.63"/></g><path class="cls-45" d="M222.94,241.38a4.14,4.14,0,0,0-2.1-2.57c-2.78-1.42-7.18.11-12.27,1.89-4.67,1.64-11.07,3.88-12.59,1.77a3.63,3.63,0,0,1-.75-3.07c.62-2.7,4.24-5.18,5.58-5.91a2,2,0,0,0,.62-.53l-3.85-2.22c-2,1.3-5.41,4-6.27,7.75a7.66,7.66,0,0,0,1.4,6.33,6.47,6.47,0,0,0,5.65,2.51c3.45,0,7.65-1.47,11.54-2.83,2.88-1,8.24-2.88,9.13-2.09a.57.57,0,0,1,.05.12,2,2,0,1,0,3.86-1.15Z"/><polygon class="cls-3" points="126.21 195.91 110.67 186.88 87.72 173.61 207.75 103.85 246.56 126.43 126.21 195.91"/><path class="cls-100" d="M171.05,109.6c3.83-2.34,14.28-13.06,15.48-14.3l.11-.12,14,8.14,0-11.95,15.55,9,.12,43.5-15.54-9-.08-29.1c-3.27,3.31-10.91,10.93-14.08,12.86l-.16.1-15.55-9Z"/><g class="cls-2"><g class="cls-2"><path class="cls-100" d="M170,123.05l-15.55-9-5.53,4.45,15.54,9c.2-.16,3.91-3.13,5.54-4.45Z"/></g></g><path class="cls-100" d="M191.62,93.56l15.55,9c-1.67.52-3.34,1.06-5,1.62l-15.55-9C188.29,94.62,190,94.07,191.62,93.56Z"/><path class="cls-100" d="M193.66,93l.44-.13a45.81,45.81,0,0,1,7-1.52,16.4,16.4,0,0,1,3.63,0,21.84,21.84,0,0,1,3.77,1,44.87,44.87,0,0,1,4.32,2.1l15.55,9a44.87,44.87,0,0,0-4.32-2.1,20.34,20.34,0,0,0-3.77-1,15.81,15.81,0,0,0-3.63,0,43.66,43.66,0,0,0-7.05,1.52l-.43.12L209,102l-15.54-9Z"/><path class="cls-101" d="M209.64,101.86l0,0-.45.15Z"/><path class="cls-102" d="M209,102a50.47,50.47,0,0,1,7.17-1.63l.12,43.5,30.27-17.48c-.79-1.87-1.57-3.54-2.32-4.94-5.12-9.66-10.83-14.93-15.41-17.8a42.12,42.12,0,0,0-4.74-2.35,20.34,20.34,0,0,0-3.77-1,15.81,15.81,0,0,0-3.63,0,43.66,43.66,0,0,0-7.05,1.52l-.43.12Z"/><path class="cls-103" d="M191.62,93.56l.94-.29a56.35,56.35,0,0,1,8.06-1.9l15.55,9a54.44,54.44,0,0,0-8.06,1.9l-.94.28-1.27.42-15.55-9Z"/><polygon class="cls-104" points="202.07 104.33 186.53 95.3 182.97 96.47 198.51 105.5 202.07 104.33"/><polygon class="cls-105" points="205.98 131.95 190.44 122.92 151.15 145.6 166.69 154.64 205.98 131.95"/><g class="cls-2"><g class="cls-2"><path class="cls-100" d="M186.43,118.73l-15.55-9c-4.27,2.47-15.34,4.57-15.92,4.68l15.54,9c.59-.11,11.66-2.21,15.93-4.67Z"/></g></g><polygon class="cls-106" points="174.39 119.36 158.84 110.32 154.41 114.01 169.96 123.05 174.39 119.36"/><polygon class="cls-107" points="169.96 123.05 154.41 114.01 154.96 114.37 170.5 123.4 169.96 123.05"/><polygon class="cls-108" points="166.61 125.75 151.06 116.71 151.15 145.6 166.69 154.64 166.61 125.75"/><path class="cls-102" d="M206,132,205.9,103l1.27-.42c-1.67.52-3.34,1.06-5,1.62l-.12.12c-1.2,1.24-11.64,12-15.48,14.3l-.16.1c-4.27,2.46-15.34,4.56-15.93,4.67l-.54-.35c-1.63,1.32-5.34,4.29-5.54,4.45l2.19-1.75.08,28.89Z"/><polygon class="cls-109" points="198.49 95.35 182.94 86.32 158.81 100.25 174.36 109.28 198.49 95.35"/><polygon class="cls-110" points="174.36 109.28 158.81 100.25 158.84 110.32 174.39 119.36 174.36 109.28"/><path class="cls-101" d="M174.39,119.36,170,123.05l.54.35c.59-.11,11.66-2.21,15.93-4.67l.16-.1c3.84-2.34,14.28-13.06,15.48-14.3l-3.56,1.17,0-10.15-24.13,13.93Z"/><polygon class="cls-111" points="155.85 135.46 140.31 126.43 140.42 169.7 155.96 178.74 155.85 135.46"/><path class="cls-103" d="M148.88,118.46l2.18-1.75,15.55,9-2.19,1.75c-.3.26-6,5.31-8.57,8l-15.55-9C142.85,123.77,148.58,118.73,148.88,118.46Z"/><path class="cls-112" d="M205.9,103,206,132l-39.29,22.69-.08-28.89-2.19,1.75c-.3.26-6,5.31-8.57,8l.11,43.28,60.33-34.83-.12-43.5a54.44,54.44,0,0,0-8.06,1.9l-.94.28Z"/><g class="cls-2"><g class="cls-2"><g class="cls-2"><path class="cls-100" d="M128.49,188.32l-15.54-9c-.74,2.26-1.5,4.81-2.28,7.6l15.54,9c.78-2.78,1.55-5.34,2.28-7.59Z"/></g></g><path class="cls-100" d="M128.21,143.77c1.49-2.65,4-6.62,4.72-7.83.13-.19,2.52-3.81,3.76-5.36a54.72,54.72,0,0,1,3.61-4.14l15.54,9c-1.34,1.39-2.53,2.79-3.61,4.14-1.23,1.55-3.63,5.17-3.75,5.36-.75,1.21-3.23,5.18-4.72,7.83a200.52,200.52,0,0,0-15.27,35.52l-15.54-9A200.79,200.79,0,0,1,128.21,143.77Z"/><path class="cls-102" d="M128.49,188.32c-.73,2.25-1.5,4.81-2.28,7.59L156,178.74l-.12-43.27c-1.34,1.39-2.53,2.79-3.61,4.14-1.23,1.55-3.63,5.17-3.75,5.36-.75,1.21-3.23,5.18-4.72,7.83A200.52,200.52,0,0,0,128.49,188.32Z"/></g><path class="cls-113" d="M137.56,66.76a38,38,0,0,1,.26-4.54c.09-.75.17-1.33.24-1.84a.25.25,0,0,1,0-.09.59.59,0,0,1,0-.13,1,1,0,0,1,0-.17,31.34,31.34,0,0,1,.9-4.31c.09-.29.18-.61.28-.94,0-.17.07-.31.12-.49a32.49,32.49,0,0,1,1.69-4.7c.1-.23.22-.48.33-.72s.17-.41.25-.59a28.74,28.74,0,0,1,1.4-2.77c.29-.53.58-1,.87-1.49.62-1,1.09-1.69,1.51-2.3l.15-.23a40.12,40.12,0,0,1,3.24-4c.25-.28.54-.6.85-.91l.16-.16.48-.47c.29-.29.59-.57.89-.84l.15-.14a.27.27,0,0,1,.08-.07c.3-.28.59-.54.88-.78l.1-.09.38-.32.23-.19.38-.31.68-.52.27-.21.13-.09a38.58,38.58,0,0,1,3.21-2.16h0l1.09-.61c.39-.22.79-.45,1.15-.63a22.53,22.53,0,0,1,2.28-1.09l.23-.09c.7-.3,1.34-.55,1.88-.75l.11,0c.76-.28,1.41-.49,2.06-.68l.11,0,1.38-.37a31.53,31.53,0,0,1,3.31-.66l.23,0a32.27,32.27,0,0,1,3.89-.35l.54,0h2.1c.63,0,1.39.07,2.16.14h0c.76.08,1.49.17,2.13.27l.16,0,.49.08c.6.1,1.13.21,1.62.32l.16,0,.2,0c.64.15,1.21.29,1.72.44l.19.05,1.49.46A31.72,31.72,0,0,1,191.71,28h0l.28.13c1.58.71,2.6,1.29,2.81,1.41l.48.29c.54.31,1.1.64,1.68,1l.23.16c.62.39,1.13.75,1.66,1.15l.73.55L201,33.81l.14.13h0A34.27,34.27,0,0,1,205,37.59c.41.46.8.92,1.17,1.36l.55.69.6.76.21.28a39.79,39.79,0,0,1,3.41,5.4l.42.8a36.66,36.66,0,0,1,2,4.5l0,0a44.83,44.83,0,0,1,1.78,6.16s0,0,0,.07a46,46,0,0,1,1,9.63c0,1.58-.07,2.68-.18,3.82s-.21,2.08-.36,3l0,.2a35.15,35.15,0,0,1-.7,3.52c-.23,1-.54,2-.87,3.08-.39,1.21-.81,2.38-1.24,3.43-.13.31-.25.6-.36.83a38,38,0,0,1-2.55,4.92c-.11.2-.23.42-.34.6-.24.39-.52.82-.82,1.25l-.16.26c-.47.73-1.08,1.53-1.71,2.32l-.05.07c-.44.59-1,1.29-1.58,1.88h0l-.3.33-.14.15a36.73,36.73,0,0,1-3.15,3.06l-.38.34c-.22.19-.83.71-1.72,1.38-.16.13-.33.25-.51.38s-.53.39-.83.59l0,0c-.57.39-1.2.8-1.88,1.22l-.29.19c-.43.26-1.52.91-3,1.65l-.15.07-.24.11-.7.32-.49.21-.46.2-.89.35-.15,0c-.17.07-.33.14-.51.2l-.38.13-1.35.44-1.15.33-.78.22-.4.09-.15,0c-.78.19-1.69.37-2.76.53l-.23,0a34,34,0,0,1-5.27.38h-.51l-1.59-.06-.89-.06c-.49,0-1-.1-1.51-.16l-.93-.11c-.72-.11-1.46-.25-2.22-.41l-.29,0h-.06A37.16,37.16,0,0,1,157.4,104c-.33-.21-.68-.43-1-.68-1.12-.73-2.12-1.46-3-2.17l-.15-.12a12.9,12.9,0,0,1-1.05-.88c-.31-.26-.58-.5-.85-.75l-.1-.09-.41-.39c-.63-.6-1.19-1.17-1.59-1.6s-.77-.86-1.18-1.34l-.55-.62a29.81,29.81,0,0,1-2.84-3.87l-.4-.65c-.42-.66-.82-1.33-1.18-2h0v0c-.19-.35-.39-.7-.55-1-.58-1.18-1.31-2.68-1.82-4A46.52,46.52,0,0,1,139,78.74c0-.07,0-.16-.07-.24a29.47,29.47,0,0,1-.7-3.23c0-.14,0-.3-.07-.45-.06-.34-.12-.67-.17-1,0-.14,0-.27-.05-.41-.07-.5-.14-1-.18-1.43,0-.08,0-.17,0-.26-.16-1.61-.21-3.07-.22-4.37,0-.09,0-.19,0-.28S137.56,66.85,137.56,66.76Z"/><path class="cls-112" d="M130.72,40.12c0-.28,0-.54,0-.78,0-.62.1-1.44.15-2.06a10.48,10.48,0,0,1,.26-1.44c.09-.39.2-.81.32-1.23.05-.16.09-.32.14-.46a14,14,0,0,1,1-2.37l0,0a13.85,13.85,0,0,1,1.34-2.29,21.79,21.79,0,0,1,1.68-2.15l.12-.12c.37-.41.77-.82,1.11-1.15a2.23,2.23,0,0,1,.22-.21l.17-.17c.42-.38.93-.83,1.44-1.24a26.08,26.08,0,0,1,2.51-1.8A28.32,28.32,0,0,1,144,21c1.26-.66,3-1.35,4.37-1.91l.68-.27h0a54.62,54.62,0,0,1,6.62-1.88c.86-.2,1.88-.39,2.77-.53l.83-.12c2.17-.28,3.26-.42,4.24-.51h.15l1.36-.1,1.16-.05h.43l.49,0h6l.65,0,1.35.09c1.48.11,2.43.18,3.44.29h0l.32,0,2.22.3h.06c.76.1,2.78.39,5.52,1l.21.05,1.69.37h0a80.24,80.24,0,0,1,14.14,4.69l0,0,.07,0c1,.44,1.95.89,2.89,1.35,1.17.56,1.91,1,3.14,1.66,1.51.84,2.94,1.72,4.31,2.64l0,0q2,1.36,3.85,2.85l.78.64.07.06c.56.47,1.15,1,1.78,1.58l.22.21.39.37A31.84,31.84,0,0,1,223,36.7c.52.61,1,1.19,1.38,1.72l0,.06a28.23,28.23,0,0,1,2,3.06,17.94,17.94,0,0,1,1.06,2,17.31,17.31,0,0,1,1,2.56,11.83,11.83,0,0,1,.63,2.22,15.24,15.24,0,0,1,.36,2.42,10.64,10.64,0,0,1,.07,1.08v.49c0,.12,0,.24,0,.36a16,16,0,0,1-.34,3.23c-.06.26-.13.56-.21.86v.05c-.07.27-.15.53-.23.79v0l-.23.72c-.07.19-.16.41-.25.63-.18.45-.38.89-.59,1.32a11.33,11.33,0,0,1-1,1.84,18.74,18.74,0,0,1-1.31,1.8,7.12,7.12,0,0,1-.49.58,20,20,0,0,1-1.43,1.49l-.35.34a28.59,28.59,0,0,1-2.25,1.87h0A31.59,31.59,0,0,1,216.37,71l-.08,0-.14.07-.3.15-.23.12a46.91,46.91,0,0,1-4.34,1.83h0c-.48.18-1,.37-1.66.57-2.06.66-3.7,1-4.5,1.21-1.4.32-2.81.59-4.06.75l-3,.38-.13,0-1,.1c-.84.08-1.59.12-2.8.17h-.27l-.49,0h-.41c-3.55.11-6.32-.07-6.35-.07l-.5,0c-1.44-.08-2.49-.17-3-.21-1.27-.11-2.28-.23-4-.48-.65-.09-2.2-.31-4.3-.72-1.06-.2-1.66-.33-2.69-.57l-.42-.1c-1.15-.27-2.28-.57-3.4-.88l-.25-.06s-1.35-.37-3.36-1c-1.47-.48-2.91-1-4.32-1.55l-1-.41-.37-.15-1.43-.61-.11-.05h0c-.88-.38-2.73-1.21-5.06-2.46l-.25-.14-.68-.38A56,56,0,0,1,142,60c-1-.81-1.67-1.48-2-1.85l-.09-.1-.24-.23-.9-.92c-.41-.41-.8-.84-1.12-1.22l-.06-.07c-.59-.69-1.11-1.34-1.56-1.93l-.12-.15-.09-.13c-.24-.32-.46-.63-.66-.92-.36-.52-.72-1.06-1-1.53a29.68,29.68,0,0,1-1.9-3.79h0a18.65,18.65,0,0,1-1.11-3.64c0-.21-.07-.44-.11-.67l-.16-1a10.1,10.1,0,0,1-.12-1.3c0-.14,0-.28,0-.41Z"/><path class="cls-114" d="M209.38,44.42c-17.82,10.73-47.33,11-65.9.67-5.44-3-9.34-6.65-11.69-10.52a41.47,41.47,0,0,1,7.9-17.47,38.78,38.78,0,0,1,2.7-3.22A42.77,42.77,0,0,1,146.57,10a44.46,44.46,0,0,1,4.87-3.4A47.22,47.22,0,0,1,175.24,0a49.64,49.64,0,0,1,11.32,1.22,46.4,46.4,0,0,1,7,2.17,42.8,42.8,0,0,1,5.25,2.51,43.2,43.2,0,0,1,5,3.22,42.76,42.76,0,0,1,4.62,4,44,44,0,0,1,6.28,8.16A43,43,0,0,1,219,31.62c.28,1.07.52,2.08.72,3.07A29.73,29.73,0,0,1,209.38,44.42Z"/><path class="cls-115" d="M161.94,21c8,4.46,20.71,4.33,28.38-.29s7.41-12-.59-16.44S169,0,161.35,4.57,153.94,16.55,161.94,21Z"/></g></g></g></svg>